<mxfile host="app.diagrams.net" modified="2023-12-18T15:20:49.371Z" agent="Mozilla/5.0 (Windows NT 10.0; Win64; x64) AppleWebKit/537.36 (KHTML, like Gecko) Chrome/120.0.0.0 Safari/537.36" etag="b2nTfnqW8QsgTK0guXBB" version="22.1.11" type="github" pages="9">
  <diagram id="Z4i6N7PGft-0dj0jKOvz" name="Overview - Procurement">
    <mxGraphModel dx="1221" dy="652" grid="1" gridSize="10" guides="1" tooltips="1" connect="1" arrows="1" fold="1" page="1" pageScale="1" pageWidth="850" pageHeight="1100" math="0" shadow="0">
      <root>
        <mxCell id="0" />
        <mxCell id="1" parent="0" />
        <mxCell id="KL33UCRnCFC_HcEt4MnY-1" value="Procurement Overview" style="rounded=0;whiteSpace=wrap;html=1;fillColor=#e1d5e7;strokeColor=#9673a6;labelPosition=center;verticalLabelPosition=top;align=center;verticalAlign=bottom;" parent="1" vertex="1">
          <mxGeometry x="20" y="110" width="820" height="600" as="geometry" />
        </mxCell>
        <mxCell id="KL33UCRnCFC_HcEt4MnY-40" style="edgeStyle=orthogonalEdgeStyle;rounded=0;orthogonalLoop=1;jettySize=auto;html=1;exitX=0.5;exitY=1;exitDx=0;exitDy=0;entryX=0;entryY=0.5;entryDx=0;entryDy=0;" parent="1" source="KL33UCRnCFC_HcEt4MnY-3" target="KL33UCRnCFC_HcEt4MnY-11" edge="1">
          <mxGeometry relative="1" as="geometry" />
        </mxCell>
        <mxCell id="KL33UCRnCFC_HcEt4MnY-3" value="Issue Purchase Request (PR)" style="rounded=1;whiteSpace=wrap;html=1;fillColor=#dae8fc;strokeColor=#6c8ebf;" parent="1" vertex="1">
          <mxGeometry x="70" y="130" width="120" height="60" as="geometry" />
        </mxCell>
        <mxCell id="KL33UCRnCFC_HcEt4MnY-4" value="Request a need and seek approval" style="text;html=1;align=center;verticalAlign=middle;whiteSpace=wrap;rounded=0;" parent="1" vertex="1">
          <mxGeometry x="190" y="145" width="120" height="30" as="geometry" />
        </mxCell>
        <mxCell id="KL33UCRnCFC_HcEt4MnY-5" value="&lt;font color=&quot;#ff3333&quot;&gt;MedEx&lt;/font&gt;" style="text;html=1;strokeColor=#9673a6;fillColor=#e1d5e7;align=center;verticalAlign=middle;whiteSpace=wrap;rounded=0;glass=0;shadow=1;sketch=1;curveFitting=1;jiggle=2;strokeWidth=1;fontSize=14;fontStyle=1" parent="1" vertex="1">
          <mxGeometry x="20" y="10" width="300" height="60" as="geometry" />
        </mxCell>
        <mxCell id="KL33UCRnCFC_HcEt4MnY-41" style="edgeStyle=orthogonalEdgeStyle;rounded=0;orthogonalLoop=1;jettySize=auto;html=1;exitX=0.5;exitY=1;exitDx=0;exitDy=0;entryX=0;entryY=0.5;entryDx=0;entryDy=0;" parent="1" source="KL33UCRnCFC_HcEt4MnY-11" target="KL33UCRnCFC_HcEt4MnY-18" edge="1">
          <mxGeometry relative="1" as="geometry" />
        </mxCell>
        <mxCell id="KL33UCRnCFC_HcEt4MnY-11" value="Add PR Line(s) to RFX" style="rounded=1;whiteSpace=wrap;html=1;fillColor=#dae8fc;strokeColor=#6c8ebf;" parent="1" vertex="1">
          <mxGeometry x="190" y="215" width="120" height="60" as="geometry" />
        </mxCell>
        <mxCell id="KL33UCRnCFC_HcEt4MnY-12" value="Request for quotation, proposal, tender..." style="text;html=1;align=center;verticalAlign=middle;whiteSpace=wrap;rounded=0;" parent="1" vertex="1">
          <mxGeometry x="330" y="230" width="120" height="30" as="geometry" />
        </mxCell>
        <mxCell id="KL33UCRnCFC_HcEt4MnY-42" style="edgeStyle=orthogonalEdgeStyle;rounded=0;orthogonalLoop=1;jettySize=auto;html=1;exitX=0.5;exitY=1;exitDx=0;exitDy=0;entryX=0;entryY=0.5;entryDx=0;entryDy=0;" parent="1" source="KL33UCRnCFC_HcEt4MnY-18" target="KL33UCRnCFC_HcEt4MnY-39" edge="1">
          <mxGeometry relative="1" as="geometry" />
        </mxCell>
        <mxCell id="KL33UCRnCFC_HcEt4MnY-18" value="Issue Purchase Order" style="rounded=1;whiteSpace=wrap;html=1;fillColor=#dae8fc;strokeColor=#6c8ebf;" parent="1" vertex="1">
          <mxGeometry x="310" y="300" width="120" height="60" as="geometry" />
        </mxCell>
        <mxCell id="KL33UCRnCFC_HcEt4MnY-33" value="" style="group" parent="1" vertex="1" connectable="0">
          <mxGeometry x="20" y="750" width="320" height="260" as="geometry" />
        </mxCell>
        <mxCell id="KL33UCRnCFC_HcEt4MnY-34" value="Legend" style="rounded=0;whiteSpace=wrap;html=1;align=center;labelPosition=center;verticalLabelPosition=top;verticalAlign=bottom;" parent="KL33UCRnCFC_HcEt4MnY-33" vertex="1">
          <mxGeometry width="320" height="260" as="geometry" />
        </mxCell>
        <mxCell id="KL33UCRnCFC_HcEt4MnY-35" value="Main Process" style="rounded=1;whiteSpace=wrap;html=1;fillColor=#dae8fc;strokeColor=#6c8ebf;labelPosition=right;verticalLabelPosition=middle;align=left;verticalAlign=middle;" parent="KL33UCRnCFC_HcEt4MnY-33" vertex="1">
          <mxGeometry x="10" y="56" width="20" height="40" as="geometry" />
        </mxCell>
        <mxCell id="KL33UCRnCFC_HcEt4MnY-36" value="Sub Process" style="rounded=1;whiteSpace=wrap;html=1;fillColor=#f8cecc;strokeColor=#b85450;labelPosition=right;verticalLabelPosition=middle;align=left;verticalAlign=middle;" parent="KL33UCRnCFC_HcEt4MnY-33" vertex="1">
          <mxGeometry x="10" y="96" width="20" height="40" as="geometry" />
        </mxCell>
        <mxCell id="KL33UCRnCFC_HcEt4MnY-37" value="Component" style="rounded=1;whiteSpace=wrap;html=1;fillColor=#f5f5f5;strokeColor=#666666;labelPosition=right;verticalLabelPosition=middle;align=left;verticalAlign=middle;fontColor=#333333;" parent="KL33UCRnCFC_HcEt4MnY-33" vertex="1">
          <mxGeometry x="10" y="136" width="20" height="40" as="geometry" />
        </mxCell>
        <mxCell id="KL33UCRnCFC_HcEt4MnY-38" value="Module" style="rounded=1;whiteSpace=wrap;html=1;fillColor=#e1d5e7;strokeColor=#9673a6;labelPosition=right;verticalLabelPosition=middle;align=left;verticalAlign=middle;" parent="KL33UCRnCFC_HcEt4MnY-33" vertex="1">
          <mxGeometry x="10" y="16" width="20" height="40" as="geometry" />
        </mxCell>
        <mxCell id="J4r2_5YERc6gGcM6hDP4-3" value="&lt;font color=&quot;#000000&quot;&gt;Unimplemented main process&lt;/font&gt;" style="rounded=1;whiteSpace=wrap;html=1;fillColor=#e51400;strokeColor=#B20000;labelPosition=right;verticalLabelPosition=middle;align=left;verticalAlign=middle;fontColor=#ffffff;opacity=50;" parent="KL33UCRnCFC_HcEt4MnY-33" vertex="1">
          <mxGeometry x="10" y="176" width="20" height="40" as="geometry" />
        </mxCell>
        <mxCell id="KL33UCRnCFC_HcEt4MnY-44" style="edgeStyle=orthogonalEdgeStyle;rounded=0;orthogonalLoop=1;jettySize=auto;html=1;exitX=0.5;exitY=1;exitDx=0;exitDy=0;entryX=0;entryY=0.5;entryDx=0;entryDy=0;" parent="1" source="KL33UCRnCFC_HcEt4MnY-39" target="KL33UCRnCFC_HcEt4MnY-43" edge="1">
          <mxGeometry relative="1" as="geometry" />
        </mxCell>
        <mxCell id="KL33UCRnCFC_HcEt4MnY-39" value="Incoming PO lines" style="rounded=1;whiteSpace=wrap;html=1;fillColor=#f8cecc;strokeColor=#b85450;" parent="1" vertex="1">
          <mxGeometry x="430" y="390" width="100" height="50" as="geometry" />
        </mxCell>
        <mxCell id="J4r2_5YERc6gGcM6hDP4-2" style="edgeStyle=orthogonalEdgeStyle;rounded=0;orthogonalLoop=1;jettySize=auto;html=1;exitX=0.5;exitY=1;exitDx=0;exitDy=0;entryX=0;entryY=0.5;entryDx=0;entryDy=0;" parent="1" source="KL33UCRnCFC_HcEt4MnY-43" target="J4r2_5YERc6gGcM6hDP4-1" edge="1">
          <mxGeometry relative="1" as="geometry" />
        </mxCell>
        <mxCell id="KL33UCRnCFC_HcEt4MnY-43" value="Proof Of Delivery" style="rounded=1;whiteSpace=wrap;html=1;fillColor=#dae8fc;strokeColor=#6c8ebf;" parent="1" vertex="1">
          <mxGeometry x="550" y="470" width="120" height="60" as="geometry" />
        </mxCell>
        <mxCell id="KL33UCRnCFC_HcEt4MnY-47" value="Issue purchase order with selected vendors" style="text;html=1;align=center;verticalAlign=middle;whiteSpace=wrap;rounded=0;" parent="1" vertex="1">
          <mxGeometry x="450" y="320" width="120" height="30" as="geometry" />
        </mxCell>
        <mxCell id="KL33UCRnCFC_HcEt4MnY-48" value="Add PO lines waiting for fulfillment" style="text;html=1;align=center;verticalAlign=middle;whiteSpace=wrap;rounded=0;" parent="1" vertex="1">
          <mxGeometry x="570" y="405" width="120" height="30" as="geometry" />
        </mxCell>
        <mxCell id="KL33UCRnCFC_HcEt4MnY-49" value="Get a proof of delivery over PO lines" style="text;html=1;align=center;verticalAlign=middle;whiteSpace=wrap;rounded=0;" parent="1" vertex="1">
          <mxGeometry x="690" y="485" width="120" height="30" as="geometry" />
        </mxCell>
        <mxCell id="cY_5NPj3YQcrY0aDIjKT-1" value="Issue of PDF" style="rounded=1;whiteSpace=wrap;html=1;fillColor=#e51400;strokeColor=#B20000;fontColor=#ffffff;opacity=50;" parent="1" vertex="1">
          <mxGeometry x="660" y="640" width="120" height="60" as="geometry" />
        </mxCell>
        <mxCell id="J4r2_5YERc6gGcM6hDP4-4" style="edgeStyle=orthogonalEdgeStyle;rounded=0;orthogonalLoop=1;jettySize=auto;html=1;exitX=0.5;exitY=1;exitDx=0;exitDy=0;entryX=0.5;entryY=0;entryDx=0;entryDy=0;" parent="1" source="J4r2_5YERc6gGcM6hDP4-1" target="cY_5NPj3YQcrY0aDIjKT-1" edge="1">
          <mxGeometry relative="1" as="geometry" />
        </mxCell>
        <mxCell id="J4r2_5YERc6gGcM6hDP4-1" value="POD lines" style="rounded=1;whiteSpace=wrap;html=1;fillColor=#f8cecc;strokeColor=#b85450;" parent="1" vertex="1">
          <mxGeometry x="670" y="550" width="100" height="50" as="geometry" />
        </mxCell>
      </root>
    </mxGraphModel>
  </diagram>
  <diagram name="Procurement - Granular Process" id="H0Pjnvdfz8dm4JJIMfR8">
    <mxGraphModel dx="1221" dy="652" grid="1" gridSize="10" guides="1" tooltips="1" connect="1" arrows="1" fold="1" page="1" pageScale="1" pageWidth="850" pageHeight="1100" math="0" shadow="0">
      <root>
        <mxCell id="0" />
        <mxCell id="1" parent="0" />
        <mxCell id="eIU1nrXYU5PsXU-S_pTF-79" value="Procurement - Granular Process" style="rounded=0;whiteSpace=wrap;html=1;fillColor=#e1d5e7;strokeColor=#9673a6;labelPosition=center;verticalLabelPosition=top;align=center;verticalAlign=bottom;" parent="1" vertex="1">
          <mxGeometry x="20" y="110" width="820" height="730" as="geometry" />
        </mxCell>
        <mxCell id="eIU1nrXYU5PsXU-S_pTF-11" style="edgeStyle=orthogonalEdgeStyle;rounded=0;orthogonalLoop=1;jettySize=auto;html=1;exitX=0.5;exitY=1;exitDx=0;exitDy=0;entryX=0;entryY=0.5;entryDx=0;entryDy=0;" parent="1" source="eIU1nrXYU5PsXU-S_pTF-1" target="eIU1nrXYU5PsXU-S_pTF-10" edge="1">
          <mxGeometry relative="1" as="geometry" />
        </mxCell>
        <mxCell id="eIU1nrXYU5PsXU-S_pTF-1" value="Issue Purchase Request (PR)" style="rounded=1;whiteSpace=wrap;html=1;fillColor=#dae8fc;strokeColor=#6c8ebf;" parent="1" vertex="1">
          <mxGeometry x="190" y="130" width="120" height="60" as="geometry" />
        </mxCell>
        <mxCell id="eIU1nrXYU5PsXU-S_pTF-13" style="edgeStyle=orthogonalEdgeStyle;rounded=0;orthogonalLoop=1;jettySize=auto;html=1;entryX=0;entryY=0.5;entryDx=0;entryDy=0;" parent="1" source="eIU1nrXYU5PsXU-S_pTF-10" target="eIU1nrXYU5PsXU-S_pTF-12" edge="1">
          <mxGeometry relative="1" as="geometry" />
        </mxCell>
        <mxCell id="eIU1nrXYU5PsXU-S_pTF-10" value="Submit details (PR lines)" style="rounded=1;whiteSpace=wrap;html=1;fillColor=#f8cecc;strokeColor=#b85450;" parent="1" vertex="1">
          <mxGeometry x="290" y="200" width="80" height="30" as="geometry" />
        </mxCell>
        <mxCell id="eIU1nrXYU5PsXU-S_pTF-19" style="edgeStyle=orthogonalEdgeStyle;rounded=0;orthogonalLoop=1;jettySize=auto;html=1;exitX=0.5;exitY=1;exitDx=0;exitDy=0;entryX=0.5;entryY=0;entryDx=0;entryDy=0;" parent="1" source="eIU1nrXYU5PsXU-S_pTF-12" target="eIU1nrXYU5PsXU-S_pTF-18" edge="1">
          <mxGeometry relative="1" as="geometry" />
        </mxCell>
        <mxCell id="eIU1nrXYU5PsXU-S_pTF-12" value="Add PR Line(s) to RFX" style="rounded=1;whiteSpace=wrap;html=1;fillColor=#dae8fc;strokeColor=#6c8ebf;" parent="1" vertex="1">
          <mxGeometry x="510" y="185" width="120" height="60" as="geometry" />
        </mxCell>
        <mxCell id="eIU1nrXYU5PsXU-S_pTF-21" style="edgeStyle=orthogonalEdgeStyle;rounded=0;orthogonalLoop=1;jettySize=auto;html=1;exitX=0.5;exitY=1;exitDx=0;exitDy=0;entryX=0.5;entryY=0;entryDx=0;entryDy=0;" parent="1" source="eIU1nrXYU5PsXU-S_pTF-18" target="eIU1nrXYU5PsXU-S_pTF-20" edge="1">
          <mxGeometry relative="1" as="geometry" />
        </mxCell>
        <mxCell id="eIU1nrXYU5PsXU-S_pTF-18" value="Suppliers replies" style="rounded=1;whiteSpace=wrap;html=1;fillColor=#f8cecc;strokeColor=#b85450;" parent="1" vertex="1">
          <mxGeometry x="530" y="270" width="80" height="30" as="geometry" />
        </mxCell>
        <mxCell id="eIU1nrXYU5PsXU-S_pTF-24" style="edgeStyle=orthogonalEdgeStyle;rounded=0;orthogonalLoop=1;jettySize=auto;html=1;exitX=0.5;exitY=1;exitDx=0;exitDy=0;entryX=0.5;entryY=0;entryDx=0;entryDy=0;" parent="1" source="eIU1nrXYU5PsXU-S_pTF-20" target="eIU1nrXYU5PsXU-S_pTF-22" edge="1">
          <mxGeometry relative="1" as="geometry" />
        </mxCell>
        <mxCell id="eIU1nrXYU5PsXU-S_pTF-20" value="Award Choice" style="rounded=1;whiteSpace=wrap;html=1;fillColor=#f8cecc;strokeColor=#b85450;" parent="1" vertex="1">
          <mxGeometry x="530" y="320" width="80" height="30" as="geometry" />
        </mxCell>
        <mxCell id="kFlg1BJSuGmeFxJB_X5R-3" style="edgeStyle=orthogonalEdgeStyle;rounded=0;orthogonalLoop=1;jettySize=auto;html=1;exitX=0.5;exitY=1;exitDx=0;exitDy=0;entryX=0.5;entryY=0;entryDx=0;entryDy=0;" parent="1" source="eIU1nrXYU5PsXU-S_pTF-22" target="kFlg1BJSuGmeFxJB_X5R-1" edge="1">
          <mxGeometry relative="1" as="geometry" />
        </mxCell>
        <mxCell id="eIU1nrXYU5PsXU-S_pTF-22" value="Issue Purchase Order" style="rounded=1;whiteSpace=wrap;html=1;fillColor=#dae8fc;strokeColor=#6c8ebf;" parent="1" vertex="1">
          <mxGeometry x="510" y="380" width="120" height="60" as="geometry" />
        </mxCell>
        <mxCell id="eIU1nrXYU5PsXU-S_pTF-38" value="" style="group" parent="1" vertex="1" connectable="0">
          <mxGeometry x="220" y="220" width="80" height="80" as="geometry" />
        </mxCell>
        <mxCell id="eIU1nrXYU5PsXU-S_pTF-33" value="General" style="rounded=0;whiteSpace=wrap;html=1;fillColor=#f5f5f5;fontColor=#333333;strokeColor=#666666;" parent="eIU1nrXYU5PsXU-S_pTF-38" vertex="1">
          <mxGeometry width="80" height="20" as="geometry" />
        </mxCell>
        <mxCell id="eIU1nrXYU5PsXU-S_pTF-34" value="Specifications" style="rounded=0;whiteSpace=wrap;html=1;fillColor=#f5f5f5;fontColor=#333333;strokeColor=#666666;" parent="eIU1nrXYU5PsXU-S_pTF-38" vertex="1">
          <mxGeometry y="20" width="80" height="20" as="geometry" />
        </mxCell>
        <mxCell id="eIU1nrXYU5PsXU-S_pTF-35" value="Financials" style="rounded=0;whiteSpace=wrap;html=1;fillColor=#f5f5f5;fontColor=#333333;strokeColor=#666666;" parent="eIU1nrXYU5PsXU-S_pTF-38" vertex="1">
          <mxGeometry y="40" width="80" height="20" as="geometry" />
        </mxCell>
        <mxCell id="eIU1nrXYU5PsXU-S_pTF-36" value="Logistics" style="rounded=0;whiteSpace=wrap;html=1;fillColor=#f5f5f5;fontColor=#333333;strokeColor=#666666;" parent="eIU1nrXYU5PsXU-S_pTF-38" vertex="1">
          <mxGeometry y="60" width="80" height="20" as="geometry" />
        </mxCell>
        <mxCell id="eIU1nrXYU5PsXU-S_pTF-57" value="" style="group" parent="1" vertex="1" connectable="0">
          <mxGeometry x="620" y="210" width="80" height="80" as="geometry" />
        </mxCell>
        <mxCell id="eIU1nrXYU5PsXU-S_pTF-51" value="Header" style="rounded=0;whiteSpace=wrap;html=1;fillColor=#f5f5f5;fontColor=#333333;strokeColor=#666666;" parent="eIU1nrXYU5PsXU-S_pTF-57" vertex="1">
          <mxGeometry width="80" height="20" as="geometry" />
        </mxCell>
        <mxCell id="eIU1nrXYU5PsXU-S_pTF-52" value="RFX lines" style="rounded=0;whiteSpace=wrap;html=1;fillColor=#f5f5f5;fontColor=#333333;strokeColor=#666666;" parent="eIU1nrXYU5PsXU-S_pTF-57" vertex="1">
          <mxGeometry y="20" width="80" height="20" as="geometry" />
        </mxCell>
        <mxCell id="eIU1nrXYU5PsXU-S_pTF-53" value="Suppliers" style="rounded=0;whiteSpace=wrap;html=1;fillColor=#f5f5f5;fontColor=#333333;strokeColor=#666666;" parent="eIU1nrXYU5PsXU-S_pTF-57" vertex="1">
          <mxGeometry y="40" width="80" height="20" as="geometry" />
        </mxCell>
        <mxCell id="eIU1nrXYU5PsXU-S_pTF-54" value="Replies" style="rounded=0;whiteSpace=wrap;html=1;fillColor=#f5f5f5;fontColor=#333333;strokeColor=#666666;" parent="eIU1nrXYU5PsXU-S_pTF-57" vertex="1">
          <mxGeometry y="60" width="80" height="20" as="geometry" />
        </mxCell>
        <mxCell id="eIU1nrXYU5PsXU-S_pTF-70" value="Header" style="rounded=0;whiteSpace=wrap;html=1;fillColor=#f5f5f5;fontColor=#333333;strokeColor=#666666;" parent="1" vertex="1">
          <mxGeometry x="620" y="420" width="80" height="20" as="geometry" />
        </mxCell>
        <mxCell id="eIU1nrXYU5PsXU-S_pTF-71" value="PO lines" style="rounded=0;whiteSpace=wrap;html=1;fillColor=#f5f5f5;fontColor=#333333;strokeColor=#666666;" parent="1" vertex="1">
          <mxGeometry x="620" y="440" width="80" height="20" as="geometry" />
        </mxCell>
        <mxCell id="eIU1nrXYU5PsXU-S_pTF-77" value="Header" style="rounded=0;whiteSpace=wrap;html=1;fillColor=#f5f5f5;fontColor=#333333;strokeColor=#666666;" parent="1" vertex="1">
          <mxGeometry x="120" y="140" width="80" height="20" as="geometry" />
        </mxCell>
        <mxCell id="eIU1nrXYU5PsXU-S_pTF-78" value="PR lines" style="rounded=0;whiteSpace=wrap;html=1;fillColor=#f5f5f5;fontColor=#333333;strokeColor=#666666;" parent="1" vertex="1">
          <mxGeometry x="120" y="160" width="80" height="20" as="geometry" />
        </mxCell>
        <mxCell id="kFlg1BJSuGmeFxJB_X5R-9" style="edgeStyle=orthogonalEdgeStyle;rounded=0;orthogonalLoop=1;jettySize=auto;html=1;exitX=0.5;exitY=1;exitDx=0;exitDy=0;entryX=0.5;entryY=0;entryDx=0;entryDy=0;" parent="1" source="7lPI4U7M6CpoVGzrRbT0-1" target="kFlg1BJSuGmeFxJB_X5R-8" edge="1">
          <mxGeometry relative="1" as="geometry" />
        </mxCell>
        <mxCell id="7lPI4U7M6CpoVGzrRbT0-1" value="Proof Of Delivery" style="rounded=1;whiteSpace=wrap;html=1;fillColor=#dae8fc;strokeColor=#6c8ebf;" parent="1" vertex="1">
          <mxGeometry x="510" y="570" width="120" height="60" as="geometry" />
        </mxCell>
        <mxCell id="kFlg1BJSuGmeFxJB_X5R-4" style="edgeStyle=orthogonalEdgeStyle;rounded=0;orthogonalLoop=1;jettySize=auto;html=1;exitX=0.5;exitY=1;exitDx=0;exitDy=0;entryX=0.5;entryY=0;entryDx=0;entryDy=0;" parent="1" source="kFlg1BJSuGmeFxJB_X5R-1" target="7lPI4U7M6CpoVGzrRbT0-1" edge="1">
          <mxGeometry relative="1" as="geometry" />
        </mxCell>
        <mxCell id="kFlg1BJSuGmeFxJB_X5R-1" value="Incoming PO lines" style="rounded=1;whiteSpace=wrap;html=1;fillColor=#f8cecc;strokeColor=#b85450;" parent="1" vertex="1">
          <mxGeometry x="530" y="490" width="80" height="30" as="geometry" />
        </mxCell>
        <mxCell id="kFlg1BJSuGmeFxJB_X5R-6" value="General" style="rounded=0;whiteSpace=wrap;html=1;fillColor=#f5f5f5;fontColor=#333333;strokeColor=#666666;" parent="1" vertex="1">
          <mxGeometry x="620" y="580" width="80" height="20" as="geometry" />
        </mxCell>
        <mxCell id="kFlg1BJSuGmeFxJB_X5R-7" value="POD lines" style="rounded=0;whiteSpace=wrap;html=1;fillColor=#f5f5f5;fontColor=#333333;strokeColor=#666666;" parent="1" vertex="1">
          <mxGeometry x="620" y="600" width="80" height="20" as="geometry" />
        </mxCell>
        <mxCell id="BdJWR2kpOaDdVwhGcQoq-2" style="edgeStyle=orthogonalEdgeStyle;rounded=0;orthogonalLoop=1;jettySize=auto;html=1;exitX=0.5;exitY=1;exitDx=0;exitDy=0;entryX=0.5;entryY=0;entryDx=0;entryDy=0;" parent="1" source="kFlg1BJSuGmeFxJB_X5R-8" target="BdJWR2kpOaDdVwhGcQoq-1" edge="1">
          <mxGeometry relative="1" as="geometry" />
        </mxCell>
        <mxCell id="kFlg1BJSuGmeFxJB_X5R-8" value="POD lines" style="rounded=1;whiteSpace=wrap;html=1;fillColor=#f8cecc;strokeColor=#b85450;" parent="1" vertex="1">
          <mxGeometry x="530" y="660" width="80" height="30" as="geometry" />
        </mxCell>
        <mxCell id="kFlg1BJSuGmeFxJB_X5R-10" value="Suppliers" style="rounded=0;whiteSpace=wrap;html=1;fillColor=#f5f5f5;fontColor=#333333;strokeColor=#666666;" parent="1" vertex="1">
          <mxGeometry x="620" y="620" width="80" height="20" as="geometry" />
        </mxCell>
        <mxCell id="kFlg1BJSuGmeFxJB_X5R-11" value="PR" style="rounded=0;whiteSpace=wrap;html=1;fillColor=#f5f5f5;fontColor=#333333;strokeColor=#666666;" parent="1" vertex="1">
          <mxGeometry x="600" y="670" width="80" height="20" as="geometry" />
        </mxCell>
        <mxCell id="kFlg1BJSuGmeFxJB_X5R-14" value="PR lines" style="rounded=0;whiteSpace=wrap;html=1;fillColor=#f5f5f5;fontColor=#333333;strokeColor=#666666;" parent="1" vertex="1">
          <mxGeometry x="600" y="690" width="80" height="20" as="geometry" />
        </mxCell>
        <mxCell id="kFlg1BJSuGmeFxJB_X5R-15" value="PO lines" style="rounded=0;whiteSpace=wrap;html=1;fillColor=#f5f5f5;fontColor=#333333;strokeColor=#666666;" parent="1" vertex="1">
          <mxGeometry x="600" y="710" width="80" height="20" as="geometry" />
        </mxCell>
        <mxCell id="BdJWR2kpOaDdVwhGcQoq-1" value="Issue of PDF" style="rounded=1;whiteSpace=wrap;html=1;fillColor=#e51400;strokeColor=#B20000;fontColor=#ffffff;opacity=50;" parent="1" vertex="1">
          <mxGeometry x="510" y="770" width="120" height="60" as="geometry" />
        </mxCell>
        <mxCell id="QsPr8rshBHvFHvCK39mu-1" value="" style="group" parent="1" vertex="1" connectable="0">
          <mxGeometry x="20" y="860" width="320" height="220" as="geometry" />
        </mxCell>
        <mxCell id="QsPr8rshBHvFHvCK39mu-2" value="Legend" style="rounded=0;whiteSpace=wrap;html=1;align=center;labelPosition=center;verticalLabelPosition=top;verticalAlign=bottom;" parent="QsPr8rshBHvFHvCK39mu-1" vertex="1">
          <mxGeometry width="320" height="194.6153846153846" as="geometry" />
        </mxCell>
        <mxCell id="QsPr8rshBHvFHvCK39mu-3" value="Main Process" style="rounded=1;whiteSpace=wrap;html=1;fillColor=#dae8fc;strokeColor=#6c8ebf;labelPosition=right;verticalLabelPosition=middle;align=left;verticalAlign=middle;" parent="QsPr8rshBHvFHvCK39mu-1" vertex="1">
          <mxGeometry x="10" y="47.38461538461539" width="20" height="33.84615384615385" as="geometry" />
        </mxCell>
        <mxCell id="QsPr8rshBHvFHvCK39mu-4" value="Sub Process" style="rounded=1;whiteSpace=wrap;html=1;fillColor=#f8cecc;strokeColor=#b85450;labelPosition=right;verticalLabelPosition=middle;align=left;verticalAlign=middle;" parent="QsPr8rshBHvFHvCK39mu-1" vertex="1">
          <mxGeometry x="10" y="81.23076923076923" width="20" height="33.84615384615385" as="geometry" />
        </mxCell>
        <mxCell id="QsPr8rshBHvFHvCK39mu-5" value="Component" style="rounded=1;whiteSpace=wrap;html=1;fillColor=#f5f5f5;strokeColor=#666666;labelPosition=right;verticalLabelPosition=middle;align=left;verticalAlign=middle;fontColor=#333333;" parent="QsPr8rshBHvFHvCK39mu-1" vertex="1">
          <mxGeometry x="10" y="115.07692307692308" width="20" height="33.84615384615385" as="geometry" />
        </mxCell>
        <mxCell id="QsPr8rshBHvFHvCK39mu-6" value="Module" style="rounded=1;whiteSpace=wrap;html=1;fillColor=#e1d5e7;strokeColor=#9673a6;labelPosition=right;verticalLabelPosition=middle;align=left;verticalAlign=middle;" parent="QsPr8rshBHvFHvCK39mu-1" vertex="1">
          <mxGeometry x="10" y="13.538461538461538" width="20" height="33.84615384615385" as="geometry" />
        </mxCell>
        <mxCell id="QsPr8rshBHvFHvCK39mu-7" value="&lt;font color=&quot;#000000&quot;&gt;Unimplemented main process&lt;/font&gt;" style="rounded=1;whiteSpace=wrap;html=1;fillColor=#e51400;strokeColor=#B20000;labelPosition=right;verticalLabelPosition=middle;align=left;verticalAlign=middle;fontColor=#ffffff;opacity=50;" parent="QsPr8rshBHvFHvCK39mu-1" vertex="1">
          <mxGeometry x="10" y="148.92307692307693" width="20" height="33.84615384615385" as="geometry" />
        </mxCell>
        <mxCell id="g6NfniYXF9_w8yxWcJeS-2" value="&lt;font color=&quot;#ff3333&quot;&gt;MedEx&lt;/font&gt;" style="text;html=1;strokeColor=#9673a6;fillColor=#e1d5e7;align=center;verticalAlign=middle;whiteSpace=wrap;rounded=0;glass=0;shadow=1;sketch=1;curveFitting=1;jiggle=2;strokeWidth=1;fontSize=14;fontStyle=1" parent="1" vertex="1">
          <mxGeometry x="30" y="20" width="300" height="60" as="geometry" />
        </mxCell>
      </root>
    </mxGraphModel>
  </diagram>
  <diagram id="eOL0iLS5cOAvuLwQb1fB" name="SCM Logical Design">
    <mxGraphModel dx="1221" dy="652" grid="1" gridSize="10" guides="1" tooltips="1" connect="1" arrows="1" fold="1" page="1" pageScale="1" pageWidth="850" pageHeight="1100" math="0" shadow="0">
      <root>
        <mxCell id="0" />
        <mxCell id="1" parent="0" />
        <mxCell id="e7X06huSIFkktnoPkuXo-6" style="edgeStyle=orthogonalEdgeStyle;rounded=0;orthogonalLoop=1;jettySize=auto;html=1;entryX=0;entryY=0.5;entryDx=0;entryDy=0;" parent="1" source="e7X06huSIFkktnoPkuXo-2" target="e7X06huSIFkktnoPkuXo-5" edge="1">
          <mxGeometry relative="1" as="geometry" />
        </mxCell>
        <mxCell id="e7X06huSIFkktnoPkuXo-3" value="PR Lines" style="rounded=1;whiteSpace=wrap;html=1;fillColor=#dae8fc;strokeColor=#6c8ebf;" parent="1" vertex="1">
          <mxGeometry x="300" y="90" width="120" height="60" as="geometry" />
        </mxCell>
        <mxCell id="e7X06huSIFkktnoPkuXo-4" value="PR line ID (PK)" style="rounded=0;whiteSpace=wrap;html=1;fillColor=#f5f5f5;fontColor=#333333;strokeColor=#666666;" parent="1" vertex="1">
          <mxGeometry x="300" y="130" width="120" height="20" as="geometry" />
        </mxCell>
        <mxCell id="e7X06huSIFkktnoPkuXo-5" value="PR ID (FK)" style="rounded=0;whiteSpace=wrap;html=1;fillColor=#f8cecc;strokeColor=#b85450;" parent="1" vertex="1">
          <mxGeometry x="300" y="150" width="120" height="20" as="geometry" />
        </mxCell>
        <mxCell id="ieakyvsKRn1zNfK3PeCr-10" value="RFX line ID (PK)" style="rounded=0;whiteSpace=wrap;html=1;fillColor=#f8cecc;strokeColor=#b85450;" parent="1" vertex="1">
          <mxGeometry x="300" y="190" width="120" height="20" as="geometry" />
        </mxCell>
        <mxCell id="ieakyvsKRn1zNfK3PeCr-11" value="RFX ID (PK)" style="rounded=0;whiteSpace=wrap;html=1;fillColor=#f8cecc;strokeColor=#b85450;" parent="1" vertex="1">
          <mxGeometry x="300" y="170" width="120" height="20" as="geometry" />
        </mxCell>
        <mxCell id="ieakyvsKRn1zNfK3PeCr-13" value="" style="group" parent="1" vertex="1" connectable="0">
          <mxGeometry x="620" y="330" width="120" height="60" as="geometry" />
        </mxCell>
        <mxCell id="QIUtmTztKK1rLW8wnPec-8" style="edgeStyle=orthogonalEdgeStyle;rounded=0;orthogonalLoop=1;jettySize=auto;html=1;" parent="ieakyvsKRn1zNfK3PeCr-13" source="ieakyvsKRn1zNfK3PeCr-1" edge="1">
          <mxGeometry relative="1" as="geometry">
            <mxPoint x="60" y="-120" as="targetPoint" />
          </mxGeometry>
        </mxCell>
        <mxCell id="ieakyvsKRn1zNfK3PeCr-1" value="RFX" style="rounded=1;whiteSpace=wrap;html=1;fillColor=#dae8fc;strokeColor=#6c8ebf;" parent="ieakyvsKRn1zNfK3PeCr-13" vertex="1">
          <mxGeometry width="120" height="60" as="geometry" />
        </mxCell>
        <mxCell id="ieakyvsKRn1zNfK3PeCr-2" value="RFX ID (PK)" style="rounded=0;whiteSpace=wrap;html=1;fillColor=#f5f5f5;fontColor=#333333;strokeColor=#666666;" parent="ieakyvsKRn1zNfK3PeCr-13" vertex="1">
          <mxGeometry y="40" width="120" height="20" as="geometry" />
        </mxCell>
        <mxCell id="2E7NF3snAu6UuV-0s15g-1" value="" style="group" parent="1" vertex="1" connectable="0">
          <mxGeometry x="620" y="130" width="120" height="80" as="geometry" />
        </mxCell>
        <mxCell id="ieakyvsKRn1zNfK3PeCr-6" value="RFX Lines" style="rounded=1;whiteSpace=wrap;html=1;fillColor=#dae8fc;strokeColor=#6c8ebf;" parent="2E7NF3snAu6UuV-0s15g-1" vertex="1">
          <mxGeometry width="120" height="60" as="geometry" />
        </mxCell>
        <mxCell id="ieakyvsKRn1zNfK3PeCr-7" value="RFX line ID (PK)" style="rounded=0;whiteSpace=wrap;html=1;fillColor=#f5f5f5;fontColor=#333333;strokeColor=#666666;" parent="2E7NF3snAu6UuV-0s15g-1" vertex="1">
          <mxGeometry y="40" width="120" height="20" as="geometry" />
        </mxCell>
        <mxCell id="ieakyvsKRn1zNfK3PeCr-8" value="RFX ID (FK)" style="rounded=0;whiteSpace=wrap;html=1;fillColor=#f8cecc;strokeColor=#b85450;" parent="2E7NF3snAu6UuV-0s15g-1" vertex="1">
          <mxGeometry y="60" width="120" height="20" as="geometry" />
        </mxCell>
        <mxCell id="2E7NF3snAu6UuV-0s15g-2" style="edgeStyle=orthogonalEdgeStyle;rounded=0;orthogonalLoop=1;jettySize=auto;html=1;exitX=0;exitY=0.5;exitDx=0;exitDy=0;entryX=1;entryY=0.5;entryDx=0;entryDy=0;" parent="1" source="ieakyvsKRn1zNfK3PeCr-8" target="ieakyvsKRn1zNfK3PeCr-10" edge="1">
          <mxGeometry relative="1" as="geometry" />
        </mxCell>
        <mxCell id="2E7NF3snAu6UuV-0s15g-4" value="" style="group" parent="1" vertex="1" connectable="0">
          <mxGeometry x="40" y="110" width="120" height="80" as="geometry" />
        </mxCell>
        <mxCell id="ieakyvsKRn1zNfK3PeCr-14" value="" style="group" parent="2E7NF3snAu6UuV-0s15g-4" vertex="1" connectable="0">
          <mxGeometry width="120" height="60" as="geometry" />
        </mxCell>
        <mxCell id="e7X06huSIFkktnoPkuXo-1" value="PR" style="rounded=1;whiteSpace=wrap;html=1;fillColor=#dae8fc;strokeColor=#6c8ebf;" parent="ieakyvsKRn1zNfK3PeCr-14" vertex="1">
          <mxGeometry width="120" height="60" as="geometry" />
        </mxCell>
        <mxCell id="e7X06huSIFkktnoPkuXo-2" value="PR ID (PK)" style="rounded=0;whiteSpace=wrap;html=1;fillColor=#f5f5f5;fontColor=#333333;strokeColor=#666666;" parent="ieakyvsKRn1zNfK3PeCr-14" vertex="1">
          <mxGeometry y="40" width="120" height="20" as="geometry" />
        </mxCell>
        <mxCell id="2E7NF3snAu6UuV-0s15g-3" value="Header Status" style="rounded=0;whiteSpace=wrap;html=1;fillColor=#f5f5f5;fontColor=#333333;strokeColor=#666666;" parent="2E7NF3snAu6UuV-0s15g-4" vertex="1">
          <mxGeometry y="60" width="120" height="20" as="geometry" />
        </mxCell>
        <mxCell id="QIUtmTztKK1rLW8wnPec-3" value="Other FKs" style="rounded=0;whiteSpace=wrap;html=1;fillColor=#e1d5e7;strokeColor=#9673a6;" parent="1" vertex="1">
          <mxGeometry x="300" y="210" width="120" height="20" as="geometry" />
        </mxCell>
        <mxCell id="QIUtmTztKK1rLW8wnPec-4" value="" style="group;strokeColor=none;strokeWidth=2;rounded=1;perimeterSpacing=15;" parent="1" vertex="1" connectable="0">
          <mxGeometry x="225" y="390" width="290" height="160" as="geometry" />
        </mxCell>
        <mxCell id="QIUtmTztKK1rLW8wnPec-6" value="" style="rounded=0;whiteSpace=wrap;html=1;fillColor=#f5f5f5;fontColor=#333333;strokeColor=#666666;" parent="QIUtmTztKK1rLW8wnPec-4" vertex="1">
          <mxGeometry x="-20" y="-20" width="310" height="180" as="geometry" />
        </mxCell>
        <mxCell id="RwipxI_FF2LhzbVbHmoT-1" value="med_productcatalog" style="rounded=1;whiteSpace=wrap;html=1;fillColor=#e1d5e7;strokeColor=#9673a6;" parent="QIUtmTztKK1rLW8wnPec-4" vertex="1">
          <mxGeometry y="30" width="130" height="20" as="geometry" />
        </mxCell>
        <mxCell id="RwipxI_FF2LhzbVbHmoT-2" value="med_producttype" style="rounded=1;whiteSpace=wrap;html=1;fillColor=#e1d5e7;strokeColor=#9673a6;" parent="QIUtmTztKK1rLW8wnPec-4" vertex="1">
          <mxGeometry y="60" width="130" height="20" as="geometry" />
        </mxCell>
        <mxCell id="RwipxI_FF2LhzbVbHmoT-3" value="med_accountcode" style="rounded=1;whiteSpace=wrap;html=1;fillColor=#e1d5e7;strokeColor=#9673a6;" parent="QIUtmTztKK1rLW8wnPec-4" vertex="1">
          <mxGeometry width="130" height="20" as="geometry" />
        </mxCell>
        <mxCell id="HEBnyTjkxfCN-hzblrbY-1" value="systemusers" style="rounded=1;whiteSpace=wrap;html=1;fillColor=#e1d5e7;strokeColor=#9673a6;" parent="QIUtmTztKK1rLW8wnPec-4" vertex="1">
          <mxGeometry x="140" width="130" height="20" as="geometry" />
        </mxCell>
        <mxCell id="HEBnyTjkxfCN-hzblrbY-2" value="transactioncurrencies" style="rounded=1;whiteSpace=wrap;html=1;fillColor=#e1d5e7;strokeColor=#9673a6;" parent="QIUtmTztKK1rLW8wnPec-4" vertex="1">
          <mxGeometry x="140" y="60" width="130" height="20" as="geometry" />
        </mxCell>
        <mxCell id="HEBnyTjkxfCN-hzblrbY-3" value="med_taxgroups" style="rounded=1;whiteSpace=wrap;html=1;fillColor=#e1d5e7;strokeColor=#9673a6;" parent="QIUtmTztKK1rLW8wnPec-4" vertex="1">
          <mxGeometry x="140" y="90" width="130" height="20" as="geometry" />
        </mxCell>
        <mxCell id="HEBnyTjkxfCN-hzblrbY-4" value="med_prs" style="rounded=1;whiteSpace=wrap;html=1;fillColor=#e1d5e7;strokeColor=#9673a6;" parent="QIUtmTztKK1rLW8wnPec-4" vertex="1">
          <mxGeometry x="140" y="30" width="130" height="20" as="geometry" />
        </mxCell>
        <mxCell id="QIUtmTztKK1rLW8wnPec-2" value="med_financialdimension" style="rounded=1;whiteSpace=wrap;html=1;fillColor=#e1d5e7;strokeColor=#9673a6;" parent="QIUtmTztKK1rLW8wnPec-4" vertex="1">
          <mxGeometry y="90" width="130" height="20" as="geometry" />
        </mxCell>
        <mxCell id="1fNaeYB-95KCRyb41LO_-1" value="med_sites" style="rounded=1;whiteSpace=wrap;html=1;fillColor=#e1d5e7;strokeColor=#9673a6;" parent="QIUtmTztKK1rLW8wnPec-4" vertex="1">
          <mxGeometry y="120" width="130" height="20" as="geometry" />
        </mxCell>
        <mxCell id="QIUtmTztKK1rLW8wnPec-7" style="edgeStyle=orthogonalEdgeStyle;rounded=0;orthogonalLoop=1;jettySize=auto;html=1;entryX=0.5;entryY=1;entryDx=0;entryDy=0;" parent="1" source="QIUtmTztKK1rLW8wnPec-6" target="QIUtmTztKK1rLW8wnPec-3" edge="1">
          <mxGeometry relative="1" as="geometry" />
        </mxCell>
        <mxCell id="eU2k_xbfKHR5KyVQUJ2c-10" style="edgeStyle=orthogonalEdgeStyle;rounded=0;orthogonalLoop=1;jettySize=auto;html=1;entryX=1;entryY=0.5;entryDx=0;entryDy=0;" parent="1" source="eU2k_xbfKHR5KyVQUJ2c-5" target="ieakyvsKRn1zNfK3PeCr-2" edge="1">
          <mxGeometry relative="1" as="geometry" />
        </mxCell>
        <mxCell id="eU2k_xbfKHR5KyVQUJ2c-21" value="" style="group;strokeColor=none;strokeWidth=2;rounded=1;perimeterSpacing=15;" parent="1" vertex="1" connectable="0">
          <mxGeometry x="815" y="520" width="290" height="160" as="geometry" />
        </mxCell>
        <mxCell id="eU2k_xbfKHR5KyVQUJ2c-22" value="" style="rounded=0;whiteSpace=wrap;html=1;fillColor=#f5f5f5;fontColor=#333333;strokeColor=#666666;" parent="eU2k_xbfKHR5KyVQUJ2c-21" vertex="1">
          <mxGeometry x="-20" y="-20" width="310" height="180" as="geometry" />
        </mxCell>
        <mxCell id="eU2k_xbfKHR5KyVQUJ2c-23" value="med_contracttype" style="rounded=1;whiteSpace=wrap;html=1;fillColor=#e1d5e7;strokeColor=#9673a6;" parent="eU2k_xbfKHR5KyVQUJ2c-21" vertex="1">
          <mxGeometry y="30" width="130" height="20" as="geometry" />
        </mxCell>
        <mxCell id="eU2k_xbfKHR5KyVQUJ2c-24" value="med_deliveryterm" style="rounded=1;whiteSpace=wrap;html=1;fillColor=#e1d5e7;strokeColor=#9673a6;" parent="eU2k_xbfKHR5KyVQUJ2c-21" vertex="1">
          <mxGeometry y="60" width="130" height="20" as="geometry" />
        </mxCell>
        <mxCell id="eU2k_xbfKHR5KyVQUJ2c-25" value="med_paymentterm" style="rounded=1;whiteSpace=wrap;html=1;fillColor=#e1d5e7;strokeColor=#9673a6;" parent="eU2k_xbfKHR5KyVQUJ2c-21" vertex="1">
          <mxGeometry width="130" height="20" as="geometry" />
        </mxCell>
        <mxCell id="eU2k_xbfKHR5KyVQUJ2c-26" value="systemusers" style="rounded=1;whiteSpace=wrap;html=1;fillColor=#e1d5e7;strokeColor=#9673a6;" parent="eU2k_xbfKHR5KyVQUJ2c-21" vertex="1">
          <mxGeometry x="140" width="130" height="20" as="geometry" />
        </mxCell>
        <mxCell id="eU2k_xbfKHR5KyVQUJ2c-29" value="med_supplier" style="rounded=1;whiteSpace=wrap;html=1;fillColor=#e1d5e7;strokeColor=#9673a6;" parent="eU2k_xbfKHR5KyVQUJ2c-21" vertex="1">
          <mxGeometry x="140" y="30" width="130" height="20" as="geometry" />
        </mxCell>
        <mxCell id="eU2k_xbfKHR5KyVQUJ2c-30" value="med_bid (Reply GUID)" style="rounded=1;whiteSpace=wrap;html=1;fillColor=#e1d5e7;strokeColor=#9673a6;" parent="eU2k_xbfKHR5KyVQUJ2c-21" vertex="1">
          <mxGeometry y="90" width="130" height="20" as="geometry" />
        </mxCell>
        <mxCell id="eU2k_xbfKHR5KyVQUJ2c-31" value="med_sites" style="rounded=1;whiteSpace=wrap;html=1;fillColor=#e1d5e7;strokeColor=#9673a6;" parent="eU2k_xbfKHR5KyVQUJ2c-21" vertex="1">
          <mxGeometry y="120" width="130" height="20" as="geometry" />
        </mxCell>
        <mxCell id="eU2k_xbfKHR5KyVQUJ2c-32" style="edgeStyle=orthogonalEdgeStyle;rounded=0;orthogonalLoop=1;jettySize=auto;html=1;entryX=0.5;entryY=1;entryDx=0;entryDy=0;" parent="1" source="eU2k_xbfKHR5KyVQUJ2c-22" target="eU2k_xbfKHR5KyVQUJ2c-11" edge="1">
          <mxGeometry relative="1" as="geometry" />
        </mxCell>
        <mxCell id="eU2k_xbfKHR5KyVQUJ2c-41" value="" style="group" parent="1" vertex="1" connectable="0">
          <mxGeometry x="890" y="310" width="120" height="100" as="geometry" />
        </mxCell>
        <mxCell id="eU2k_xbfKHR5KyVQUJ2c-8" value="" style="group" parent="eU2k_xbfKHR5KyVQUJ2c-41" vertex="1" connectable="0">
          <mxGeometry width="120" height="80" as="geometry" />
        </mxCell>
        <mxCell id="eU2k_xbfKHR5KyVQUJ2c-1" value="" style="group" parent="eU2k_xbfKHR5KyVQUJ2c-8" vertex="1" connectable="0">
          <mxGeometry width="120" height="60" as="geometry" />
        </mxCell>
        <mxCell id="eU2k_xbfKHR5KyVQUJ2c-3" value="PO" style="rounded=1;whiteSpace=wrap;html=1;fillColor=#dae8fc;strokeColor=#6c8ebf;" parent="eU2k_xbfKHR5KyVQUJ2c-1" vertex="1">
          <mxGeometry width="120" height="60" as="geometry" />
        </mxCell>
        <mxCell id="eU2k_xbfKHR5KyVQUJ2c-4" value="PO ID (PK)" style="rounded=0;whiteSpace=wrap;html=1;fillColor=#f5f5f5;fontColor=#333333;strokeColor=#666666;" parent="eU2k_xbfKHR5KyVQUJ2c-1" vertex="1">
          <mxGeometry y="40" width="120" height="20" as="geometry" />
        </mxCell>
        <mxCell id="eU2k_xbfKHR5KyVQUJ2c-5" value="RFX ID (FK)" style="rounded=0;whiteSpace=wrap;html=1;fillColor=#f8cecc;strokeColor=#b85450;" parent="eU2k_xbfKHR5KyVQUJ2c-8" vertex="1">
          <mxGeometry y="60" width="120" height="20" as="geometry" />
        </mxCell>
        <mxCell id="eU2k_xbfKHR5KyVQUJ2c-11" value="Other FKs" style="rounded=0;whiteSpace=wrap;html=1;fillColor=#e1d5e7;strokeColor=#9673a6;" parent="eU2k_xbfKHR5KyVQUJ2c-41" vertex="1">
          <mxGeometry y="80" width="120" height="20" as="geometry" />
        </mxCell>
        <mxCell id="eU2k_xbfKHR5KyVQUJ2c-45" value="" style="group" parent="1" vertex="1" connectable="0">
          <mxGeometry x="920" y="30" width="120" height="180" as="geometry" />
        </mxCell>
        <mxCell id="eU2k_xbfKHR5KyVQUJ2c-33" value="" style="group" parent="eU2k_xbfKHR5KyVQUJ2c-45" vertex="1" connectable="0">
          <mxGeometry width="120" height="80" as="geometry" />
        </mxCell>
        <mxCell id="eU2k_xbfKHR5KyVQUJ2c-34" value="" style="group" parent="eU2k_xbfKHR5KyVQUJ2c-33" vertex="1" connectable="0">
          <mxGeometry width="120" height="60" as="geometry" />
        </mxCell>
        <mxCell id="eU2k_xbfKHR5KyVQUJ2c-35" value="PO lines" style="rounded=1;whiteSpace=wrap;html=1;fillColor=#dae8fc;strokeColor=#6c8ebf;" parent="eU2k_xbfKHR5KyVQUJ2c-34" vertex="1">
          <mxGeometry width="120" height="60" as="geometry" />
        </mxCell>
        <mxCell id="eU2k_xbfKHR5KyVQUJ2c-36" value="PO line ID (PK)" style="rounded=0;whiteSpace=wrap;html=1;fillColor=#f5f5f5;fontColor=#333333;strokeColor=#666666;" parent="eU2k_xbfKHR5KyVQUJ2c-34" vertex="1">
          <mxGeometry y="40" width="120" height="20" as="geometry" />
        </mxCell>
        <mxCell id="eU2k_xbfKHR5KyVQUJ2c-37" value="PO ID (FK)" style="rounded=0;whiteSpace=wrap;html=1;fillColor=#f8cecc;strokeColor=#b85450;" parent="eU2k_xbfKHR5KyVQUJ2c-33" vertex="1">
          <mxGeometry y="60" width="120" height="20" as="geometry" />
        </mxCell>
        <mxCell id="eU2k_xbfKHR5KyVQUJ2c-38" value="RFX line ID (FK)" style="rounded=0;whiteSpace=wrap;html=1;fillColor=#f8cecc;strokeColor=#b85450;" parent="eU2k_xbfKHR5KyVQUJ2c-45" vertex="1">
          <mxGeometry y="80" width="120" height="20" as="geometry" />
        </mxCell>
        <mxCell id="eU2k_xbfKHR5KyVQUJ2c-39" value="Reply line (FK)" style="rounded=0;whiteSpace=wrap;html=1;fillColor=#f8cecc;strokeColor=#b85450;" parent="eU2k_xbfKHR5KyVQUJ2c-45" vertex="1">
          <mxGeometry y="100" width="120" height="20" as="geometry" />
        </mxCell>
        <mxCell id="eU2k_xbfKHR5KyVQUJ2c-42" value="Reply line (FK)" style="rounded=0;whiteSpace=wrap;html=1;fillColor=#f8cecc;strokeColor=#b85450;" parent="eU2k_xbfKHR5KyVQUJ2c-45" vertex="1">
          <mxGeometry y="120" width="120" height="20" as="geometry" />
        </mxCell>
        <mxCell id="eU2k_xbfKHR5KyVQUJ2c-43" value="Product type (FK)" style="rounded=0;whiteSpace=wrap;html=1;fillColor=#f8cecc;strokeColor=#b85450;" parent="eU2k_xbfKHR5KyVQUJ2c-45" vertex="1">
          <mxGeometry y="140" width="120" height="20" as="geometry" />
        </mxCell>
        <mxCell id="eU2k_xbfKHR5KyVQUJ2c-44" value="Product category (FK)" style="rounded=0;whiteSpace=wrap;html=1;fillColor=#f8cecc;strokeColor=#b85450;" parent="eU2k_xbfKHR5KyVQUJ2c-45" vertex="1">
          <mxGeometry y="160" width="120" height="20" as="geometry" />
        </mxCell>
        <mxCell id="eU2k_xbfKHR5KyVQUJ2c-46" style="edgeStyle=orthogonalEdgeStyle;rounded=0;orthogonalLoop=1;jettySize=auto;html=1;exitX=1;exitY=0.25;exitDx=0;exitDy=0;entryX=1;entryY=0.5;entryDx=0;entryDy=0;" parent="1" source="eU2k_xbfKHR5KyVQUJ2c-4" target="eU2k_xbfKHR5KyVQUJ2c-37" edge="1">
          <mxGeometry relative="1" as="geometry" />
        </mxCell>
      </root>
    </mxGraphModel>
  </diagram>
  <diagram name="PR Details" id="mO74-36OajPtZ_jqkHYf">
    <mxGraphModel dx="2071" dy="652" grid="1" gridSize="10" guides="1" tooltips="1" connect="1" arrows="1" fold="1" page="1" pageScale="1" pageWidth="850" pageHeight="1100" math="0" shadow="0">
      <root>
        <mxCell id="YfIN07U_jJtrGBwTAKjH-0" />
        <mxCell id="YfIN07U_jJtrGBwTAKjH-1" parent="YfIN07U_jJtrGBwTAKjH-0" />
        <mxCell id="YfIN07U_jJtrGBwTAKjH-42" value="" style="group;fillColor=#fff2cc;strokeColor=#d6b656;" parent="YfIN07U_jJtrGBwTAKjH-1" vertex="1" connectable="0">
          <mxGeometry x="-200" y="1110" width="350" height="330" as="geometry" />
        </mxCell>
        <mxCell id="YfIN07U_jJtrGBwTAKjH-43" value="Legend" style="rounded=0;whiteSpace=wrap;html=1;align=center;labelPosition=center;verticalLabelPosition=top;verticalAlign=bottom;" parent="YfIN07U_jJtrGBwTAKjH-42" vertex="1">
          <mxGeometry width="349.99999999999994" height="330" as="geometry" />
        </mxCell>
        <mxCell id="YfIN07U_jJtrGBwTAKjH-44" value="Main Entity" style="rounded=1;whiteSpace=wrap;html=1;fillColor=#dae8fc;strokeColor=#6c8ebf;labelPosition=right;verticalLabelPosition=middle;align=left;verticalAlign=middle;" parent="YfIN07U_jJtrGBwTAKjH-42" vertex="1">
          <mxGeometry x="9.722222222222221" y="59.61290322580648" width="19.444444444444443" height="42.580645161290334" as="geometry" />
        </mxCell>
        <mxCell id="YfIN07U_jJtrGBwTAKjH-45" value="Header Related Entity" style="rounded=1;whiteSpace=wrap;html=1;fillColor=#ffe6cc;strokeColor=#d79b00;labelPosition=right;verticalLabelPosition=middle;align=left;verticalAlign=middle;" parent="YfIN07U_jJtrGBwTAKjH-42" vertex="1">
          <mxGeometry x="9.722222222222221" y="144.77419354838713" width="19.444444444444443" height="42.580645161290334" as="geometry" />
        </mxCell>
        <mxCell id="YfIN07U_jJtrGBwTAKjH-46" value="Component" style="rounded=1;whiteSpace=wrap;html=1;fillColor=#f5f5f5;strokeColor=#666666;labelPosition=right;verticalLabelPosition=middle;align=left;verticalAlign=middle;fontColor=#333333;" parent="YfIN07U_jJtrGBwTAKjH-42" vertex="1">
          <mxGeometry x="9.722222222222221" y="102.1935483870968" width="19.444444444444443" height="42.580645161290334" as="geometry" />
        </mxCell>
        <mxCell id="uejmVy-IAsKptNvBUOdV-102" value="Header Field" style="rounded=1;whiteSpace=wrap;html=1;fillColor=#fff2cc;strokeColor=#d6b656;labelPosition=right;verticalLabelPosition=middle;align=left;verticalAlign=middle;" parent="YfIN07U_jJtrGBwTAKjH-42" vertex="1">
          <mxGeometry x="9.722222222222221" y="187.35483870967747" width="19.444444444444443" height="42.580645161290334" as="geometry" />
        </mxCell>
        <mxCell id="dSWCgx975Un4tW8NqF47-98" value="PR Line Related Entity" style="rounded=1;whiteSpace=wrap;html=1;fillColor=#e1d5e7;strokeColor=#9673a6;labelPosition=right;verticalLabelPosition=middle;align=left;verticalAlign=middle;" parent="YfIN07U_jJtrGBwTAKjH-42" vertex="1">
          <mxGeometry x="9.722222222222221" y="229.9354838709678" width="19.444444444444443" height="42.580645161290334" as="geometry" />
        </mxCell>
        <mxCell id="dSWCgx975Un4tW8NqF47-100" value="PR Line Field" style="rounded=1;whiteSpace=wrap;html=1;fillColor=#bac8d3;strokeColor=#23445d;labelPosition=right;verticalLabelPosition=middle;align=left;verticalAlign=middle;" parent="YfIN07U_jJtrGBwTAKjH-42" vertex="1">
          <mxGeometry x="9.722222222222221" y="272.51612903225816" width="19.444444444444443" height="42.580645161290334" as="geometry" />
        </mxCell>
        <mxCell id="YfIN07U_jJtrGBwTAKjH-49" value="&lt;font color=&quot;#ff3333&quot;&gt;MedEx&lt;/font&gt;" style="text;html=1;strokeColor=#9673a6;fillColor=#e1d5e7;align=center;verticalAlign=middle;whiteSpace=wrap;rounded=0;glass=0;shadow=1;sketch=1;curveFitting=1;jiggle=2;strokeWidth=1;fontSize=14;fontStyle=1" parent="YfIN07U_jJtrGBwTAKjH-1" vertex="1">
          <mxGeometry x="30" y="20" width="300" height="60" as="geometry" />
        </mxCell>
        <mxCell id="Poal_yzETdo0mD8HrPfY-2" value="GUID Fields" style="swimlane;fontStyle=0;childLayout=stackLayout;horizontal=1;startSize=30;horizontalStack=0;resizeParent=1;resizeParentMax=0;resizeLast=0;collapsible=1;marginBottom=0;whiteSpace=wrap;html=1;fillColor=#f5f5f5;fontColor=#333333;strokeColor=#666666;" parent="YfIN07U_jJtrGBwTAKjH-1" vertex="1">
          <mxGeometry x="40" y="230" width="140" height="690" as="geometry" />
        </mxCell>
        <mxCell id="Poal_yzETdo0mD8HrPfY-13" value="Purchase Location ID" style="text;strokeColor=none;fillColor=none;align=left;verticalAlign=middle;spacingLeft=4;spacingRight=4;overflow=hidden;points=[[0,0.5],[1,0.5]];portConstraint=eastwest;rotatable=0;whiteSpace=wrap;html=1;" parent="Poal_yzETdo0mD8HrPfY-2" vertex="1">
          <mxGeometry y="30" width="140" height="30" as="geometry" />
        </mxCell>
        <mxCell id="Poal_yzETdo0mD8HrPfY-17" value="Equip ID" style="text;strokeColor=#23445d;fillColor=#bac8d3;align=left;verticalAlign=middle;spacingLeft=4;spacingRight=4;overflow=hidden;points=[[0,0.5],[1,0.5]];portConstraint=eastwest;rotatable=0;whiteSpace=wrap;html=1;" parent="Poal_yzETdo0mD8HrPfY-2" vertex="1">
          <mxGeometry y="60" width="140" height="30" as="geometry" />
        </mxCell>
        <mxCell id="Poal_yzETdo0mD8HrPfY-18" value="Country ID" style="text;strokeColor=#23445d;fillColor=#bac8d3;align=left;verticalAlign=middle;spacingLeft=4;spacingRight=4;overflow=hidden;points=[[0,0.5],[1,0.5]];portConstraint=eastwest;rotatable=0;whiteSpace=wrap;html=1;" parent="Poal_yzETdo0mD8HrPfY-2" vertex="1">
          <mxGeometry y="90" width="140" height="30" as="geometry" />
        </mxCell>
        <mxCell id="Poal_yzETdo0mD8HrPfY-19" value="Donor ID" style="text;strokeColor=#23445d;fillColor=#bac8d3;align=left;verticalAlign=middle;spacingLeft=4;spacingRight=4;overflow=hidden;points=[[0,0.5],[1,0.5]];portConstraint=eastwest;rotatable=0;whiteSpace=wrap;html=1;" parent="Poal_yzETdo0mD8HrPfY-2" vertex="1">
          <mxGeometry y="120" width="140" height="30" as="geometry" />
        </mxCell>
        <mxCell id="Poal_yzETdo0mD8HrPfY-20" value="Org Unit" style="text;strokeColor=#23445d;fillColor=#bac8d3;align=left;verticalAlign=middle;spacingLeft=4;spacingRight=4;overflow=hidden;points=[[0,0.5],[1,0.5]];portConstraint=eastwest;rotatable=0;whiteSpace=wrap;html=1;" parent="Poal_yzETdo0mD8HrPfY-2" vertex="1">
          <mxGeometry y="150" width="140" height="30" as="geometry" />
        </mxCell>
        <mxCell id="Poal_yzETdo0mD8HrPfY-21" value="ResNo ID" style="text;strokeColor=#23445d;fillColor=#bac8d3;align=left;verticalAlign=middle;spacingLeft=4;spacingRight=4;overflow=hidden;points=[[0,0.5],[1,0.5]];portConstraint=eastwest;rotatable=0;whiteSpace=wrap;html=1;" parent="Poal_yzETdo0mD8HrPfY-2" vertex="1">
          <mxGeometry y="180" width="140" height="30" as="geometry" />
        </mxCell>
        <mxCell id="Poal_yzETdo0mD8HrPfY-22" value="Award ID" style="text;strokeColor=#23445d;fillColor=#bac8d3;align=left;verticalAlign=middle;spacingLeft=4;spacingRight=4;overflow=hidden;points=[[0,0.5],[1,0.5]];portConstraint=eastwest;rotatable=0;whiteSpace=wrap;html=1;" parent="Poal_yzETdo0mD8HrPfY-2" vertex="1">
          <mxGeometry y="210" width="140" height="30" as="geometry" />
        </mxCell>
        <mxCell id="Poal_yzETdo0mD8HrPfY-23" value="Location ID" style="text;strokeColor=#23445d;fillColor=#bac8d3;align=left;verticalAlign=middle;spacingLeft=4;spacingRight=4;overflow=hidden;points=[[0,0.5],[1,0.5]];portConstraint=eastwest;rotatable=0;whiteSpace=wrap;html=1;" parent="Poal_yzETdo0mD8HrPfY-2" vertex="1">
          <mxGeometry y="240" width="140" height="30" as="geometry" />
        </mxCell>
        <mxCell id="Poal_yzETdo0mD8HrPfY-24" value="Project ID" style="text;strokeColor=#23445d;fillColor=#bac8d3;align=left;verticalAlign=middle;spacingLeft=4;spacingRight=4;overflow=hidden;points=[[0,0.5],[1,0.5]];portConstraint=eastwest;rotatable=0;whiteSpace=wrap;html=1;" parent="Poal_yzETdo0mD8HrPfY-2" vertex="1">
          <mxGeometry y="270" width="140" height="30" as="geometry" />
        </mxCell>
        <mxCell id="dSWCgx975Un4tW8NqF47-55" value="Workorder ID" style="text;strokeColor=#23445d;fillColor=#bac8d3;align=left;verticalAlign=middle;spacingLeft=4;spacingRight=4;overflow=hidden;points=[[0,0.5],[1,0.5]];portConstraint=eastwest;rotatable=0;whiteSpace=wrap;html=1;" parent="Poal_yzETdo0mD8HrPfY-2" vertex="1">
          <mxGeometry y="300" width="140" height="30" as="geometry" />
        </mxCell>
        <mxCell id="dSWCgx975Un4tW8NqF47-52" value="Sector ID" style="text;strokeColor=#23445d;fillColor=#bac8d3;align=left;verticalAlign=middle;spacingLeft=4;spacingRight=4;overflow=hidden;points=[[0,0.5],[1,0.5]];portConstraint=eastwest;rotatable=0;whiteSpace=wrap;html=1;" parent="Poal_yzETdo0mD8HrPfY-2" vertex="1">
          <mxGeometry y="330" width="140" height="30" as="geometry" />
        </mxCell>
        <mxCell id="dSWCgx975Un4tW8NqF47-48" value="Program ID" style="text;strokeColor=#23445d;fillColor=#bac8d3;align=left;verticalAlign=middle;spacingLeft=4;spacingRight=4;overflow=hidden;points=[[0,0.5],[1,0.5]];portConstraint=eastwest;rotatable=0;whiteSpace=wrap;html=1;" parent="Poal_yzETdo0mD8HrPfY-2" vertex="1">
          <mxGeometry y="360" width="140" height="30" as="geometry" />
        </mxCell>
        <mxCell id="dSWCgx975Un4tW8NqF47-47" value="Result ID" style="text;strokeColor=#23445d;fillColor=#bac8d3;align=left;verticalAlign=middle;spacingLeft=4;spacingRight=4;overflow=hidden;points=[[0,0.5],[1,0.5]];portConstraint=eastwest;rotatable=0;whiteSpace=wrap;html=1;" parent="Poal_yzETdo0mD8HrPfY-2" vertex="1">
          <mxGeometry y="390" width="140" height="30" as="geometry" />
        </mxCell>
        <mxCell id="dSWCgx975Un4tW8NqF47-43" value="Owning User ID" style="text;strokeColor=#d6b656;fillColor=#fff2cc;align=left;verticalAlign=middle;spacingLeft=4;spacingRight=4;overflow=hidden;points=[[0,0.5],[1,0.5]];portConstraint=eastwest;rotatable=0;whiteSpace=wrap;html=1;" parent="Poal_yzETdo0mD8HrPfY-2" vertex="1">
          <mxGeometry y="420" width="140" height="30" as="geometry" />
        </mxCell>
        <mxCell id="dSWCgx975Un4tW8NqF47-53" value="Preparer ID" style="text;strokeColor=#d6b656;fillColor=#fff2cc;align=left;verticalAlign=middle;spacingLeft=4;spacingRight=4;overflow=hidden;points=[[0,0.5],[1,0.5]];portConstraint=eastwest;rotatable=0;whiteSpace=wrap;html=1;" parent="Poal_yzETdo0mD8HrPfY-2" vertex="1">
          <mxGeometry y="450" width="140" height="30" as="geometry" />
        </mxCell>
        <mxCell id="dSWCgx975Un4tW8NqF47-60" value="Modified By" style="text;strokeColor=#d6b656;fillColor=#fff2cc;align=left;verticalAlign=middle;spacingLeft=4;spacingRight=4;overflow=hidden;points=[[0,0.5],[1,0.5]];portConstraint=eastwest;rotatable=0;whiteSpace=wrap;html=1;" parent="Poal_yzETdo0mD8HrPfY-2" vertex="1">
          <mxGeometry y="480" width="140" height="30" as="geometry" />
        </mxCell>
        <mxCell id="dSWCgx975Un4tW8NqF47-62" value="Created By" style="text;strokeColor=#d6b656;fillColor=#fff2cc;align=left;verticalAlign=middle;spacingLeft=4;spacingRight=4;overflow=hidden;points=[[0,0.5],[1,0.5]];portConstraint=eastwest;rotatable=0;whiteSpace=wrap;html=1;" parent="Poal_yzETdo0mD8HrPfY-2" vertex="1">
          <mxGeometry y="510" width="140" height="30" as="geometry" />
        </mxCell>
        <mxCell id="dSWCgx975Un4tW8NqF47-63" value="Modified On Behalf" style="text;strokeColor=#d6b656;fillColor=#fff2cc;align=left;verticalAlign=middle;spacingLeft=4;spacingRight=4;overflow=hidden;points=[[0,0.5],[1,0.5]];portConstraint=eastwest;rotatable=0;whiteSpace=wrap;html=1;" parent="Poal_yzETdo0mD8HrPfY-2" vertex="1">
          <mxGeometry y="540" width="140" height="30" as="geometry" />
        </mxCell>
        <mxCell id="dSWCgx975Un4tW8NqF47-37" value="Requesting Site ID" style="text;strokeColor=#d6b656;fillColor=#fff2cc;align=left;verticalAlign=middle;spacingLeft=4;spacingRight=4;overflow=hidden;points=[[0,0.5],[1,0.5]];portConstraint=eastwest;rotatable=0;whiteSpace=wrap;html=1;" parent="Poal_yzETdo0mD8HrPfY-2" vertex="1">
          <mxGeometry y="570" width="140" height="30" as="geometry" />
        </mxCell>
        <mxCell id="dSWCgx975Un4tW8NqF47-36" value="tax Group ID" style="text;strokeColor=#d6b656;fillColor=#fff2cc;align=left;verticalAlign=middle;spacingLeft=4;spacingRight=4;overflow=hidden;points=[[0,0.5],[1,0.5]];portConstraint=eastwest;rotatable=0;whiteSpace=wrap;html=1;" parent="Poal_yzETdo0mD8HrPfY-2" vertex="1">
          <mxGeometry y="600" width="140" height="30" as="geometry" />
        </mxCell>
        <mxCell id="dSWCgx975Un4tW8NqF47-54" value="Currency ID" style="text;strokeColor=#d6b656;fillColor=#fff2cc;align=left;verticalAlign=middle;spacingLeft=4;spacingRight=4;overflow=hidden;points=[[0,0.5],[1,0.5]];portConstraint=eastwest;rotatable=0;whiteSpace=wrap;html=1;" parent="Poal_yzETdo0mD8HrPfY-2" vertex="1">
          <mxGeometry y="630" width="140" height="30" as="geometry" />
        </mxCell>
        <mxCell id="dSWCgx975Un4tW8NqF47-61" value="Owner ID" style="text;strokeColor=#d6b656;fillColor=#fff2cc;align=left;verticalAlign=middle;spacingLeft=4;spacingRight=4;overflow=hidden;points=[[0,0.5],[1,0.5]];portConstraint=eastwest;rotatable=0;whiteSpace=wrap;html=1;" parent="Poal_yzETdo0mD8HrPfY-2" vertex="1">
          <mxGeometry y="660" width="140" height="30" as="geometry" />
        </mxCell>
        <mxCell id="dSWCgx975Un4tW8NqF47-97" style="edgeStyle=orthogonalEdgeStyle;rounded=0;orthogonalLoop=1;jettySize=auto;html=1;exitX=0.5;exitY=1;exitDx=0;exitDy=0;entryX=0.5;entryY=0;entryDx=0;entryDy=0;" parent="YfIN07U_jJtrGBwTAKjH-1" source="dSWCgx975Un4tW8NqF47-24" target="dSWCgx975Un4tW8NqF47-96" edge="1">
          <mxGeometry relative="1" as="geometry" />
        </mxCell>
        <mxCell id="dSWCgx975Un4tW8NqF47-24" value="Required Fields" style="swimlane;fontStyle=0;childLayout=stackLayout;horizontal=1;startSize=26;fillColor=#f5f5f5;horizontalStack=0;resizeParent=1;resizeParentMax=0;resizeLast=0;collapsible=1;marginBottom=0;html=1;fontColor=#333333;strokeColor=default;fontSize=10;" parent="YfIN07U_jJtrGBwTAKjH-1" vertex="1">
          <mxGeometry x="190" y="230" width="140" height="494" as="geometry" />
        </mxCell>
        <mxCell id="dSWCgx975Un4tW8NqF47-25" value="med_name (incremental ID)" style="text;strokeColor=none;fillColor=none;align=left;verticalAlign=top;spacingLeft=4;spacingRight=4;overflow=hidden;rotatable=0;points=[[0,0.5],[1,0.5]];portConstraint=eastwest;whiteSpace=wrap;html=1;fontSize=10;" parent="dSWCgx975Un4tW8NqF47-24" vertex="1">
          <mxGeometry y="26" width="140" height="26" as="geometry" />
        </mxCell>
        <mxCell id="dSWCgx975Un4tW8NqF47-56" value="Unit price" style="text;strokeColor=none;fillColor=none;align=left;verticalAlign=top;spacingLeft=4;spacingRight=4;overflow=hidden;rotatable=0;points=[[0,0.5],[1,0.5]];portConstraint=eastwest;whiteSpace=wrap;html=1;fontSize=10;" parent="dSWCgx975Un4tW8NqF47-24" vertex="1">
          <mxGeometry y="52" width="140" height="26" as="geometry" />
        </mxCell>
        <mxCell id="dSWCgx975Un4tW8NqF47-26" value="Unit price base" style="text;strokeColor=none;fillColor=none;align=left;verticalAlign=top;spacingLeft=4;spacingRight=4;overflow=hidden;rotatable=0;points=[[0,0.5],[1,0.5]];portConstraint=eastwest;whiteSpace=wrap;html=1;fontSize=10;" parent="dSWCgx975Un4tW8NqF47-24" vertex="1">
          <mxGeometry y="78" width="140" height="26" as="geometry" />
        </mxCell>
        <mxCell id="dSWCgx975Un4tW8NqF47-50" value="Quantity" style="text;strokeColor=none;fillColor=none;align=left;verticalAlign=top;spacingLeft=4;spacingRight=4;overflow=hidden;rotatable=0;points=[[0,0.5],[1,0.5]];portConstraint=eastwest;whiteSpace=wrap;html=1;fontSize=10;" parent="dSWCgx975Un4tW8NqF47-24" vertex="1">
          <mxGeometry y="104" width="140" height="26" as="geometry" />
        </mxCell>
        <mxCell id="dSWCgx975Un4tW8NqF47-46" value="Line value" style="text;strokeColor=none;fillColor=none;align=left;verticalAlign=top;spacingLeft=4;spacingRight=4;overflow=hidden;rotatable=0;points=[[0,0.5],[1,0.5]];portConstraint=eastwest;whiteSpace=wrap;html=1;fontSize=10;" parent="dSWCgx975Un4tW8NqF47-24" vertex="1">
          <mxGeometry y="130" width="140" height="26" as="geometry" />
        </mxCell>
        <mxCell id="dSWCgx975Un4tW8NqF47-27" value="Exchange rate" style="text;strokeColor=none;fillColor=none;align=left;verticalAlign=top;spacingLeft=4;spacingRight=4;overflow=hidden;rotatable=0;points=[[0,0.5],[1,0.5]];portConstraint=eastwest;whiteSpace=wrap;html=1;fontSize=10;" parent="dSWCgx975Un4tW8NqF47-24" vertex="1">
          <mxGeometry y="156" width="140" height="26" as="geometry" />
        </mxCell>
        <mxCell id="dSWCgx975Un4tW8NqF47-42" value="Value after tax" style="text;strokeColor=none;fillColor=none;align=left;verticalAlign=top;spacingLeft=4;spacingRight=4;overflow=hidden;rotatable=0;points=[[0,0.5],[1,0.5]];portConstraint=eastwest;whiteSpace=wrap;html=1;fontSize=10;" parent="dSWCgx975Un4tW8NqF47-24" vertex="1">
          <mxGeometry y="182" width="140" height="26" as="geometry" />
        </mxCell>
        <mxCell id="dSWCgx975Un4tW8NqF47-41" value="Value after tax base" style="text;strokeColor=none;fillColor=none;align=left;verticalAlign=top;spacingLeft=4;spacingRight=4;overflow=hidden;rotatable=0;points=[[0,0.5],[1,0.5]];portConstraint=eastwest;whiteSpace=wrap;html=1;fontSize=10;" parent="dSWCgx975Un4tW8NqF47-24" vertex="1">
          <mxGeometry y="208" width="140" height="26" as="geometry" />
        </mxCell>
        <mxCell id="dSWCgx975Un4tW8NqF47-40" value="Transportation included" style="text;strokeColor=none;fillColor=none;align=left;verticalAlign=top;spacingLeft=4;spacingRight=4;overflow=hidden;rotatable=0;points=[[0,0.5],[1,0.5]];portConstraint=eastwest;whiteSpace=wrap;html=1;fontSize=10;" parent="dSWCgx975Un4tW8NqF47-24" vertex="1">
          <mxGeometry y="234" width="140" height="26" as="geometry" />
        </mxCell>
        <mxCell id="dSWCgx975Un4tW8NqF47-39" value="Converted quantity" style="text;strokeColor=none;fillColor=none;align=left;verticalAlign=top;spacingLeft=4;spacingRight=4;overflow=hidden;rotatable=0;points=[[0,0.5],[1,0.5]];portConstraint=eastwest;whiteSpace=wrap;html=1;fontSize=10;" parent="dSWCgx975Un4tW8NqF47-24" vertex="1">
          <mxGeometry y="260" width="140" height="26" as="geometry" />
        </mxCell>
        <mxCell id="dSWCgx975Un4tW8NqF47-38" value="Modified on" style="text;strokeColor=none;fillColor=none;align=left;verticalAlign=top;spacingLeft=4;spacingRight=4;overflow=hidden;rotatable=0;points=[[0,0.5],[1,0.5]];portConstraint=eastwest;whiteSpace=wrap;html=1;fontSize=10;" parent="dSWCgx975Un4tW8NqF47-24" vertex="1">
          <mxGeometry y="286" width="140" height="26" as="geometry" />
        </mxCell>
        <mxCell id="dSWCgx975Un4tW8NqF47-45" value="Requested delivery date" style="text;strokeColor=none;fillColor=none;align=left;verticalAlign=top;spacingLeft=4;spacingRight=4;overflow=hidden;rotatable=0;points=[[0,0.5],[1,0.5]];portConstraint=eastwest;whiteSpace=wrap;html=1;fontSize=10;" parent="dSWCgx975Un4tW8NqF47-24" vertex="1">
          <mxGeometry y="312" width="140" height="26" as="geometry" />
        </mxCell>
        <mxCell id="dSWCgx975Un4tW8NqF47-44" value="Status code" style="text;strokeColor=none;fillColor=none;align=left;verticalAlign=top;spacingLeft=4;spacingRight=4;overflow=hidden;rotatable=0;points=[[0,0.5],[1,0.5]];portConstraint=eastwest;whiteSpace=wrap;html=1;fontSize=10;" parent="dSWCgx975Un4tW8NqF47-24" vertex="1">
          <mxGeometry y="338" width="140" height="26" as="geometry" />
        </mxCell>
        <mxCell id="dSWCgx975Un4tW8NqF47-59" value="Statecode" style="text;strokeColor=none;fillColor=none;align=left;verticalAlign=top;spacingLeft=4;spacingRight=4;overflow=hidden;rotatable=0;points=[[0,0.5],[1,0.5]];portConstraint=eastwest;whiteSpace=wrap;html=1;fontSize=10;" parent="dSWCgx975Un4tW8NqF47-24" vertex="1">
          <mxGeometry y="364" width="140" height="26" as="geometry" />
        </mxCell>
        <mxCell id="dSWCgx975Un4tW8NqF47-51" value="Created on" style="text;strokeColor=none;fillColor=none;align=left;verticalAlign=top;spacingLeft=4;spacingRight=4;overflow=hidden;rotatable=0;points=[[0,0.5],[1,0.5]];portConstraint=eastwest;whiteSpace=wrap;html=1;fontSize=10;" parent="dSWCgx975Un4tW8NqF47-24" vertex="1">
          <mxGeometry y="390" width="140" height="26" as="geometry" />
        </mxCell>
        <mxCell id="dSWCgx975Un4tW8NqF47-49" value="Description" style="text;strokeColor=none;fillColor=none;align=left;verticalAlign=top;spacingLeft=4;spacingRight=4;overflow=hidden;rotatable=0;points=[[0,0.5],[1,0.5]];portConstraint=eastwest;whiteSpace=wrap;html=1;fontSize=10;" parent="dSWCgx975Un4tW8NqF47-24" vertex="1">
          <mxGeometry y="416" width="140" height="26" as="geometry" />
        </mxCell>
        <mxCell id="dSWCgx975Un4tW8NqF47-58" value="PR line ID" style="text;strokeColor=none;fillColor=none;align=left;verticalAlign=top;spacingLeft=4;spacingRight=4;overflow=hidden;rotatable=0;points=[[0,0.5],[1,0.5]];portConstraint=eastwest;whiteSpace=wrap;html=1;fontSize=10;" parent="dSWCgx975Un4tW8NqF47-24" vertex="1">
          <mxGeometry y="442" width="140" height="26" as="geometry" />
        </mxCell>
        <mxCell id="dSWCgx975Un4tW8NqF47-57" value="PR ID" style="text;strokeColor=#d6b656;fillColor=#fff2cc;align=left;verticalAlign=top;spacingLeft=4;spacingRight=4;overflow=hidden;rotatable=0;points=[[0,0.5],[1,0.5]];portConstraint=eastwest;whiteSpace=wrap;html=1;fontSize=10;" parent="dSWCgx975Un4tW8NqF47-24" vertex="1">
          <mxGeometry y="468" width="140" height="26" as="geometry" />
        </mxCell>
        <mxCell id="dSWCgx975Un4tW8NqF47-29" value="med_productcatalog" style="rounded=1;whiteSpace=wrap;html=1;fillColor=#e1d5e7;strokeColor=#9673a6;" parent="YfIN07U_jJtrGBwTAKjH-1" vertex="1">
          <mxGeometry x="250" y="955" width="130" height="20" as="geometry" />
        </mxCell>
        <mxCell id="dSWCgx975Un4tW8NqF47-34" value="med_producttype" style="rounded=1;whiteSpace=wrap;html=1;fillColor=#e1d5e7;strokeColor=#9673a6;" parent="YfIN07U_jJtrGBwTAKjH-1" vertex="1">
          <mxGeometry x="250" y="985" width="130" height="20" as="geometry" />
        </mxCell>
        <mxCell id="uejmVy-IAsKptNvBUOdV-70" value="med_sites" style="rounded=1;whiteSpace=wrap;html=1;fillColor=#ffe6cc;strokeColor=#d79b00;" parent="YfIN07U_jJtrGBwTAKjH-1" vertex="1">
          <mxGeometry x="656" y="810" width="130" height="20" as="geometry" />
        </mxCell>
        <mxCell id="uejmVy-IAsKptNvBUOdV-78" style="edgeStyle=orthogonalEdgeStyle;rounded=0;orthogonalLoop=1;jettySize=auto;html=1;exitX=1;exitY=0.5;exitDx=0;exitDy=0;" parent="YfIN07U_jJtrGBwTAKjH-1" source="uejmVy-IAsKptNvBUOdV-41" target="uejmVy-IAsKptNvBUOdV-70" edge="1">
          <mxGeometry relative="1" as="geometry" />
        </mxCell>
        <mxCell id="uejmVy-IAsKptNvBUOdV-83" style="edgeStyle=orthogonalEdgeStyle;rounded=0;orthogonalLoop=1;jettySize=auto;html=1;exitX=1;exitY=0.5;exitDx=0;exitDy=0;" parent="YfIN07U_jJtrGBwTAKjH-1" source="uejmVy-IAsKptNvBUOdV-64" edge="1">
          <mxGeometry relative="1" as="geometry">
            <mxPoint x="733" y="810" as="targetPoint" />
          </mxGeometry>
        </mxCell>
        <mxCell id="dSWCgx975Un4tW8NqF47-65" value="PR lines" style="rounded=0;whiteSpace=wrap;html=1;fillColor=#f5f5f5;fontColor=#333333;strokeColor=#666666;" parent="YfIN07U_jJtrGBwTAKjH-1" vertex="1">
          <mxGeometry x="40" y="200" width="290" height="20" as="geometry" />
        </mxCell>
        <mxCell id="dSWCgx975Un4tW8NqF47-67" value="&lt;font style=&quot;font-size: 11px;&quot;&gt;med_financialdimension&lt;/font&gt;" style="rounded=1;whiteSpace=wrap;html=1;fillColor=#e1d5e7;strokeColor=#9673a6;" parent="YfIN07U_jJtrGBwTAKjH-1" vertex="1">
          <mxGeometry x="-150" y="290" width="130" height="350" as="geometry" />
        </mxCell>
        <mxCell id="dSWCgx975Un4tW8NqF47-79" style="edgeStyle=orthogonalEdgeStyle;rounded=0;orthogonalLoop=1;jettySize=auto;html=1;exitX=0;exitY=0.5;exitDx=0;exitDy=0;entryX=0.997;entryY=0.041;entryDx=0;entryDy=0;entryPerimeter=0;" parent="YfIN07U_jJtrGBwTAKjH-1" source="Poal_yzETdo0mD8HrPfY-17" target="dSWCgx975Un4tW8NqF47-67" edge="1">
          <mxGeometry relative="1" as="geometry" />
        </mxCell>
        <mxCell id="dSWCgx975Un4tW8NqF47-80" style="edgeStyle=orthogonalEdgeStyle;rounded=0;orthogonalLoop=1;jettySize=auto;html=1;entryX=0.991;entryY=0.126;entryDx=0;entryDy=0;entryPerimeter=0;" parent="YfIN07U_jJtrGBwTAKjH-1" source="Poal_yzETdo0mD8HrPfY-18" target="dSWCgx975Un4tW8NqF47-67" edge="1">
          <mxGeometry relative="1" as="geometry" />
        </mxCell>
        <mxCell id="dSWCgx975Un4tW8NqF47-81" style="edgeStyle=orthogonalEdgeStyle;rounded=0;orthogonalLoop=1;jettySize=auto;html=1;exitX=0;exitY=0.5;exitDx=0;exitDy=0;entryX=1.008;entryY=0.215;entryDx=0;entryDy=0;entryPerimeter=0;" parent="YfIN07U_jJtrGBwTAKjH-1" source="Poal_yzETdo0mD8HrPfY-19" target="dSWCgx975Un4tW8NqF47-67" edge="1">
          <mxGeometry relative="1" as="geometry" />
        </mxCell>
        <mxCell id="dSWCgx975Un4tW8NqF47-83" style="edgeStyle=orthogonalEdgeStyle;rounded=0;orthogonalLoop=1;jettySize=auto;html=1;exitX=0;exitY=0.5;exitDx=0;exitDy=0;entryX=1;entryY=0.301;entryDx=0;entryDy=0;entryPerimeter=0;" parent="YfIN07U_jJtrGBwTAKjH-1" source="Poal_yzETdo0mD8HrPfY-20" target="dSWCgx975Un4tW8NqF47-67" edge="1">
          <mxGeometry relative="1" as="geometry" />
        </mxCell>
        <mxCell id="dSWCgx975Un4tW8NqF47-84" style="edgeStyle=orthogonalEdgeStyle;rounded=0;orthogonalLoop=1;jettySize=auto;html=1;exitX=0;exitY=0.5;exitDx=0;exitDy=0;entryX=1.002;entryY=0.384;entryDx=0;entryDy=0;entryPerimeter=0;" parent="YfIN07U_jJtrGBwTAKjH-1" source="Poal_yzETdo0mD8HrPfY-21" target="dSWCgx975Un4tW8NqF47-67" edge="1">
          <mxGeometry relative="1" as="geometry" />
        </mxCell>
        <mxCell id="dSWCgx975Un4tW8NqF47-85" style="edgeStyle=orthogonalEdgeStyle;rounded=0;orthogonalLoop=1;jettySize=auto;html=1;exitX=0;exitY=0.5;exitDx=0;exitDy=0;entryX=1.008;entryY=0.473;entryDx=0;entryDy=0;entryPerimeter=0;" parent="YfIN07U_jJtrGBwTAKjH-1" source="Poal_yzETdo0mD8HrPfY-22" target="dSWCgx975Un4tW8NqF47-67" edge="1">
          <mxGeometry relative="1" as="geometry" />
        </mxCell>
        <mxCell id="dSWCgx975Un4tW8NqF47-86" style="edgeStyle=orthogonalEdgeStyle;rounded=0;orthogonalLoop=1;jettySize=auto;html=1;entryX=1.013;entryY=0.559;entryDx=0;entryDy=0;entryPerimeter=0;" parent="YfIN07U_jJtrGBwTAKjH-1" source="Poal_yzETdo0mD8HrPfY-23" target="dSWCgx975Un4tW8NqF47-67" edge="1">
          <mxGeometry relative="1" as="geometry" />
        </mxCell>
        <mxCell id="dSWCgx975Un4tW8NqF47-88" style="edgeStyle=orthogonalEdgeStyle;rounded=0;orthogonalLoop=1;jettySize=auto;html=1;exitX=0;exitY=0.5;exitDx=0;exitDy=0;entryX=1.008;entryY=0.642;entryDx=0;entryDy=0;entryPerimeter=0;" parent="YfIN07U_jJtrGBwTAKjH-1" source="Poal_yzETdo0mD8HrPfY-24" target="dSWCgx975Un4tW8NqF47-67" edge="1">
          <mxGeometry relative="1" as="geometry" />
        </mxCell>
        <mxCell id="dSWCgx975Un4tW8NqF47-89" style="edgeStyle=orthogonalEdgeStyle;rounded=0;orthogonalLoop=1;jettySize=auto;html=1;entryX=1;entryY=0.729;entryDx=0;entryDy=0;entryPerimeter=0;" parent="YfIN07U_jJtrGBwTAKjH-1" source="dSWCgx975Un4tW8NqF47-55" target="dSWCgx975Un4tW8NqF47-67" edge="1">
          <mxGeometry relative="1" as="geometry" />
        </mxCell>
        <mxCell id="dSWCgx975Un4tW8NqF47-90" style="edgeStyle=orthogonalEdgeStyle;rounded=0;orthogonalLoop=1;jettySize=auto;html=1;entryX=1.013;entryY=0.815;entryDx=0;entryDy=0;entryPerimeter=0;" parent="YfIN07U_jJtrGBwTAKjH-1" source="dSWCgx975Un4tW8NqF47-52" target="dSWCgx975Un4tW8NqF47-67" edge="1">
          <mxGeometry relative="1" as="geometry" />
        </mxCell>
        <mxCell id="dSWCgx975Un4tW8NqF47-91" style="edgeStyle=orthogonalEdgeStyle;rounded=0;orthogonalLoop=1;jettySize=auto;html=1;entryX=1.024;entryY=0.9;entryDx=0;entryDy=0;entryPerimeter=0;" parent="YfIN07U_jJtrGBwTAKjH-1" source="dSWCgx975Un4tW8NqF47-48" target="dSWCgx975Un4tW8NqF47-67" edge="1">
          <mxGeometry relative="1" as="geometry" />
        </mxCell>
        <mxCell id="dSWCgx975Un4tW8NqF47-92" style="edgeStyle=orthogonalEdgeStyle;rounded=0;orthogonalLoop=1;jettySize=auto;html=1;entryX=1.024;entryY=0.947;entryDx=0;entryDy=0;entryPerimeter=0;" parent="YfIN07U_jJtrGBwTAKjH-1" source="dSWCgx975Un4tW8NqF47-47" target="dSWCgx975Un4tW8NqF47-67" edge="1">
          <mxGeometry relative="1" as="geometry" />
        </mxCell>
        <mxCell id="dSWCgx975Un4tW8NqF47-94" value="med_accountcode" style="rounded=1;whiteSpace=wrap;html=1;fillColor=#e1d5e7;strokeColor=#9673a6;" parent="YfIN07U_jJtrGBwTAKjH-1" vertex="1">
          <mxGeometry x="250" y="925" width="130" height="20" as="geometry" />
        </mxCell>
        <mxCell id="dSWCgx975Un4tW8NqF47-96" value="PR Header" style="rounded=0;whiteSpace=wrap;html=1;fillColor=#f5f5f5;fontColor=#333333;strokeColor=#666666;" parent="YfIN07U_jJtrGBwTAKjH-1" vertex="1">
          <mxGeometry x="270" y="760" width="90" height="20" as="geometry" />
        </mxCell>
        <mxCell id="uejmVy-IAsKptNvBUOdV-5" value="Required Fields" style="swimlane;fontStyle=0;childLayout=stackLayout;horizontal=1;startSize=30;horizontalStack=0;resizeParent=1;resizeParentMax=0;resizeLast=0;collapsible=1;marginBottom=0;whiteSpace=wrap;html=1;fontSize=11;fillColor=#f5f5f5;fontColor=#333333;strokeColor=#666666;" parent="YfIN07U_jJtrGBwTAKjH-1" vertex="1">
          <mxGeometry x="386" y="230" width="140" height="480" as="geometry" />
        </mxCell>
        <mxCell id="uejmVy-IAsKptNvBUOdV-6" value="PR next line ID" style="text;strokeColor=#d6b656;fillColor=#fff2cc;align=left;verticalAlign=middle;spacingLeft=4;spacingRight=4;overflow=hidden;points=[[0,0.5],[1,0.5]];portConstraint=eastwest;rotatable=0;whiteSpace=wrap;html=1;fontSize=11;" parent="uejmVy-IAsKptNvBUOdV-5" vertex="1">
          <mxGeometry y="30" width="140" height="30" as="geometry" />
        </mxCell>
        <mxCell id="uejmVy-IAsKptNvBUOdV-8" value="Med Name (PR name)" style="text;strokeColor=#d6b656;fillColor=#fff2cc;align=left;verticalAlign=middle;spacingLeft=4;spacingRight=4;overflow=hidden;points=[[0,0.5],[1,0.5]];portConstraint=eastwest;rotatable=0;whiteSpace=wrap;html=1;fontSize=11;" parent="uejmVy-IAsKptNvBUOdV-5" vertex="1">
          <mxGeometry y="60" width="140" height="30" as="geometry" />
        </mxCell>
        <mxCell id="uejmVy-IAsKptNvBUOdV-9" value="Status code" style="text;strokeColor=#d6b656;fillColor=#fff2cc;align=left;verticalAlign=middle;spacingLeft=4;spacingRight=4;overflow=hidden;points=[[0,0.5],[1,0.5]];portConstraint=eastwest;rotatable=0;whiteSpace=wrap;html=1;fontSize=11;" parent="uejmVy-IAsKptNvBUOdV-5" vertex="1">
          <mxGeometry y="90" width="140" height="30" as="geometry" />
        </mxCell>
        <mxCell id="uejmVy-IAsKptNvBUOdV-10" value="PR Value Base (Calculated from PR lines)" style="text;strokeColor=#d6b656;fillColor=#fff2cc;align=left;verticalAlign=middle;spacingLeft=4;spacingRight=4;overflow=hidden;points=[[0,0.5],[1,0.5]];portConstraint=eastwest;rotatable=0;whiteSpace=wrap;html=1;fontSize=11;" parent="uejmVy-IAsKptNvBUOdV-5" vertex="1">
          <mxGeometry y="120" width="140" height="30" as="geometry" />
        </mxCell>
        <mxCell id="uejmVy-IAsKptNvBUOdV-27" value="PR Value (Calculated from PR lines)" style="text;strokeColor=#d6b656;fillColor=#fff2cc;align=left;verticalAlign=middle;spacingLeft=4;spacingRight=4;overflow=hidden;points=[[0,0.5],[1,0.5]];portConstraint=eastwest;rotatable=0;whiteSpace=wrap;html=1;fontSize=11;" parent="uejmVy-IAsKptNvBUOdV-5" vertex="1">
          <mxGeometry y="150" width="140" height="30" as="geometry" />
        </mxCell>
        <mxCell id="uejmVy-IAsKptNvBUOdV-26" value="PR Value after tax (Calculated from PR lines)" style="text;strokeColor=#d6b656;fillColor=#fff2cc;align=left;verticalAlign=middle;spacingLeft=4;spacingRight=4;overflow=hidden;points=[[0,0.5],[1,0.5]];portConstraint=eastwest;rotatable=0;whiteSpace=wrap;html=1;fontSize=11;" parent="uejmVy-IAsKptNvBUOdV-5" vertex="1">
          <mxGeometry y="180" width="140" height="30" as="geometry" />
        </mxCell>
        <mxCell id="uejmVy-IAsKptNvBUOdV-11" value="Tax included" style="text;strokeColor=#d6b656;fillColor=#fff2cc;align=left;verticalAlign=middle;spacingLeft=4;spacingRight=4;overflow=hidden;points=[[0,0.5],[1,0.5]];portConstraint=eastwest;rotatable=0;whiteSpace=wrap;html=1;fontSize=11;" parent="uejmVy-IAsKptNvBUOdV-5" vertex="1">
          <mxGeometry y="210" width="140" height="30" as="geometry" />
        </mxCell>
        <mxCell id="uejmVy-IAsKptNvBUOdV-99" value="Modified On" style="text;strokeColor=#d6b656;fillColor=#fff2cc;align=left;verticalAlign=middle;spacingLeft=4;spacingRight=4;overflow=hidden;points=[[0,0.5],[1,0.5]];portConstraint=eastwest;rotatable=0;whiteSpace=wrap;html=1;fontSize=11;" parent="uejmVy-IAsKptNvBUOdV-5" vertex="1">
          <mxGeometry y="240" width="140" height="30" as="geometry" />
        </mxCell>
        <mxCell id="uejmVy-IAsKptNvBUOdV-14" value="Approved at least one time" style="text;strokeColor=#d6b656;fillColor=#fff2cc;align=left;verticalAlign=middle;spacingLeft=4;spacingRight=4;overflow=hidden;points=[[0,0.5],[1,0.5]];portConstraint=eastwest;rotatable=0;whiteSpace=wrap;html=1;fontSize=11;" parent="uejmVy-IAsKptNvBUOdV-5" vertex="1">
          <mxGeometry y="270" width="140" height="30" as="geometry" />
        </mxCell>
        <mxCell id="uejmVy-IAsKptNvBUOdV-15" value="Version number" style="text;strokeColor=#d6b656;fillColor=#fff2cc;align=left;verticalAlign=middle;spacingLeft=4;spacingRight=4;overflow=hidden;points=[[0,0.5],[1,0.5]];portConstraint=eastwest;rotatable=0;whiteSpace=wrap;html=1;fontSize=11;" parent="uejmVy-IAsKptNvBUOdV-5" vertex="1">
          <mxGeometry y="300" width="140" height="30" as="geometry" />
        </mxCell>
        <mxCell id="uejmVy-IAsKptNvBUOdV-17" value="Exchange rate" style="text;strokeColor=#d6b656;fillColor=#fff2cc;align=left;verticalAlign=middle;spacingLeft=4;spacingRight=4;overflow=hidden;points=[[0,0.5],[1,0.5]];portConstraint=eastwest;rotatable=0;whiteSpace=wrap;html=1;fontSize=11;" parent="uejmVy-IAsKptNvBUOdV-5" vertex="1">
          <mxGeometry y="330" width="140" height="30" as="geometry" />
        </mxCell>
        <mxCell id="uejmVy-IAsKptNvBUOdV-18" value="PR BizID (text)?" style="text;strokeColor=#d6b656;fillColor=#fff2cc;align=left;verticalAlign=middle;spacingLeft=4;spacingRight=4;overflow=hidden;points=[[0,0.5],[1,0.5]];portConstraint=eastwest;rotatable=0;whiteSpace=wrap;html=1;fontSize=11;" parent="uejmVy-IAsKptNvBUOdV-5" vertex="1">
          <mxGeometry y="360" width="140" height="30" as="geometry" />
        </mxCell>
        <mxCell id="uejmVy-IAsKptNvBUOdV-19" value="State code" style="text;strokeColor=#d6b656;fillColor=#fff2cc;align=left;verticalAlign=middle;spacingLeft=4;spacingRight=4;overflow=hidden;points=[[0,0.5],[1,0.5]];portConstraint=eastwest;rotatable=0;whiteSpace=wrap;html=1;fontSize=11;" parent="uejmVy-IAsKptNvBUOdV-5" vertex="1">
          <mxGeometry y="390" width="140" height="30" as="geometry" />
        </mxCell>
        <mxCell id="uejmVy-IAsKptNvBUOdV-20" value="PR Type (status like values)" style="text;strokeColor=#d6b656;fillColor=#fff2cc;align=left;verticalAlign=middle;spacingLeft=4;spacingRight=4;overflow=hidden;points=[[0,0.5],[1,0.5]];portConstraint=eastwest;rotatable=0;whiteSpace=wrap;html=1;fontSize=11;" parent="uejmVy-IAsKptNvBUOdV-5" vertex="1">
          <mxGeometry y="420" width="140" height="30" as="geometry" />
        </mxCell>
        <mxCell id="uejmVy-IAsKptNvBUOdV-24" value="Requested Delivery date" style="text;strokeColor=#d6b656;fillColor=#fff2cc;align=left;verticalAlign=middle;spacingLeft=4;spacingRight=4;overflow=hidden;points=[[0,0.5],[1,0.5]];portConstraint=eastwest;rotatable=0;whiteSpace=wrap;html=1;fontSize=11;" parent="uejmVy-IAsKptNvBUOdV-5" vertex="1">
          <mxGeometry y="450" width="140" height="30" as="geometry" />
        </mxCell>
        <mxCell id="uejmVy-IAsKptNvBUOdV-32" value="GUID Fields" style="swimlane;fontStyle=0;childLayout=stackLayout;horizontal=1;startSize=30;horizontalStack=0;resizeParent=1;resizeParentMax=0;resizeLast=0;collapsible=1;marginBottom=0;whiteSpace=wrap;html=1;fillColor=#f5f5f5;fontColor=#333333;strokeColor=#666666;" parent="YfIN07U_jJtrGBwTAKjH-1" vertex="1">
          <mxGeometry x="546" y="230" width="140" height="450" as="geometry" />
        </mxCell>
        <mxCell id="uejmVy-IAsKptNvBUOdV-100" value="PR ID" style="text;strokeColor=#d6b656;fillColor=#fff2cc;align=left;verticalAlign=middle;spacingLeft=4;spacingRight=4;overflow=hidden;points=[[0,0.5],[1,0.5]];portConstraint=eastwest;rotatable=0;whiteSpace=wrap;html=1;" parent="uejmVy-IAsKptNvBUOdV-32" vertex="1">
          <mxGeometry y="30" width="140" height="30" as="geometry" />
        </mxCell>
        <mxCell id="uejmVy-IAsKptNvBUOdV-34" value="Owning business unit" style="text;strokeColor=#d6b656;fillColor=#fff2cc;align=left;verticalAlign=middle;spacingLeft=4;spacingRight=4;overflow=hidden;points=[[0,0.5],[1,0.5]];portConstraint=eastwest;rotatable=0;whiteSpace=wrap;html=1;" parent="uejmVy-IAsKptNvBUOdV-32" vertex="1">
          <mxGeometry y="60" width="140" height="30" as="geometry" />
        </mxCell>
        <mxCell id="uejmVy-IAsKptNvBUOdV-53" value="Owning User ID" style="text;strokeColor=#d6b656;fillColor=#fff2cc;align=left;verticalAlign=middle;spacingLeft=4;spacingRight=4;overflow=hidden;points=[[0,0.5],[1,0.5]];portConstraint=eastwest;rotatable=0;whiteSpace=wrap;html=1;" parent="uejmVy-IAsKptNvBUOdV-32" vertex="1">
          <mxGeometry y="90" width="140" height="30" as="geometry" />
        </mxCell>
        <mxCell id="uejmVy-IAsKptNvBUOdV-71" value="Preparer ID" style="text;strokeColor=#d6b656;fillColor=#fff2cc;align=left;verticalAlign=middle;spacingLeft=4;spacingRight=4;overflow=hidden;points=[[0,0.5],[1,0.5]];portConstraint=eastwest;rotatable=0;whiteSpace=wrap;html=1;" parent="uejmVy-IAsKptNvBUOdV-32" vertex="1">
          <mxGeometry y="120" width="140" height="30" as="geometry" />
        </mxCell>
        <mxCell id="uejmVy-IAsKptNvBUOdV-50" value="Created By" style="text;strokeColor=#d6b656;fillColor=#fff2cc;align=left;verticalAlign=middle;spacingLeft=4;spacingRight=4;overflow=hidden;points=[[0,0.5],[1,0.5]];portConstraint=eastwest;rotatable=0;whiteSpace=wrap;html=1;" parent="uejmVy-IAsKptNvBUOdV-32" vertex="1">
          <mxGeometry y="150" width="140" height="30" as="geometry" />
        </mxCell>
        <mxCell id="uejmVy-IAsKptNvBUOdV-89" value="Modified By" style="text;strokeColor=#d6b656;fillColor=#fff2cc;align=left;verticalAlign=middle;spacingLeft=4;spacingRight=4;overflow=hidden;points=[[0,0.5],[1,0.5]];portConstraint=eastwest;rotatable=0;whiteSpace=wrap;html=1;" parent="uejmVy-IAsKptNvBUOdV-32" vertex="1">
          <mxGeometry y="180" width="140" height="30" as="geometry" />
        </mxCell>
        <mxCell id="uejmVy-IAsKptNvBUOdV-42" value="PR ID" style="text;strokeColor=#d6b656;fillColor=#fff2cc;align=left;verticalAlign=middle;spacingLeft=4;spacingRight=4;overflow=hidden;points=[[0,0.5],[1,0.5]];portConstraint=eastwest;rotatable=0;whiteSpace=wrap;html=1;" parent="uejmVy-IAsKptNvBUOdV-32" vertex="1">
          <mxGeometry y="210" width="140" height="30" as="geometry" />
        </mxCell>
        <mxCell id="uejmVy-IAsKptNvBUOdV-45" value="Currency ID" style="text;strokeColor=#d6b656;fillColor=#fff2cc;align=left;verticalAlign=middle;spacingLeft=4;spacingRight=4;overflow=hidden;points=[[0,0.5],[1,0.5]];portConstraint=eastwest;rotatable=0;whiteSpace=wrap;html=1;" parent="uejmVy-IAsKptNvBUOdV-32" vertex="1">
          <mxGeometry y="240" width="140" height="30" as="geometry" />
        </mxCell>
        <mxCell id="uejmVy-IAsKptNvBUOdV-54" value="Buyer ID" style="text;strokeColor=none;fillColor=none;align=left;verticalAlign=middle;spacingLeft=4;spacingRight=4;overflow=hidden;points=[[0,0.5],[1,0.5]];portConstraint=eastwest;rotatable=0;whiteSpace=wrap;html=1;" parent="uejmVy-IAsKptNvBUOdV-32" vertex="1">
          <mxGeometry y="270" width="140" height="30" as="geometry" />
        </mxCell>
        <mxCell id="uejmVy-IAsKptNvBUOdV-56" value="Budget Holder ID" style="text;strokeColor=none;fillColor=none;align=left;verticalAlign=middle;spacingLeft=4;spacingRight=4;overflow=hidden;points=[[0,0.5],[1,0.5]];portConstraint=eastwest;rotatable=0;whiteSpace=wrap;html=1;" parent="uejmVy-IAsKptNvBUOdV-32" vertex="1">
          <mxGeometry y="300" width="140" height="30" as="geometry" />
        </mxCell>
        <mxCell id="uejmVy-IAsKptNvBUOdV-57" value="Purchase Location ID" style="text;strokeColor=none;fillColor=none;align=left;verticalAlign=middle;spacingLeft=4;spacingRight=4;overflow=hidden;points=[[0,0.5],[1,0.5]];portConstraint=eastwest;rotatable=0;whiteSpace=wrap;html=1;" parent="uejmVy-IAsKptNvBUOdV-32" vertex="1">
          <mxGeometry y="330" width="140" height="30" as="geometry" />
        </mxCell>
        <mxCell id="uejmVy-IAsKptNvBUOdV-63" value="tax Group ID" style="text;strokeColor=#d6b656;fillColor=#fff2cc;align=left;verticalAlign=middle;spacingLeft=4;spacingRight=4;overflow=hidden;points=[[0,0.5],[1,0.5]];portConstraint=eastwest;rotatable=0;whiteSpace=wrap;html=1;" parent="uejmVy-IAsKptNvBUOdV-32" vertex="1">
          <mxGeometry y="360" width="140" height="30" as="geometry" />
        </mxCell>
        <mxCell id="uejmVy-IAsKptNvBUOdV-41" value="Requesting Site ID" style="text;strokeColor=#d6b656;fillColor=#fff2cc;align=left;verticalAlign=middle;spacingLeft=4;spacingRight=4;overflow=hidden;points=[[0,0.5],[1,0.5]];portConstraint=eastwest;rotatable=0;whiteSpace=wrap;html=1;" parent="uejmVy-IAsKptNvBUOdV-32" vertex="1">
          <mxGeometry y="390" width="140" height="30" as="geometry" />
        </mxCell>
        <mxCell id="uejmVy-IAsKptNvBUOdV-64" value="Final Destination ID" style="text;strokeColor=#d6b656;fillColor=#fff2cc;align=left;verticalAlign=middle;spacingLeft=4;spacingRight=4;overflow=hidden;points=[[0,0.5],[1,0.5]];portConstraint=eastwest;rotatable=0;whiteSpace=wrap;html=1;" parent="uejmVy-IAsKptNvBUOdV-32" vertex="1">
          <mxGeometry y="420" width="140" height="30" as="geometry" />
        </mxCell>
        <mxCell id="uejmVy-IAsKptNvBUOdV-72" value="systemusers" style="rounded=1;whiteSpace=wrap;html=1;fillColor=#ffe6cc;strokeColor=#d79b00;" parent="YfIN07U_jJtrGBwTAKjH-1" vertex="1">
          <mxGeometry x="710" y="260" width="130" height="20" as="geometry" />
        </mxCell>
        <mxCell id="uejmVy-IAsKptNvBUOdV-74" value="transactioncurrencies" style="rounded=1;whiteSpace=wrap;html=1;fillColor=#ffe6cc;strokeColor=#d79b00;" parent="YfIN07U_jJtrGBwTAKjH-1" vertex="1">
          <mxGeometry x="710" y="475" width="130" height="20" as="geometry" />
        </mxCell>
        <mxCell id="uejmVy-IAsKptNvBUOdV-76" value="med_taxgroups" style="rounded=1;whiteSpace=wrap;html=1;fillColor=#ffe6cc;strokeColor=#d79b00;" parent="YfIN07U_jJtrGBwTAKjH-1" vertex="1">
          <mxGeometry x="710" y="595" width="130" height="20" as="geometry" />
        </mxCell>
        <mxCell id="uejmVy-IAsKptNvBUOdV-81" style="edgeStyle=orthogonalEdgeStyle;rounded=0;orthogonalLoop=1;jettySize=auto;html=1;exitX=1;exitY=0.5;exitDx=0;exitDy=0;entryX=0;entryY=0.5;entryDx=0;entryDy=0;" parent="YfIN07U_jJtrGBwTAKjH-1" source="uejmVy-IAsKptNvBUOdV-45" target="uejmVy-IAsKptNvBUOdV-74" edge="1">
          <mxGeometry relative="1" as="geometry" />
        </mxCell>
        <mxCell id="uejmVy-IAsKptNvBUOdV-82" style="edgeStyle=orthogonalEdgeStyle;rounded=0;orthogonalLoop=1;jettySize=auto;html=1;exitX=1;exitY=0.5;exitDx=0;exitDy=0;entryX=0;entryY=0.5;entryDx=0;entryDy=0;" parent="YfIN07U_jJtrGBwTAKjH-1" source="uejmVy-IAsKptNvBUOdV-63" target="uejmVy-IAsKptNvBUOdV-76" edge="1">
          <mxGeometry relative="1" as="geometry" />
        </mxCell>
        <mxCell id="uejmVy-IAsKptNvBUOdV-87" style="edgeStyle=orthogonalEdgeStyle;rounded=0;orthogonalLoop=1;jettySize=auto;html=1;exitX=1;exitY=0.5;exitDx=0;exitDy=0;entryX=0;entryY=0.5;entryDx=0;entryDy=0;" parent="YfIN07U_jJtrGBwTAKjH-1" source="uejmVy-IAsKptNvBUOdV-53" target="uejmVy-IAsKptNvBUOdV-72" edge="1">
          <mxGeometry relative="1" as="geometry" />
        </mxCell>
        <mxCell id="uejmVy-IAsKptNvBUOdV-94" style="edgeStyle=orthogonalEdgeStyle;rounded=0;orthogonalLoop=1;jettySize=auto;html=1;exitX=1;exitY=0.5;exitDx=0;exitDy=0;entryX=0.058;entryY=1.26;entryDx=0;entryDy=0;entryPerimeter=0;" parent="YfIN07U_jJtrGBwTAKjH-1" source="uejmVy-IAsKptNvBUOdV-71" target="uejmVy-IAsKptNvBUOdV-72" edge="1">
          <mxGeometry relative="1" as="geometry" />
        </mxCell>
        <mxCell id="uejmVy-IAsKptNvBUOdV-95" style="edgeStyle=orthogonalEdgeStyle;rounded=0;orthogonalLoop=1;jettySize=auto;html=1;exitX=1;exitY=0.5;exitDx=0;exitDy=0;entryX=0.25;entryY=1;entryDx=0;entryDy=0;" parent="YfIN07U_jJtrGBwTAKjH-1" source="uejmVy-IAsKptNvBUOdV-50" target="uejmVy-IAsKptNvBUOdV-72" edge="1">
          <mxGeometry relative="1" as="geometry" />
        </mxCell>
        <mxCell id="uejmVy-IAsKptNvBUOdV-96" style="edgeStyle=orthogonalEdgeStyle;rounded=0;orthogonalLoop=1;jettySize=auto;html=1;exitX=1;exitY=0.5;exitDx=0;exitDy=0;entryX=0.5;entryY=1;entryDx=0;entryDy=0;" parent="YfIN07U_jJtrGBwTAKjH-1" source="uejmVy-IAsKptNvBUOdV-89" target="uejmVy-IAsKptNvBUOdV-72" edge="1">
          <mxGeometry relative="1" as="geometry" />
        </mxCell>
        <mxCell id="uejmVy-IAsKptNvBUOdV-97" value="med_prs" style="rounded=1;whiteSpace=wrap;html=1;fillColor=#ffe6cc;strokeColor=#d79b00;" parent="YfIN07U_jJtrGBwTAKjH-1" vertex="1">
          <mxGeometry x="710" y="445" width="130" height="20" as="geometry" />
        </mxCell>
        <mxCell id="uejmVy-IAsKptNvBUOdV-98" style="edgeStyle=orthogonalEdgeStyle;rounded=0;orthogonalLoop=1;jettySize=auto;html=1;exitX=1;exitY=0.5;exitDx=0;exitDy=0;entryX=0;entryY=0.5;entryDx=0;entryDy=0;" parent="YfIN07U_jJtrGBwTAKjH-1" source="uejmVy-IAsKptNvBUOdV-42" target="uejmVy-IAsKptNvBUOdV-97" edge="1">
          <mxGeometry relative="1" as="geometry" />
        </mxCell>
        <mxCell id="YfIN07U_jJtrGBwTAKjH-27" value="PR Header" style="rounded=0;whiteSpace=wrap;html=1;fillColor=#f5f5f5;fontColor=#333333;strokeColor=#666666;" parent="YfIN07U_jJtrGBwTAKjH-1" vertex="1">
          <mxGeometry x="386" y="200" width="300" height="20" as="geometry" />
        </mxCell>
        <mxCell id="YfIN07U_jJtrGBwTAKjH-4" value="Issue Purchase Request (PR)" style="rounded=1;whiteSpace=wrap;html=1;fillColor=#dae8fc;strokeColor=#6c8ebf;" parent="YfIN07U_jJtrGBwTAKjH-1" vertex="1">
          <mxGeometry x="36" y="130" width="650" height="60" as="geometry" />
        </mxCell>
        <mxCell id="fF7Mg3u7rK3bVXa--YOf-3" style="edgeStyle=orthogonalEdgeStyle;rounded=0;orthogonalLoop=1;jettySize=auto;html=1;entryX=0;entryY=0.5;entryDx=0;entryDy=0;" parent="YfIN07U_jJtrGBwTAKjH-1" source="dSWCgx975Un4tW8NqF47-31" target="dSWCgx975Un4tW8NqF47-29" edge="1">
          <mxGeometry relative="1" as="geometry" />
        </mxCell>
        <mxCell id="dSWCgx975Un4tW8NqF47-31" value="Product Category ID" style="text;strokeColor=#23445d;fillColor=#bac8d3;align=left;verticalAlign=middle;spacingLeft=4;spacingRight=4;overflow=hidden;points=[[0,0.5],[1,0.5]];portConstraint=eastwest;rotatable=0;whiteSpace=wrap;html=1;" parent="YfIN07U_jJtrGBwTAKjH-1" vertex="1">
          <mxGeometry x="40" y="950" width="140" height="30" as="geometry" />
        </mxCell>
        <mxCell id="fF7Mg3u7rK3bVXa--YOf-4" style="edgeStyle=orthogonalEdgeStyle;rounded=0;orthogonalLoop=1;jettySize=auto;html=1;entryX=0;entryY=0.5;entryDx=0;entryDy=0;" parent="YfIN07U_jJtrGBwTAKjH-1" source="dSWCgx975Un4tW8NqF47-33" target="dSWCgx975Un4tW8NqF47-34" edge="1">
          <mxGeometry relative="1" as="geometry" />
        </mxCell>
        <mxCell id="dSWCgx975Un4tW8NqF47-33" value="Product Type ID" style="text;strokeColor=#23445d;fillColor=#bac8d3;align=left;verticalAlign=middle;spacingLeft=4;spacingRight=4;overflow=hidden;points=[[0,0.5],[1,0.5]];portConstraint=eastwest;rotatable=0;whiteSpace=wrap;html=1;" parent="YfIN07U_jJtrGBwTAKjH-1" vertex="1">
          <mxGeometry x="40" y="980" width="140" height="30" as="geometry" />
        </mxCell>
        <mxCell id="fF7Mg3u7rK3bVXa--YOf-1" value="" style="edgeStyle=orthogonalEdgeStyle;rounded=0;orthogonalLoop=1;jettySize=auto;html=1;" parent="YfIN07U_jJtrGBwTAKjH-1" source="Poal_yzETdo0mD8HrPfY-25" target="dSWCgx975Un4tW8NqF47-94" edge="1">
          <mxGeometry relative="1" as="geometry" />
        </mxCell>
        <mxCell id="Poal_yzETdo0mD8HrPfY-25" value="Account ID" style="text;strokeColor=#23445d;fillColor=#bac8d3;align=left;verticalAlign=middle;spacingLeft=4;spacingRight=4;overflow=hidden;points=[[0,0.5],[1,0.5]];portConstraint=eastwest;rotatable=0;whiteSpace=wrap;html=1;" parent="YfIN07U_jJtrGBwTAKjH-1" vertex="1">
          <mxGeometry x="40" y="920" width="140" height="30" as="geometry" />
        </mxCell>
      </root>
    </mxGraphModel>
  </diagram>
  <diagram id="LYBcvyHENned0HwdqSTX" name="PO Details">
    <mxGraphModel dx="1221" dy="665" grid="1" gridSize="10" guides="1" tooltips="1" connect="1" arrows="1" fold="1" page="1" pageScale="1" pageWidth="850" pageHeight="1100" math="0" shadow="0">
      <root>
        <mxCell id="0" />
        <mxCell id="1" parent="0" />
        <mxCell id="Lwfgy9-ff1-8djNs3FRY-1" value="PO" style="rounded=1;whiteSpace=wrap;html=1;fillColor=#dae8fc;strokeColor=#6c8ebf;" parent="1" vertex="1">
          <mxGeometry x="110" y="60" width="610" height="60" as="geometry" />
        </mxCell>
        <mxCell id="4_oWIR99zp0jf4QEFhm9-1" value="PO Header" style="rounded=0;whiteSpace=wrap;html=1;fillColor=#f5f5f5;fontColor=#333333;strokeColor=#666666;" parent="1" vertex="1">
          <mxGeometry x="110" y="130" width="300" height="20" as="geometry" />
        </mxCell>
        <mxCell id="yAFhu4DFVPGlfn1adf99-1" value="Required Fields" style="swimlane;fontStyle=0;childLayout=stackLayout;horizontal=1;startSize=26;fillColor=#f5f5f5;horizontalStack=0;resizeParent=1;resizeParentMax=0;resizeLast=0;collapsible=1;marginBottom=0;html=1;fontColor=#333333;strokeColor=default;fontSize=10;" parent="1" vertex="1">
          <mxGeometry x="270" y="170" width="140" height="110" as="geometry" />
        </mxCell>
        <mxCell id="yAFhu4DFVPGlfn1adf99-19" value="Med Name" style="text;align=left;verticalAlign=top;spacingLeft=4;spacingRight=4;overflow=hidden;rotatable=0;points=[[0,0.5],[1,0.5]];portConstraint=eastwest;whiteSpace=wrap;html=1;fontSize=10;" parent="yAFhu4DFVPGlfn1adf99-1" vertex="1">
          <mxGeometry y="26" width="140" height="26" as="geometry" />
        </mxCell>
        <mxCell id="yAFhu4DFVPGlfn1adf99-21" value="Status code" style="text;align=left;verticalAlign=top;spacingLeft=4;spacingRight=4;overflow=hidden;rotatable=0;points=[[0,0.5],[1,0.5]];portConstraint=eastwest;whiteSpace=wrap;html=1;fontSize=10;" parent="yAFhu4DFVPGlfn1adf99-1" vertex="1">
          <mxGeometry y="52" width="140" height="26" as="geometry" />
        </mxCell>
        <mxCell id="yAFhu4DFVPGlfn1adf99-20" value="PO Values (before &amp;amp; after Tax)" style="text;align=left;verticalAlign=top;spacingLeft=4;spacingRight=4;overflow=hidden;rotatable=0;points=[[0,0.5],[1,0.5]];portConstraint=eastwest;whiteSpace=wrap;html=1;fontSize=10;" parent="yAFhu4DFVPGlfn1adf99-1" vertex="1">
          <mxGeometry y="78" width="140" height="32" as="geometry" />
        </mxCell>
        <mxCell id="AnbGNoJEhcpDucH0T1_s-1" value="PO Lines" style="rounded=0;whiteSpace=wrap;html=1;fillColor=#f5f5f5;fontColor=#333333;strokeColor=#666666;" parent="1" vertex="1">
          <mxGeometry x="430" y="130" width="290" height="20" as="geometry" />
        </mxCell>
        <mxCell id="IpGj8i0MPkVV2rmygOyc-25" value="GUID Fields" style="swimlane;fontStyle=0;childLayout=stackLayout;horizontal=1;startSize=26;fillColor=#f5f5f5;horizontalStack=0;resizeParent=1;resizeParentMax=0;resizeLast=0;collapsible=1;marginBottom=0;html=1;fontColor=#333333;strokeColor=default;fontSize=10;" parent="1" vertex="1">
          <mxGeometry x="110" y="170" width="140" height="260" as="geometry" />
        </mxCell>
        <mxCell id="IpGj8i0MPkVV2rmygOyc-26" value="PO ID" style="text;align=left;verticalAlign=top;spacingLeft=4;spacingRight=4;overflow=hidden;rotatable=0;points=[[0,0.5],[1,0.5]];portConstraint=eastwest;whiteSpace=wrap;html=1;fontSize=10;" parent="IpGj8i0MPkVV2rmygOyc-25" vertex="1">
          <mxGeometry y="26" width="140" height="26" as="geometry" />
        </mxCell>
        <mxCell id="IpGj8i0MPkVV2rmygOyc-27" value="Buyer ID" style="text;align=left;verticalAlign=top;spacingLeft=4;spacingRight=4;overflow=hidden;rotatable=0;points=[[0,0.5],[1,0.5]];portConstraint=eastwest;whiteSpace=wrap;html=1;fontSize=10;" parent="IpGj8i0MPkVV2rmygOyc-25" vertex="1">
          <mxGeometry y="52" width="140" height="26" as="geometry" />
        </mxCell>
        <mxCell id="IpGj8i0MPkVV2rmygOyc-29" value="Payment term ID" style="text;align=left;verticalAlign=top;spacingLeft=4;spacingRight=4;overflow=hidden;rotatable=0;points=[[0,0.5],[1,0.5]];portConstraint=eastwest;whiteSpace=wrap;html=1;fontSize=10;" parent="IpGj8i0MPkVV2rmygOyc-25" vertex="1">
          <mxGeometry y="78" width="140" height="26" as="geometry" />
        </mxCell>
        <mxCell id="mNAOujVOLBeKRjZeiICz-7" value="Delivery term ID" style="text;align=left;verticalAlign=top;spacingLeft=4;spacingRight=4;overflow=hidden;rotatable=0;points=[[0,0.5],[1,0.5]];portConstraint=eastwest;whiteSpace=wrap;html=1;fontSize=10;" parent="IpGj8i0MPkVV2rmygOyc-25" vertex="1">
          <mxGeometry y="104" width="140" height="26" as="geometry" />
        </mxCell>
        <mxCell id="mNAOujVOLBeKRjZeiICz-6" value="Contract type ID" style="text;align=left;verticalAlign=top;spacingLeft=4;spacingRight=4;overflow=hidden;rotatable=0;points=[[0,0.5],[1,0.5]];portConstraint=eastwest;whiteSpace=wrap;html=1;fontSize=10;" parent="IpGj8i0MPkVV2rmygOyc-25" vertex="1">
          <mxGeometry y="130" width="140" height="26" as="geometry" />
        </mxCell>
        <mxCell id="mNAOujVOLBeKRjZeiICz-5" value="RFX ID" style="text;align=left;verticalAlign=top;spacingLeft=4;spacingRight=4;overflow=hidden;rotatable=0;points=[[0,0.5],[1,0.5]];portConstraint=eastwest;whiteSpace=wrap;html=1;fontSize=10;" parent="IpGj8i0MPkVV2rmygOyc-25" vertex="1">
          <mxGeometry y="156" width="140" height="26" as="geometry" />
        </mxCell>
        <mxCell id="IpGj8i0MPkVV2rmygOyc-28" value="Supplier ID" style="text;align=left;verticalAlign=top;spacingLeft=4;spacingRight=4;overflow=hidden;rotatable=0;points=[[0,0.5],[1,0.5]];portConstraint=eastwest;whiteSpace=wrap;html=1;fontSize=10;" parent="IpGj8i0MPkVV2rmygOyc-25" vertex="1">
          <mxGeometry y="182" width="140" height="26" as="geometry" />
        </mxCell>
        <mxCell id="mNAOujVOLBeKRjZeiICz-4" value="Reply ID" style="text;align=left;verticalAlign=top;spacingLeft=4;spacingRight=4;overflow=hidden;rotatable=0;points=[[0,0.5],[1,0.5]];portConstraint=eastwest;whiteSpace=wrap;html=1;fontSize=10;" parent="IpGj8i0MPkVV2rmygOyc-25" vertex="1">
          <mxGeometry y="208" width="140" height="26" as="geometry" />
        </mxCell>
        <mxCell id="mNAOujVOLBeKRjZeiICz-8" value="Site ID" style="text;align=left;verticalAlign=top;spacingLeft=4;spacingRight=4;overflow=hidden;rotatable=0;points=[[0,0.5],[1,0.5]];portConstraint=eastwest;whiteSpace=wrap;html=1;fontSize=10;" parent="IpGj8i0MPkVV2rmygOyc-25" vertex="1">
          <mxGeometry y="234" width="140" height="26" as="geometry" />
        </mxCell>
      </root>
    </mxGraphModel>
  </diagram>
  <diagram id="-fmwc8x3LGkFgJVDEIDa" name="Dimensional Model">
    <mxGraphModel dx="1221" dy="665" grid="1" gridSize="10" guides="1" tooltips="1" connect="1" arrows="1" fold="1" page="1" pageScale="1" pageWidth="850" pageHeight="1100" math="0" shadow="0">
      <root>
        <mxCell id="0" />
        <mxCell id="1" parent="0" />
        <mxCell id="HJ3cXB3UaDdT2wDZuZxv-38" value="FACT_PRLINE_ITEM_VALUE" style="swimlane;fontStyle=0;childLayout=stackLayout;horizontal=1;startSize=26;horizontalStack=0;resizeParent=1;resizeParentMax=0;resizeLast=0;collapsible=1;marginBottom=0;align=center;fontSize=14;" parent="1" vertex="1">
          <mxGeometry x="70" y="162" width="260" height="770" as="geometry" />
        </mxCell>
        <mxCell id="3WDzPeKECiFUJ69HWHeZ-1" value="PRLINE_PK" style="text;strokeColor=#10739e;fillColor=#b1ddf0;spacingLeft=4;spacingRight=4;overflow=hidden;rotatable=0;points=[[0,0.5],[1,0.5]];portConstraint=eastwest;fontSize=12;whiteSpace=wrap;html=1;opacity=60;" parent="HJ3cXB3UaDdT2wDZuZxv-38" vertex="1">
          <mxGeometry y="26" width="260" height="30" as="geometry" />
        </mxCell>
        <mxCell id="nFDHCu4t-8Q2lEyYofCm-1" value="PR_HEADER_FK" style="text;strokeColor=#10739e;fillColor=#b1ddf0;spacingLeft=4;spacingRight=4;overflow=hidden;rotatable=0;points=[[0,0.5],[1,0.5]];portConstraint=eastwest;fontSize=12;whiteSpace=wrap;html=1;opacity=60;" parent="HJ3cXB3UaDdT2wDZuZxv-38" vertex="1">
          <mxGeometry y="56" width="260" height="30" as="geometry" />
        </mxCell>
        <mxCell id="HJ3cXB3UaDdT2wDZuZxv-45" value="ACCOUNT_FK" style="text;strokeColor=#10739e;fillColor=#b1ddf0;spacingLeft=4;spacingRight=4;overflow=hidden;rotatable=0;points=[[0,0.5],[1,0.5]];portConstraint=eastwest;fontSize=12;whiteSpace=wrap;html=1;opacity=60;" parent="HJ3cXB3UaDdT2wDZuZxv-38" vertex="1">
          <mxGeometry y="86" width="260" height="30" as="geometry" />
        </mxCell>
        <mxCell id="HJ3cXB3UaDdT2wDZuZxv-44" value="FINDIM_LIST_OF_FK" style="text;strokeColor=#10739e;fillColor=#b1ddf0;spacingLeft=4;spacingRight=4;overflow=hidden;rotatable=0;points=[[0,0.5],[1,0.5]];portConstraint=eastwest;fontSize=12;whiteSpace=wrap;html=1;opacity=60;" parent="HJ3cXB3UaDdT2wDZuZxv-38" vertex="1">
          <mxGeometry y="116" width="260" height="30" as="geometry" />
        </mxCell>
        <mxCell id="HJ3cXB3UaDdT2wDZuZxv-43" value="TRANSACTION_FK" style="text;strokeColor=#10739e;fillColor=#b1ddf0;spacingLeft=4;spacingRight=4;overflow=hidden;rotatable=0;points=[[0,0.5],[1,0.5]];portConstraint=eastwest;fontSize=12;whiteSpace=wrap;html=1;opacity=60;" parent="HJ3cXB3UaDdT2wDZuZxv-38" vertex="1">
          <mxGeometry y="146" width="260" height="30" as="geometry" />
        </mxCell>
        <mxCell id="HJ3cXB3UaDdT2wDZuZxv-42" value="SITE_FK" style="text;strokeColor=#10739e;fillColor=#b1ddf0;spacingLeft=4;spacingRight=4;overflow=hidden;rotatable=0;points=[[0,0.5],[1,0.5]];portConstraint=eastwest;fontSize=12;whiteSpace=wrap;html=1;opacity=60;" parent="HJ3cXB3UaDdT2wDZuZxv-38" vertex="1">
          <mxGeometry y="176" width="260" height="30" as="geometry" />
        </mxCell>
        <mxCell id="nFDHCu4t-8Q2lEyYofCm-2" value="TAXGROUP_FK" style="text;strokeColor=#10739e;fillColor=#b1ddf0;spacingLeft=4;spacingRight=4;overflow=hidden;rotatable=0;points=[[0,0.5],[1,0.5]];portConstraint=eastwest;fontSize=12;whiteSpace=wrap;html=1;opacity=60;" parent="HJ3cXB3UaDdT2wDZuZxv-38" vertex="1">
          <mxGeometry y="206" width="260" height="30" as="geometry" />
        </mxCell>
        <mxCell id="3WDzPeKECiFUJ69HWHeZ-4" value="USER_FK (OWNER, REQUESTER, MODIFIER, PREPARER...) or just the names instead of FKs" style="text;strokeColor=#10739e;fillColor=#b1ddf0;spacingLeft=4;spacingRight=4;overflow=hidden;rotatable=0;points=[[0,0.5],[1,0.5]];portConstraint=eastwest;fontSize=12;whiteSpace=wrap;html=1;opacity=60;" parent="HJ3cXB3UaDdT2wDZuZxv-38" vertex="1">
          <mxGeometry y="236" width="260" height="54" as="geometry" />
        </mxCell>
        <mxCell id="3WDzPeKECiFUJ69HWHeZ-3" value="PRODUCT_TYPE_FK" style="text;strokeColor=#10739e;fillColor=#b1ddf0;spacingLeft=4;spacingRight=4;overflow=hidden;rotatable=0;points=[[0,0.5],[1,0.5]];portConstraint=eastwest;fontSize=12;whiteSpace=wrap;html=1;opacity=60;" parent="HJ3cXB3UaDdT2wDZuZxv-38" vertex="1">
          <mxGeometry y="290" width="260" height="30" as="geometry" />
        </mxCell>
        <mxCell id="3WDzPeKECiFUJ69HWHeZ-2" value="PRODUCT_CATALOG_FK" style="text;strokeColor=#10739e;fillColor=#b1ddf0;spacingLeft=4;spacingRight=4;overflow=hidden;rotatable=0;points=[[0,0.5],[1,0.5]];portConstraint=eastwest;fontSize=12;whiteSpace=wrap;html=1;opacity=60;" parent="HJ3cXB3UaDdT2wDZuZxv-38" vertex="1">
          <mxGeometry y="320" width="260" height="30" as="geometry" />
        </mxCell>
        <mxCell id="hP3jjOiL8UV8wsftk5GM-3" value="DATE_FK (REQUEST, APROVAL, UPDATE...) or just date fields instead of FKs" style="text;strokeColor=#10739e;fillColor=#b1ddf0;spacingLeft=4;spacingRight=4;overflow=hidden;rotatable=0;points=[[0,0.5],[1,0.5]];portConstraint=eastwest;fontSize=12;whiteSpace=wrap;html=1;opacity=60;" parent="HJ3cXB3UaDdT2wDZuZxv-38" vertex="1">
          <mxGeometry y="350" width="260" height="40" as="geometry" />
        </mxCell>
        <mxCell id="UqD9j3pkzBl5AbUIizMk-2" value="RFX_LINE_FK" style="text;strokeColor=#10739e;fillColor=#b1ddf0;spacingLeft=4;spacingRight=4;overflow=hidden;rotatable=0;points=[[0,0.5],[1,0.5]];portConstraint=eastwest;fontSize=12;whiteSpace=wrap;html=1;opacity=60;" parent="HJ3cXB3UaDdT2wDZuZxv-38" vertex="1">
          <mxGeometry y="390" width="260" height="40" as="geometry" />
        </mxCell>
        <mxCell id="UqD9j3pkzBl5AbUIizMk-1" value="RFX_FK" style="text;strokeColor=#10739e;fillColor=#b1ddf0;spacingLeft=4;spacingRight=4;overflow=hidden;rotatable=0;points=[[0,0.5],[1,0.5]];portConstraint=eastwest;fontSize=12;whiteSpace=wrap;html=1;opacity=60;" parent="HJ3cXB3UaDdT2wDZuZxv-38" vertex="1">
          <mxGeometry y="430" width="260" height="40" as="geometry" />
        </mxCell>
        <mxCell id="aJ9dTOxar0UXtUuWZkvU-2" value="PO_FK" style="text;strokeColor=#10739e;fillColor=#b1ddf0;spacingLeft=4;spacingRight=4;overflow=hidden;rotatable=0;points=[[0,0.5],[1,0.5]];portConstraint=eastwest;fontSize=12;whiteSpace=wrap;html=1;opacity=60;" parent="HJ3cXB3UaDdT2wDZuZxv-38" vertex="1">
          <mxGeometry y="470" width="260" height="40" as="geometry" />
        </mxCell>
        <mxCell id="aJ9dTOxar0UXtUuWZkvU-1" value="PO_LINE_FK" style="text;strokeColor=#10739e;fillColor=#b1ddf0;spacingLeft=4;spacingRight=4;overflow=hidden;rotatable=0;points=[[0,0.5],[1,0.5]];portConstraint=eastwest;fontSize=12;whiteSpace=wrap;html=1;opacity=60;" parent="HJ3cXB3UaDdT2wDZuZxv-38" vertex="1">
          <mxGeometry y="510" width="260" height="40" as="geometry" />
        </mxCell>
        <mxCell id="tU7TAD_zLBsOUpPrCD0M-4" value="VENDOR_FK" style="text;strokeColor=#b85450;fillColor=#f8cecc;spacingLeft=4;spacingRight=4;overflow=hidden;rotatable=0;points=[[0,0.5],[1,0.5]];portConstraint=eastwest;fontSize=12;whiteSpace=wrap;html=1;" parent="HJ3cXB3UaDdT2wDZuZxv-38" vertex="1">
          <mxGeometry y="550" width="260" height="40" as="geometry" />
        </mxCell>
        <mxCell id="hP3jjOiL8UV8wsftk5GM-2" value="STATUS (From PR header)" style="text;spacingLeft=4;spacingRight=4;overflow=hidden;rotatable=0;points=[[0,0.5],[1,0.5]];portConstraint=eastwest;fontSize=12;whiteSpace=wrap;html=1;fillColor=#fad7ac;strokeColor=#b46504;" parent="HJ3cXB3UaDdT2wDZuZxv-38" vertex="1">
          <mxGeometry y="590" width="260" height="30" as="geometry" />
        </mxCell>
        <mxCell id="hP3jjOiL8UV8wsftk5GM-1" value="STATE" style="text;spacingLeft=4;spacingRight=4;overflow=hidden;rotatable=0;points=[[0,0.5],[1,0.5]];portConstraint=eastwest;fontSize=12;whiteSpace=wrap;html=1;fillColor=#fad7ac;strokeColor=#b46504;" parent="HJ3cXB3UaDdT2wDZuZxv-38" vertex="1">
          <mxGeometry y="620" width="260" height="30" as="geometry" />
        </mxCell>
        <mxCell id="tU7TAD_zLBsOUpPrCD0M-1" value="ITEM_NAME" style="text;spacingLeft=4;spacingRight=4;overflow=hidden;rotatable=0;points=[[0,0.5],[1,0.5]];portConstraint=eastwest;fontSize=12;whiteSpace=wrap;html=1;fillColor=#fad7ac;strokeColor=#b46504;" parent="HJ3cXB3UaDdT2wDZuZxv-38" vertex="1">
          <mxGeometry y="650" width="260" height="30" as="geometry" />
        </mxCell>
        <mxCell id="HJ3cXB3UaDdT2wDZuZxv-39" value="ITEM_VALUE" style="text;strokeColor=#b46504;fillColor=#fad7ac;spacingLeft=4;spacingRight=4;overflow=hidden;rotatable=0;points=[[0,0.5],[1,0.5]];portConstraint=eastwest;fontSize=12;whiteSpace=wrap;html=1;" parent="HJ3cXB3UaDdT2wDZuZxv-38" vertex="1">
          <mxGeometry y="680" width="260" height="30" as="geometry" />
        </mxCell>
        <mxCell id="HJ3cXB3UaDdT2wDZuZxv-40" value="ITEM_TAX" style="text;strokeColor=#b46504;fillColor=#fad7ac;spacingLeft=4;spacingRight=4;overflow=hidden;rotatable=0;points=[[0,0.5],[1,0.5]];portConstraint=eastwest;fontSize=12;whiteSpace=wrap;html=1;" parent="HJ3cXB3UaDdT2wDZuZxv-38" vertex="1">
          <mxGeometry y="710" width="260" height="30" as="geometry" />
        </mxCell>
        <mxCell id="HJ3cXB3UaDdT2wDZuZxv-41" value="ITEM_FINAL_VALUE_WITH_TAX" style="text;strokeColor=#b46504;fillColor=#fad7ac;spacingLeft=4;spacingRight=4;overflow=hidden;rotatable=0;points=[[0,0.5],[1,0.5]];portConstraint=eastwest;fontSize=12;whiteSpace=wrap;html=1;" parent="HJ3cXB3UaDdT2wDZuZxv-38" vertex="1">
          <mxGeometry y="740" width="260" height="30" as="geometry" />
        </mxCell>
        <mxCell id="-WKRwR90XYqBMw08YkAN-1" value="med_taxgroups" style="rounded=1;whiteSpace=wrap;html=1;fillColor=#b1ddf0;strokeColor=#10739e;" parent="1" vertex="1">
          <mxGeometry x="320" y="372" width="130" height="20" as="geometry" />
        </mxCell>
        <mxCell id="CCEkEzpepLWFTGeIpx8a-4" style="edgeStyle=orthogonalEdgeStyle;rounded=0;orthogonalLoop=1;jettySize=auto;html=1;exitX=1;exitY=0.5;exitDx=0;exitDy=0;entryX=1;entryY=0.5;entryDx=0;entryDy=0;" parent="1" source="-QwAtZEClNRT_jPDG5mv-1" target="JPg_aZvuBEHlbw3oRKO0-1" edge="1">
          <mxGeometry relative="1" as="geometry" />
        </mxCell>
        <mxCell id="CCEkEzpepLWFTGeIpx8a-5" value="country, location" style="edgeLabel;html=1;align=center;verticalAlign=middle;resizable=0;points=[];" parent="CCEkEzpepLWFTGeIpx8a-4" vertex="1" connectable="0">
          <mxGeometry x="0.0378" y="4" relative="1" as="geometry">
            <mxPoint x="33" as="offset" />
          </mxGeometry>
        </mxCell>
        <mxCell id="-QwAtZEClNRT_jPDG5mv-1" value="med_sites" style="rounded=1;whiteSpace=wrap;html=1;fillColor=#b1ddf0;strokeColor=#10739e;" parent="1" vertex="1">
          <mxGeometry x="320" y="342" width="130" height="20" as="geometry" />
        </mxCell>
        <mxCell id="Grk9JeC9w2Nnc3-YNFtK-1" value="systemusers" style="rounded=1;whiteSpace=wrap;html=1;fillColor=#b1ddf0;strokeColor=#10739e;" parent="1" vertex="1">
          <mxGeometry x="320" y="412" width="130" height="20" as="geometry" />
        </mxCell>
        <mxCell id="Grk9JeC9w2Nnc3-YNFtK-2" value="transactioncurrencies" style="rounded=1;whiteSpace=wrap;html=1;fillColor=#b1ddf0;strokeColor=#10739e;" parent="1" vertex="1">
          <mxGeometry x="320" y="312" width="130" height="20" as="geometry" />
        </mxCell>
        <mxCell id="Grk9JeC9w2Nnc3-YNFtK-3" value="med_prs" style="rounded=1;whiteSpace=wrap;html=1;fillColor=#b1ddf0;strokeColor=#10739e;" parent="1" vertex="1">
          <mxGeometry x="320" y="222" width="130" height="20" as="geometry" />
        </mxCell>
        <mxCell id="JPg_aZvuBEHlbw3oRKO0-1" value="finDims" style="rounded=1;whiteSpace=wrap;html=1;fillColor=#b1ddf0;strokeColor=#10739e;" parent="1" vertex="1">
          <mxGeometry x="320" y="282" width="130" height="20" as="geometry" />
        </mxCell>
        <mxCell id="5nPiKGJwFRKYZGkH_MYo-1" value="med_productcatalog" style="rounded=1;whiteSpace=wrap;html=1;fillColor=#b1ddf0;strokeColor=#10739e;" parent="1" vertex="1">
          <mxGeometry x="320" y="487" width="130" height="20" as="geometry" />
        </mxCell>
        <mxCell id="5nPiKGJwFRKYZGkH_MYo-2" value="med_producttype" style="rounded=1;whiteSpace=wrap;html=1;fillColor=#b1ddf0;strokeColor=#10739e;" parent="1" vertex="1">
          <mxGeometry x="320" y="457" width="130" height="20" as="geometry" />
        </mxCell>
        <mxCell id="5nPiKGJwFRKYZGkH_MYo-3" value="med_accountcode" style="rounded=1;whiteSpace=wrap;html=1;fillColor=#b1ddf0;strokeColor=#10739e;" parent="1" vertex="1">
          <mxGeometry x="320" y="252" width="130" height="20" as="geometry" />
        </mxCell>
        <mxCell id="iOWfzmmQbe_lql_Tdvmu-1" value="" style="group" parent="1" vertex="1" connectable="0">
          <mxGeometry x="360" y="792" width="320" height="260" as="geometry" />
        </mxCell>
        <mxCell id="iOWfzmmQbe_lql_Tdvmu-2" value="Legend" style="rounded=0;whiteSpace=wrap;html=1;align=center;labelPosition=center;verticalLabelPosition=top;verticalAlign=bottom;" parent="iOWfzmmQbe_lql_Tdvmu-1" vertex="1">
          <mxGeometry width="320" height="190" as="geometry" />
        </mxCell>
        <mxCell id="iOWfzmmQbe_lql_Tdvmu-3" value="Grain facts" style="rounded=1;whiteSpace=wrap;html=1;fillColor=#fad7ac;strokeColor=#b46504;labelPosition=right;verticalLabelPosition=middle;align=left;verticalAlign=middle;" parent="iOWfzmmQbe_lql_Tdvmu-1" vertex="1">
          <mxGeometry x="10" y="56" width="20" height="40" as="geometry" />
        </mxCell>
        <mxCell id="iOWfzmmQbe_lql_Tdvmu-5" value="Fact" style="rounded=1;whiteSpace=wrap;html=1;fillColor=#f5f5f5;strokeColor=#666666;labelPosition=right;verticalLabelPosition=middle;align=left;verticalAlign=middle;fontColor=#333333;" parent="iOWfzmmQbe_lql_Tdvmu-1" vertex="1">
          <mxGeometry x="10" y="96" width="20" height="40" as="geometry" />
        </mxCell>
        <mxCell id="iOWfzmmQbe_lql_Tdvmu-6" value="Dimension" style="rounded=1;whiteSpace=wrap;html=1;fillColor=#b1ddf0;strokeColor=#10739e;labelPosition=right;verticalLabelPosition=middle;align=left;verticalAlign=middle;" parent="iOWfzmmQbe_lql_Tdvmu-1" vertex="1">
          <mxGeometry x="10" y="16" width="20" height="40" as="geometry" />
        </mxCell>
        <mxCell id="aJ9dTOxar0UXtUuWZkvU-8" value="TBD" style="rounded=1;whiteSpace=wrap;html=1;fillColor=#f8cecc;strokeColor=#b85450;labelPosition=right;verticalLabelPosition=middle;align=left;verticalAlign=middle;" parent="iOWfzmmQbe_lql_Tdvmu-1" vertex="1">
          <mxGeometry x="10" y="136" width="20" height="40" as="geometry" />
        </mxCell>
        <mxCell id="iOWfzmmQbe_lql_Tdvmu-8" value="master date view" style="rounded=1;whiteSpace=wrap;html=1;fillColor=#b1ddf0;strokeColor=#10739e;" parent="1" vertex="1">
          <mxGeometry x="320" y="522" width="130" height="20" as="geometry" />
        </mxCell>
        <mxCell id="UqD9j3pkzBl5AbUIizMk-4" value="med_rfqline" style="rounded=1;whiteSpace=wrap;html=1;fillColor=#b1ddf0;strokeColor=#10739e;" parent="1" vertex="1">
          <mxGeometry x="320" y="562" width="130" height="20" as="geometry" />
        </mxCell>
        <mxCell id="UqD9j3pkzBl5AbUIizMk-6" value="med_rfq" style="rounded=1;whiteSpace=wrap;html=1;fillColor=#b1ddf0;strokeColor=#10739e;" parent="1" vertex="1">
          <mxGeometry x="320" y="602" width="130" height="20" as="geometry" />
        </mxCell>
        <mxCell id="aJ9dTOxar0UXtUuWZkvU-3" value="med_pos" style="rounded=1;whiteSpace=wrap;html=1;fillColor=#b1ddf0;strokeColor=#10739e;" parent="1" vertex="1">
          <mxGeometry x="320" y="642" width="130" height="20" as="geometry" />
        </mxCell>
        <mxCell id="aJ9dTOxar0UXtUuWZkvU-4" value="med_polines" style="rounded=1;whiteSpace=wrap;html=1;fillColor=#b1ddf0;strokeColor=#10739e;" parent="1" vertex="1">
          <mxGeometry x="320" y="682" width="130" height="20" as="geometry" />
        </mxCell>
        <mxCell id="aJ9dTOxar0UXtUuWZkvU-5" value="med_bids" style="rounded=1;whiteSpace=wrap;html=1;fillColor=#f8cecc;strokeColor=#b85450;" parent="1" vertex="1">
          <mxGeometry x="320" y="714" width="130" height="20" as="geometry" />
        </mxCell>
        <mxCell id="aJ9dTOxar0UXtUuWZkvU-6" value="med_bidlines" style="rounded=1;whiteSpace=wrap;html=1;fillColor=#f8cecc;strokeColor=#b85450;" parent="1" vertex="1">
          <mxGeometry x="320" y="734" width="130" height="20" as="geometry" />
        </mxCell>
        <mxCell id="aJ9dTOxar0UXtUuWZkvU-7" value="&lt;h1&gt;Grain&lt;/h1&gt;&lt;p&gt;Each row of the fact table represents the paid amount of an item or service that has been requested based on a PR and requested with a PO that is related to a vendor that submitted his bid based on RFX. The amount paid is also related to financial dimensions and account codes.&lt;/p&gt;" style="text;html=1;strokeColor=default;fillColor=none;spacing=5;spacingTop=-20;whiteSpace=wrap;overflow=hidden;rounded=0;" parent="1" vertex="1">
          <mxGeometry x="550" y="222" width="290" height="170" as="geometry" />
        </mxCell>
        <mxCell id="aJ9dTOxar0UXtUuWZkvU-9" value="&lt;b&gt;&lt;font style=&quot;font-size: 12px;&quot;&gt;Logical Design&lt;/font&gt;&lt;/b&gt;" style="rounded=1;whiteSpace=wrap;html=1;fillColor=#dae8fc;strokeColor=#6c8ebf;" parent="1" vertex="1">
          <mxGeometry x="10" y="82" width="830" height="28" as="geometry" />
        </mxCell>
        <mxCell id="xUJJJ5QZT3giigK9fmFy-1" value="&lt;b&gt;&lt;font style=&quot;font-size: 20px;&quot;&gt;Dimensional Model&lt;/font&gt;&lt;/b&gt;" style="rounded=1;whiteSpace=wrap;html=1;fillColor=#f5f5f5;fontColor=#333333;strokeColor=#666666;" parent="1" vertex="1">
          <mxGeometry x="10" y="10" width="830" height="60" as="geometry" />
        </mxCell>
        <mxCell id="CCEkEzpepLWFTGeIpx8a-1" value="med_accountcode" style="rounded=1;whiteSpace=wrap;html=1;fillColor=#b1ddf0;strokeColor=#10739e;" parent="1" vertex="1">
          <mxGeometry x="560" y="477" width="130" height="20" as="geometry" />
        </mxCell>
        <mxCell id="Zj-h1_fCcLp_6xuQKbJ0-1" value="pr lines" style="rounded=1;whiteSpace=wrap;html=1;" vertex="1" parent="1">
          <mxGeometry x="380" y="1220" width="120" height="60" as="geometry" />
        </mxCell>
        <mxCell id="PdZ7wjkdEsvuwm0EtkMa-1" style="edgeStyle=orthogonalEdgeStyle;rounded=0;orthogonalLoop=1;jettySize=auto;html=1;entryX=0.5;entryY=0;entryDx=0;entryDy=0;" edge="1" parent="1" source="Zj-h1_fCcLp_6xuQKbJ0-4" target="Zj-h1_fCcLp_6xuQKbJ0-1">
          <mxGeometry relative="1" as="geometry" />
        </mxCell>
        <mxCell id="Zj-h1_fCcLp_6xuQKbJ0-4" value="findims" style="rounded=0;whiteSpace=wrap;html=1;" vertex="1" parent="1">
          <mxGeometry x="380" y="1090" width="120" height="60" as="geometry" />
        </mxCell>
        <mxCell id="Zj-h1_fCcLp_6xuQKbJ0-10" style="edgeStyle=orthogonalEdgeStyle;rounded=0;orthogonalLoop=1;jettySize=auto;html=1;entryX=0.75;entryY=1;entryDx=0;entryDy=0;" edge="1" parent="1" source="Zj-h1_fCcLp_6xuQKbJ0-6" target="Zj-h1_fCcLp_6xuQKbJ0-1">
          <mxGeometry relative="1" as="geometry" />
        </mxCell>
        <mxCell id="Zj-h1_fCcLp_6xuQKbJ0-6" value="accounts" style="rounded=0;whiteSpace=wrap;html=1;" vertex="1" parent="1">
          <mxGeometry x="620" y="1320" width="120" height="60" as="geometry" />
        </mxCell>
        <mxCell id="Zj-h1_fCcLp_6xuQKbJ0-13" value="po" style="rounded=0;whiteSpace=wrap;html=1;" vertex="1" parent="1">
          <mxGeometry x="170" y="1290" width="120" height="60" as="geometry" />
        </mxCell>
        <mxCell id="Zj-h1_fCcLp_6xuQKbJ0-14" style="edgeStyle=orthogonalEdgeStyle;rounded=0;orthogonalLoop=1;jettySize=auto;html=1;entryX=0.399;entryY=1;entryDx=0;entryDy=0;entryPerimeter=0;" edge="1" parent="1" source="Zj-h1_fCcLp_6xuQKbJ0-13" target="Zj-h1_fCcLp_6xuQKbJ0-1">
          <mxGeometry relative="1" as="geometry" />
        </mxCell>
      </root>
    </mxGraphModel>
  </diagram>
  <diagram id="fi5IDAYW2RnfCyft6s1M" name="DW Architecture">
    <mxGraphModel dx="1221" dy="-435" grid="1" gridSize="10" guides="1" tooltips="1" connect="1" arrows="1" fold="1" page="1" pageScale="1" pageWidth="850" pageHeight="1100" math="0" shadow="0">
      <root>
        <mxCell id="0" />
        <mxCell id="1" parent="0" />
        <mxCell id="iRtQ9VVr9mmD2cW8Baby-1" value="&lt;b&gt;&lt;font style=&quot;font-size: 12px;&quot;&gt;Technical Steps&lt;/font&gt;&lt;/b&gt;" style="rounded=1;whiteSpace=wrap;html=1;fillColor=#dae8fc;strokeColor=#6c8ebf;" parent="1" vertex="1">
          <mxGeometry x="10" y="1120" width="830" height="28" as="geometry" />
        </mxCell>
        <mxCell id="iRtQ9VVr9mmD2cW8Baby-2" value="(file) &amp;gt; View&amp;nbsp; &amp;gt; Read into Dimensions and Fact tables &amp;gt; Views of Qlik Mart" style="text;html=1;strokeColor=none;fillColor=none;align=center;verticalAlign=middle;whiteSpace=wrap;rounded=0;" parent="1" vertex="1">
          <mxGeometry x="10" y="1170" width="830" height="30" as="geometry" />
        </mxCell>
        <mxCell id="iRtQ9VVr9mmD2cW8Baby-3" value="(file) &amp;gt; Temp Table &amp;gt; Read into Dimensions and Fact tables &amp;gt; Views of Qlik Mart" style="text;html=1;strokeColor=none;fillColor=none;align=center;verticalAlign=middle;whiteSpace=wrap;rounded=0;" parent="1" vertex="1">
          <mxGeometry x="10" y="1210" width="830" height="30" as="geometry" />
        </mxCell>
        <mxCell id="iRtQ9VVr9mmD2cW8Baby-4" value="POC" style="rounded=1;whiteSpace=wrap;html=1;fillColor=#d5e8d4;strokeColor=#82b366;" parent="1" vertex="1">
          <mxGeometry x="80" y="1175" width="120" height="20" as="geometry" />
        </mxCell>
        <mxCell id="iRtQ9VVr9mmD2cW8Baby-5" value="Implementation" style="rounded=1;whiteSpace=wrap;html=1;fillColor=#d5e8d4;strokeColor=#82b366;" parent="1" vertex="1">
          <mxGeometry x="80" y="1215" width="120" height="20" as="geometry" />
        </mxCell>
        <mxCell id="G_3-R3aTESyMnwi2ZIqF-9" value="" style="group" parent="1" vertex="1" connectable="0">
          <mxGeometry x="11" y="1290" width="1290" height="540" as="geometry" />
        </mxCell>
        <mxCell id="G_3-R3aTESyMnwi2ZIqF-8" value="" style="rounded=0;whiteSpace=wrap;html=1;fillColor=#f5f5f5;strokeColor=#666666;fontColor=#333333;" parent="G_3-R3aTESyMnwi2ZIqF-9" vertex="1">
          <mxGeometry width="1290" height="540" as="geometry" />
        </mxCell>
        <mxCell id="TW6S9ZztQAryHLJ37Mz1-2" value="" style="verticalLabelPosition=bottom;html=1;verticalAlign=top;align=center;strokeColor=none;fillColor=#00BEF2;shape=mxgraph.azure.storage_blob;" parent="G_3-R3aTESyMnwi2ZIqF-9" vertex="1">
          <mxGeometry x="120.82278481012659" y="133" width="52.53164556962025" height="45" as="geometry" />
        </mxCell>
        <mxCell id="G_3-R3aTESyMnwi2ZIqF-16" style="edgeStyle=orthogonalEdgeStyle;rounded=0;orthogonalLoop=1;jettySize=auto;html=1;shape=link;" parent="G_3-R3aTESyMnwi2ZIqF-9" source="TW6S9ZztQAryHLJ37Mz1-3" target="TW6S9ZztQAryHLJ37Mz1-18" edge="1">
          <mxGeometry relative="1" as="geometry" />
        </mxCell>
        <mxCell id="TW6S9ZztQAryHLJ37Mz1-3" value="" style="shape=mxgraph.signs.nature.snowflake;html=1;pointerEvents=1;fillColor=#9EC2F5;strokeColor=#6c8ebf;verticalLabelPosition=bottom;verticalAlign=top;align=center;" parent="G_3-R3aTESyMnwi2ZIqF-9" vertex="1">
          <mxGeometry x="354.0632911392405" y="106.5" width="91.40506329113924" height="98" as="geometry" />
        </mxCell>
        <mxCell id="TW6S9ZztQAryHLJ37Mz1-5" value="Azure Blob Storage" style="rounded=1;whiteSpace=wrap;html=1;fillColor=#dae8fc;strokeColor=#6c8ebf;" parent="G_3-R3aTESyMnwi2ZIqF-9" vertex="1">
          <mxGeometry x="84.05063291139241" y="30" width="126.07594936708861" height="20" as="geometry" />
        </mxCell>
        <mxCell id="TW6S9ZztQAryHLJ37Mz1-6" value="Snowflake" style="rounded=1;whiteSpace=wrap;html=1;fillColor=#dae8fc;strokeColor=#6c8ebf;" parent="G_3-R3aTESyMnwi2ZIqF-9" vertex="1">
          <mxGeometry x="336.72784810126586" y="30" width="126.07594936708861" height="20" as="geometry" />
        </mxCell>
        <mxCell id="TW6S9ZztQAryHLJ37Mz1-7" value="(file)" style="text;html=1;align=center;verticalAlign=middle;resizable=0;points=[];autosize=1;strokeColor=none;fillColor=none;" parent="G_3-R3aTESyMnwi2ZIqF-9" vertex="1">
          <mxGeometry x="126.07594936708861" y="244.5" width="50" height="30" as="geometry" />
        </mxCell>
        <mxCell id="TW6S9ZztQAryHLJ37Mz1-8" value="stg_scm (Staging)" style="rounded=1;whiteSpace=wrap;html=1;fillColor=#ffe6cc;strokeColor=#d79b00;" parent="G_3-R3aTESyMnwi2ZIqF-9" vertex="1">
          <mxGeometry x="336.72784810126586" y="239.5" width="150" height="40" as="geometry" />
        </mxCell>
        <mxCell id="TW6S9ZztQAryHLJ37Mz1-9" style="edgeStyle=orthogonalEdgeStyle;rounded=0;orthogonalLoop=1;jettySize=auto;html=1;entryX=0;entryY=0.5;entryDx=0;entryDy=0;" parent="G_3-R3aTESyMnwi2ZIqF-9" source="TW6S9ZztQAryHLJ37Mz1-7" target="TW6S9ZztQAryHLJ37Mz1-8" edge="1">
          <mxGeometry relative="1" as="geometry" />
        </mxCell>
        <mxCell id="TW6S9ZztQAryHLJ37Mz1-14" value="load into views" style="edgeLabel;html=1;align=center;verticalAlign=middle;resizable=0;points=[];" parent="TW6S9ZztQAryHLJ37Mz1-9" vertex="1" connectable="0">
          <mxGeometry x="-0.2765" y="3" relative="1" as="geometry">
            <mxPoint y="2" as="offset" />
          </mxGeometry>
        </mxCell>
        <mxCell id="TW6S9ZztQAryHLJ37Mz1-10" value="int_wh (Warehouse 1) - tables" style="rounded=1;whiteSpace=wrap;html=1;fillColor=#ffe6cc;strokeColor=#d79b00;" parent="G_3-R3aTESyMnwi2ZIqF-9" vertex="1">
          <mxGeometry x="336.72784810126586" y="363.5" width="150" height="40" as="geometry" />
        </mxCell>
        <mxCell id="TW6S9ZztQAryHLJ37Mz1-11" style="edgeStyle=orthogonalEdgeStyle;rounded=0;orthogonalLoop=1;jettySize=auto;html=1;entryX=0.5;entryY=0;entryDx=0;entryDy=0;" parent="G_3-R3aTESyMnwi2ZIqF-9" source="TW6S9ZztQAryHLJ37Mz1-8" target="TW6S9ZztQAryHLJ37Mz1-10" edge="1">
          <mxGeometry relative="1" as="geometry" />
        </mxCell>
        <mxCell id="TW6S9ZztQAryHLJ37Mz1-13" value="Ingest into tables" style="edgeLabel;html=1;align=center;verticalAlign=middle;resizable=0;points=[];" parent="TW6S9ZztQAryHLJ37Mz1-11" vertex="1" connectable="0">
          <mxGeometry x="-0.1255" relative="1" as="geometry">
            <mxPoint as="offset" />
          </mxGeometry>
        </mxCell>
        <mxCell id="TW6S9ZztQAryHLJ37Mz1-15" value="int_wh (Warehouse 2) - views" style="rounded=1;whiteSpace=wrap;html=1;fillColor=#ffe6cc;strokeColor=#d79b00;" parent="G_3-R3aTESyMnwi2ZIqF-9" vertex="1">
          <mxGeometry x="336.72784810126586" y="482.5" width="150" height="40" as="geometry" />
        </mxCell>
        <mxCell id="TW6S9ZztQAryHLJ37Mz1-16" value="Refined data as views" style="edgeStyle=orthogonalEdgeStyle;rounded=0;orthogonalLoop=1;jettySize=auto;html=1;exitX=0.5;exitY=1;exitDx=0;exitDy=0;entryX=0.5;entryY=0;entryDx=0;entryDy=0;" parent="G_3-R3aTESyMnwi2ZIqF-9" source="TW6S9ZztQAryHLJ37Mz1-10" target="TW6S9ZztQAryHLJ37Mz1-15" edge="1">
          <mxGeometry relative="1" as="geometry" />
        </mxCell>
        <mxCell id="TW6S9ZztQAryHLJ37Mz1-17" value="QlikSense" style="rounded=1;whiteSpace=wrap;html=1;fillColor=#dae8fc;strokeColor=#6c8ebf;" parent="G_3-R3aTESyMnwi2ZIqF-9" vertex="1">
          <mxGeometry x="572.5949367088608" y="30" width="126.07594936708861" height="20" as="geometry" />
        </mxCell>
        <mxCell id="TW6S9ZztQAryHLJ37Mz1-18" value="" style="sketch=0;outlineConnect=0;fontColor=#232F3E;gradientColor=none;fillColor=#8C4FFF;strokeColor=none;dashed=0;verticalLabelPosition=bottom;verticalAlign=top;align=center;html=1;fontSize=12;fontStyle=0;aspect=fixed;pointerEvents=1;shape=mxgraph.aws4.opensearch_dashboards;" parent="G_3-R3aTESyMnwi2ZIqF-9" vertex="1">
          <mxGeometry x="594.6582278481013" y="126" width="78" height="59" as="geometry" />
        </mxCell>
        <mxCell id="TW6S9ZztQAryHLJ37Mz1-19" value="Qlik Space (TBD)" style="rounded=1;whiteSpace=wrap;html=1;fillColor=#e1d5e7;strokeColor=#9673a6;" parent="G_3-R3aTESyMnwi2ZIqF-9" vertex="1">
          <mxGeometry x="909.0049367088608" y="482.5" width="150" height="40" as="geometry" />
        </mxCell>
        <mxCell id="TW6S9ZztQAryHLJ37Mz1-20" style="edgeStyle=orthogonalEdgeStyle;rounded=0;orthogonalLoop=1;jettySize=auto;html=1;entryX=0;entryY=0.5;entryDx=0;entryDy=0;" parent="G_3-R3aTESyMnwi2ZIqF-9" source="TW6S9ZztQAryHLJ37Mz1-15" target="ut-VKLm46igGH3t-_Mmp-1" edge="1">
          <mxGeometry relative="1" as="geometry" />
        </mxCell>
        <mxCell id="ut-VKLm46igGH3t-_Mmp-4" value="BvA View" style="edgeLabel;html=1;align=center;verticalAlign=middle;resizable=0;points=[];" parent="TW6S9ZztQAryHLJ37Mz1-20" vertex="1" connectable="0">
          <mxGeometry x="-0.4144" y="1" relative="1" as="geometry">
            <mxPoint x="31" y="1" as="offset" />
          </mxGeometry>
        </mxCell>
        <mxCell id="G_3-R3aTESyMnwi2ZIqF-15" style="edgeStyle=orthogonalEdgeStyle;rounded=0;orthogonalLoop=1;jettySize=auto;html=1;exitX=1;exitY=0.5;exitDx=0;exitDy=0;exitPerimeter=0;entryX=-0.055;entryY=0.498;entryDx=0;entryDy=0;entryPerimeter=0;shape=link;" parent="G_3-R3aTESyMnwi2ZIqF-9" source="TW6S9ZztQAryHLJ37Mz1-2" target="TW6S9ZztQAryHLJ37Mz1-3" edge="1">
          <mxGeometry relative="1" as="geometry" />
        </mxCell>
        <mxCell id="ut-VKLm46igGH3t-_Mmp-2" style="edgeStyle=orthogonalEdgeStyle;rounded=0;orthogonalLoop=1;jettySize=auto;html=1;entryX=0;entryY=0.5;entryDx=0;entryDy=0;" parent="G_3-R3aTESyMnwi2ZIqF-9" source="ut-VKLm46igGH3t-_Mmp-1" target="TW6S9ZztQAryHLJ37Mz1-19" edge="1">
          <mxGeometry relative="1" as="geometry" />
        </mxCell>
        <mxCell id="ut-VKLm46igGH3t-_Mmp-1" value="mart_qlik" style="rounded=1;whiteSpace=wrap;html=1;fillColor=#ffe6cc;strokeColor=#d79b00;" parent="G_3-R3aTESyMnwi2ZIqF-9" vertex="1">
          <mxGeometry x="641.0078481012658" y="482.5" width="150" height="40" as="geometry" />
        </mxCell>
        <mxCell id="d8dq-SGHuodsp6vcEH2E-5" style="edgeStyle=orthogonalEdgeStyle;rounded=0;orthogonalLoop=1;jettySize=auto;html=1;entryX=0;entryY=0.5;entryDx=0;entryDy=0;" edge="1" parent="G_3-R3aTESyMnwi2ZIqF-9" source="IXV0EJKNf4-b1dBTNJux-2" target="d8dq-SGHuodsp6vcEH2E-4">
          <mxGeometry relative="1" as="geometry" />
        </mxCell>
        <mxCell id="IXV0EJKNf4-b1dBTNJux-2" value="DWH_OPS.SP_MEDEX_MAIN_PROCUREMENT()" style="rounded=1;whiteSpace=wrap;html=1;fillColor=#d5e8d4;strokeColor=#82b366;" parent="G_3-R3aTESyMnwi2ZIqF-9" vertex="1">
          <mxGeometry x="504.08" y="300" width="317" height="30" as="geometry" />
        </mxCell>
        <mxCell id="d8dq-SGHuodsp6vcEH2E-2" value="DWH_OPS.SP_MEDEX_INGEST_INTO_REFERENCE_TABLES()" style="rounded=1;whiteSpace=wrap;html=1;fillColor=#d5e8d4;strokeColor=#82b366;" vertex="1" parent="G_3-R3aTESyMnwi2ZIqF-9">
          <mxGeometry x="879" y="300" width="400" height="30" as="geometry" />
        </mxCell>
        <mxCell id="d8dq-SGHuodsp6vcEH2E-3" style="edgeStyle=orthogonalEdgeStyle;rounded=0;orthogonalLoop=1;jettySize=auto;html=1;" edge="1" parent="G_3-R3aTESyMnwi2ZIqF-9" source="IXV0EJKNf4-b1dBTNJux-2" target="d8dq-SGHuodsp6vcEH2E-2">
          <mxGeometry relative="1" as="geometry" />
        </mxCell>
        <mxCell id="d8dq-SGHuodsp6vcEH2E-4" value="DWH_OPS.SP_MEDEX_INGEST_INTO_PROCUREMENT_TABLES()" style="rounded=1;whiteSpace=wrap;html=1;fillColor=#d5e8d4;strokeColor=#82b366;" vertex="1" parent="G_3-R3aTESyMnwi2ZIqF-9">
          <mxGeometry x="879" y="345" width="400" height="30" as="geometry" />
        </mxCell>
        <mxCell id="G_3-R3aTESyMnwi2ZIqF-13" value="" style="group" parent="1" vertex="1" connectable="0">
          <mxGeometry x="10" y="1890" width="320" height="240" as="geometry" />
        </mxCell>
        <mxCell id="G_3-R3aTESyMnwi2ZIqF-2" value="Legend" style="rounded=0;whiteSpace=wrap;html=1;align=center;labelPosition=center;verticalLabelPosition=top;verticalAlign=bottom;" parent="G_3-R3aTESyMnwi2ZIqF-13" vertex="1">
          <mxGeometry width="320" height="240" as="geometry" />
        </mxCell>
        <mxCell id="G_3-R3aTESyMnwi2ZIqF-10" value="Snowflake Schema" style="rounded=1;whiteSpace=wrap;html=1;fillColor=#fad7ac;strokeColor=#b46504;labelPosition=right;verticalLabelPosition=middle;align=left;verticalAlign=middle;" parent="G_3-R3aTESyMnwi2ZIqF-13" vertex="1">
          <mxGeometry x="20" y="75" width="20" height="40" as="geometry" />
        </mxCell>
        <mxCell id="G_3-R3aTESyMnwi2ZIqF-11" value="Qlik Space" style="rounded=1;whiteSpace=wrap;html=1;fillColor=#e1d5e7;strokeColor=#9673a6;labelPosition=right;verticalLabelPosition=middle;align=left;verticalAlign=middle;" parent="G_3-R3aTESyMnwi2ZIqF-13" vertex="1">
          <mxGeometry x="20" y="115" width="20" height="40" as="geometry" />
        </mxCell>
        <mxCell id="G_3-R3aTESyMnwi2ZIqF-12" value="Platform" style="rounded=1;whiteSpace=wrap;html=1;fillColor=#b1ddf0;strokeColor=#10739e;labelPosition=right;verticalLabelPosition=middle;align=left;verticalAlign=middle;" parent="G_3-R3aTESyMnwi2ZIqF-13" vertex="1">
          <mxGeometry x="20" y="35" width="20" height="40" as="geometry" />
        </mxCell>
        <mxCell id="d8dq-SGHuodsp6vcEH2E-1" value="Procedure" style="rounded=1;whiteSpace=wrap;html=1;fillColor=#d5e8d4;strokeColor=#82b366;labelPosition=right;verticalLabelPosition=middle;align=left;verticalAlign=middle;" vertex="1" parent="G_3-R3aTESyMnwi2ZIqF-13">
          <mxGeometry x="20" y="155" width="20" height="40" as="geometry" />
        </mxCell>
      </root>
    </mxGraphModel>
  </diagram>
  <diagram id="moiuhfCc87YtqNoaBt-e" name="Expanded Model">
    <mxGraphModel dx="1436" dy="767" grid="1" gridSize="10" guides="1" tooltips="1" connect="1" arrows="1" fold="1" page="1" pageScale="1" pageWidth="850" pageHeight="1100" math="0" shadow="0">
      <root>
        <mxCell id="0" />
        <mxCell id="1" parent="0" />
        <mxCell id="-rMzIz7dKTnxSQ7G4Nw3-2" style="edgeStyle=orthogonalEdgeStyle;rounded=0;orthogonalLoop=1;jettySize=auto;html=1;exitX=1;exitY=0.5;exitDx=0;exitDy=0;entryX=0;entryY=0.5;entryDx=0;entryDy=0;" parent="1" source="YHT9p_nq8-8FaDuHjBZC-66" target="YHT9p_nq8-8FaDuHjBZC-70" edge="1">
          <mxGeometry relative="1" as="geometry" />
        </mxCell>
        <mxCell id="YHT9p_nq8-8FaDuHjBZC-66" value="" style="rounded=0;whiteSpace=wrap;html=1;fillColor=#f5f5f5;fontColor=#333333;strokeColor=#666666;" parent="1" vertex="1">
          <mxGeometry x="1250" y="380" width="370" height="440" as="geometry" />
        </mxCell>
        <mxCell id="YHT9p_nq8-8FaDuHjBZC-68" style="edgeStyle=orthogonalEdgeStyle;rounded=0;orthogonalLoop=1;jettySize=auto;html=1;entryX=0;entryY=0.5;entryDx=0;entryDy=0;" parent="1" source="YHT9p_nq8-8FaDuHjBZC-65" target="YHT9p_nq8-8FaDuHjBZC-66" edge="1">
          <mxGeometry relative="1" as="geometry" />
        </mxCell>
        <mxCell id="YHT9p_nq8-8FaDuHjBZC-65" value="" style="rounded=0;whiteSpace=wrap;html=1;fillColor=#f5f5f5;fontColor=#333333;strokeColor=#666666;" parent="1" vertex="1">
          <mxGeometry x="560" y="380" width="640" height="440" as="geometry" />
        </mxCell>
        <mxCell id="-rMzIz7dKTnxSQ7G4Nw3-3" style="edgeStyle=orthogonalEdgeStyle;rounded=0;orthogonalLoop=1;jettySize=auto;html=1;entryX=0;entryY=0.5;entryDx=0;entryDy=0;" parent="1" source="YHT9p_nq8-8FaDuHjBZC-64" target="YHT9p_nq8-8FaDuHjBZC-65" edge="1">
          <mxGeometry relative="1" as="geometry" />
        </mxCell>
        <mxCell id="YHT9p_nq8-8FaDuHjBZC-64" value="" style="rounded=0;whiteSpace=wrap;html=1;fillColor=#f5f5f5;fontColor=#333333;strokeColor=#666666;" parent="1" vertex="1">
          <mxGeometry x="140" y="380" width="370" height="440" as="geometry" />
        </mxCell>
        <mxCell id="xS4Zr2jDHEiUHwgicF8w-1" value="&lt;h1&gt;Ingest Requiements&lt;/h1&gt;&lt;div&gt;1. Ingest Procutement entities into flat table (PO+PO lines, PR + PR lines, ...)&lt;/div&gt;&lt;div&gt;2. FinDim: We will use keys and then more details will be linked to Fin4u+Portfolio&lt;/div&gt;&lt;div&gt;3. System users: we will create small tables with link to MP&lt;/div&gt;" style="text;html=1;strokeColor=none;fillColor=none;spacing=5;spacingTop=-20;whiteSpace=wrap;overflow=hidden;rounded=0;" parent="1" vertex="1">
          <mxGeometry y="40" width="630" height="180" as="geometry" />
        </mxCell>
        <mxCell id="YHT9p_nq8-8FaDuHjBZC-12" value="" style="group;fillColor=#f5f5f5;fontColor=#333333;strokeColor=#666666;" parent="1" vertex="1" connectable="0">
          <mxGeometry x="570" y="390" width="620" height="50" as="geometry" />
        </mxCell>
        <mxCell id="YHT9p_nq8-8FaDuHjBZC-10" value="Warehouse 1 (Ingest into tables)" style="rounded=0;whiteSpace=wrap;html=1;fillColor=#ffe6cc;strokeColor=#d79b00;" parent="YHT9p_nq8-8FaDuHjBZC-12" vertex="1">
          <mxGeometry width="620" height="20" as="geometry" />
        </mxCell>
        <mxCell id="YHT9p_nq8-8FaDuHjBZC-11" value="INT_WH" style="rounded=0;whiteSpace=wrap;html=1;fillColor=none;" parent="YHT9p_nq8-8FaDuHjBZC-12" vertex="1">
          <mxGeometry y="20" width="620" height="30" as="geometry" />
        </mxCell>
        <mxCell id="QCqYQP7ewrIkQb6KzaRd-5" value="PR Lines" style="swimlane;fontStyle=0;childLayout=stackLayout;horizontal=1;startSize=26;horizontalStack=0;resizeParent=1;resizeParentMax=0;resizeLast=0;collapsible=1;marginBottom=0;align=center;fontSize=14;fillColor=#dae8fc;strokeColor=#6c8ebf;" parent="1" vertex="1">
          <mxGeometry x="150" y="460" width="160" height="38.431372549019606" as="geometry" />
        </mxCell>
        <mxCell id="YHT9p_nq8-8FaDuHjBZC-4" value="PR" style="swimlane;fontStyle=0;childLayout=stackLayout;horizontal=1;startSize=26;horizontalStack=0;resizeParent=1;resizeParentMax=0;resizeLast=0;collapsible=1;marginBottom=0;align=center;fontSize=14;fillColor=#dae8fc;strokeColor=#6c8ebf;" parent="1" vertex="1">
          <mxGeometry x="340" y="460" width="160" height="38.431372549019606" as="geometry" />
        </mxCell>
        <mxCell id="QCqYQP7ewrIkQb6KzaRd-17" value="Fin Dim" style="swimlane;fontStyle=0;childLayout=stackLayout;horizontal=1;startSize=26;horizontalStack=0;resizeParent=1;resizeParentMax=0;resizeLast=0;collapsible=1;marginBottom=0;align=center;fontSize=14;fillColor=#dae8fc;strokeColor=#6c8ebf;" parent="1" vertex="1">
          <mxGeometry x="150" y="569.8039215686274" width="160" height="38.431372549019606" as="geometry" />
        </mxCell>
        <mxCell id="YHT9p_nq8-8FaDuHjBZC-6" value="System Users" style="swimlane;fontStyle=0;childLayout=stackLayout;horizontal=1;startSize=26;horizontalStack=0;resizeParent=1;resizeParentMax=0;resizeLast=0;collapsible=1;marginBottom=0;align=center;fontSize=14;fillColor=#dae8fc;strokeColor=#6c8ebf;" parent="1" vertex="1">
          <mxGeometry x="340" y="569.8039215686274" width="160" height="41.17647058823529" as="geometry" />
        </mxCell>
        <mxCell id="YHT9p_nq8-8FaDuHjBZC-7" value="Sites" style="swimlane;fontStyle=0;childLayout=stackLayout;horizontal=1;startSize=26;horizontalStack=0;resizeParent=1;resizeParentMax=0;resizeLast=0;collapsible=1;marginBottom=0;align=center;fontSize=14;fillColor=#dae8fc;strokeColor=#6c8ebf;" parent="1" vertex="1">
          <mxGeometry x="150" y="628.8235294117646" width="160" height="41.17647058823529" as="geometry" />
        </mxCell>
        <mxCell id="YHT9p_nq8-8FaDuHjBZC-8" value="Account Codes" style="swimlane;fontStyle=0;childLayout=stackLayout;horizontal=1;startSize=26;horizontalStack=0;resizeParent=1;resizeParentMax=0;resizeLast=0;collapsible=1;marginBottom=0;align=center;fontSize=14;fillColor=#dae8fc;strokeColor=#6c8ebf;" parent="1" vertex="1">
          <mxGeometry x="340" y="628.8235294117646" width="160" height="41.17647058823529" as="geometry" />
        </mxCell>
        <mxCell id="QCqYQP7ewrIkQb6KzaRd-13" value="PO Lines" style="swimlane;fontStyle=0;childLayout=stackLayout;horizontal=1;startSize=26;horizontalStack=0;resizeParent=1;resizeParentMax=0;resizeLast=0;collapsible=1;marginBottom=0;align=center;fontSize=14;fillColor=#dae8fc;strokeColor=#6c8ebf;" parent="1" vertex="1">
          <mxGeometry x="150" y="514.9019607843137" width="160" height="38.431372549019606" as="geometry" />
        </mxCell>
        <mxCell id="YHT9p_nq8-8FaDuHjBZC-5" value="PO" style="swimlane;fontStyle=0;childLayout=stackLayout;horizontal=1;startSize=26;horizontalStack=0;resizeParent=1;resizeParentMax=0;resizeLast=0;collapsible=1;marginBottom=0;align=center;fontSize=14;fillColor=#dae8fc;strokeColor=#6c8ebf;" parent="1" vertex="1">
          <mxGeometry x="340" y="514.9019607843137" width="160" height="38.431372549019606" as="geometry" />
        </mxCell>
        <mxCell id="YHT9p_nq8-8FaDuHjBZC-31" style="edgeStyle=orthogonalEdgeStyle;rounded=0;orthogonalLoop=1;jettySize=auto;html=1;exitX=1;exitY=0.5;exitDx=0;exitDy=0;entryX=0.75;entryY=0;entryDx=0;entryDy=0;" parent="1" source="YHT9p_nq8-8FaDuHjBZC-15" target="YHT9p_nq8-8FaDuHjBZC-18" edge="1">
          <mxGeometry relative="1" as="geometry" />
        </mxCell>
        <mxCell id="YHT9p_nq8-8FaDuHjBZC-15" value="MEDEX_PURCHASE_ORDERS" style="swimlane;fontStyle=0;childLayout=stackLayout;horizontal=1;startSize=26;horizontalStack=0;resizeParent=1;resizeParentMax=0;resizeLast=0;collapsible=1;marginBottom=0;align=center;fontSize=14;fillColor=#f8cecc;strokeColor=#b85450;" parent="1" vertex="1">
          <mxGeometry x="570" y="460" width="270" height="38.43000000000003" as="geometry" />
        </mxCell>
        <mxCell id="YHT9p_nq8-8FaDuHjBZC-18" value="MEDEX_PURCHASE_REQUESTS" style="swimlane;fontStyle=0;childLayout=stackLayout;horizontal=1;startSize=26;horizontalStack=0;resizeParent=1;resizeParentMax=0;resizeLast=0;collapsible=1;marginBottom=0;align=center;fontSize=14;fillColor=#e1d5e7;strokeColor=#9673a6;" parent="1" vertex="1">
          <mxGeometry x="920" y="566.6700000000001" width="270" height="38.43000000000003" as="geometry" />
        </mxCell>
        <mxCell id="YHT9p_nq8-8FaDuHjBZC-30" style="edgeStyle=orthogonalEdgeStyle;rounded=0;orthogonalLoop=1;jettySize=auto;html=1;entryX=0.5;entryY=1;entryDx=0;entryDy=0;" parent="1" source="YHT9p_nq8-8FaDuHjBZC-20" target="YHT9p_nq8-8FaDuHjBZC-18" edge="1">
          <mxGeometry relative="1" as="geometry" />
        </mxCell>
        <mxCell id="YHT9p_nq8-8FaDuHjBZC-20" value="MEDEX_SITES" style="swimlane;fontStyle=0;childLayout=stackLayout;horizontal=1;startSize=26;horizontalStack=0;resizeParent=1;resizeParentMax=0;resizeLast=0;collapsible=1;marginBottom=0;align=center;fontSize=14;fillColor=#f8cecc;strokeColor=#b85450;" parent="1" vertex="1">
          <mxGeometry x="570" y="621.1" width="270" height="38.43000000000003" as="geometry" />
        </mxCell>
        <mxCell id="YHT9p_nq8-8FaDuHjBZC-28" style="edgeStyle=orthogonalEdgeStyle;rounded=0;orthogonalLoop=1;jettySize=auto;html=1;exitX=1;exitY=0.5;exitDx=0;exitDy=0;entryX=0.5;entryY=0;entryDx=0;entryDy=0;" parent="1" source="YHT9p_nq8-8FaDuHjBZC-21" target="YHT9p_nq8-8FaDuHjBZC-18" edge="1">
          <mxGeometry relative="1" as="geometry" />
        </mxCell>
        <mxCell id="YHT9p_nq8-8FaDuHjBZC-21" value="MEDEX_FINANCIAL_DIMENSIONS" style="swimlane;fontStyle=0;childLayout=stackLayout;horizontal=1;startSize=26;horizontalStack=0;resizeParent=1;resizeParentMax=0;resizeLast=0;collapsible=1;marginBottom=0;align=center;fontSize=14;fillColor=#f8cecc;strokeColor=#b85450;" parent="1" vertex="1">
          <mxGeometry x="570" y="513.89" width="270" height="38.43000000000003" as="geometry" />
        </mxCell>
        <mxCell id="YHT9p_nq8-8FaDuHjBZC-29" style="edgeStyle=orthogonalEdgeStyle;rounded=0;orthogonalLoop=1;jettySize=auto;html=1;entryX=0;entryY=0.5;entryDx=0;entryDy=0;" parent="1" source="YHT9p_nq8-8FaDuHjBZC-25" target="YHT9p_nq8-8FaDuHjBZC-18" edge="1">
          <mxGeometry relative="1" as="geometry" />
        </mxCell>
        <mxCell id="YHT9p_nq8-8FaDuHjBZC-25" value="MEDEX_SYSTEM_USERS" style="swimlane;fontStyle=0;childLayout=stackLayout;horizontal=1;startSize=26;horizontalStack=0;resizeParent=1;resizeParentMax=0;resizeLast=0;collapsible=1;marginBottom=0;align=center;fontSize=14;fillColor=#f8cecc;strokeColor=#b85450;" parent="1" vertex="1">
          <mxGeometry x="570" y="566.67" width="270" height="38.43000000000003" as="geometry" />
        </mxCell>
        <mxCell id="YHT9p_nq8-8FaDuHjBZC-33" style="edgeStyle=orthogonalEdgeStyle;rounded=0;orthogonalLoop=1;jettySize=auto;html=1;entryX=0.75;entryY=1;entryDx=0;entryDy=0;" parent="1" source="YHT9p_nq8-8FaDuHjBZC-32" target="YHT9p_nq8-8FaDuHjBZC-18" edge="1">
          <mxGeometry relative="1" as="geometry" />
        </mxCell>
        <mxCell id="YHT9p_nq8-8FaDuHjBZC-32" value="MEDEX_ACCOUNT_CODES" style="swimlane;fontStyle=0;childLayout=stackLayout;horizontal=1;startSize=26;horizontalStack=0;resizeParent=1;resizeParentMax=0;resizeLast=0;collapsible=1;marginBottom=0;align=center;fontSize=14;fillColor=#f8cecc;strokeColor=#b85450;" parent="1" vertex="1">
          <mxGeometry x="570" y="671.1" width="270" height="38.43000000000003" as="geometry" />
        </mxCell>
        <mxCell id="YHT9p_nq8-8FaDuHjBZC-53" style="edgeStyle=orthogonalEdgeStyle;rounded=0;orthogonalLoop=1;jettySize=auto;html=1;entryX=0.5;entryY=1;entryDx=0;entryDy=0;" parent="1" source="YHT9p_nq8-8FaDuHjBZC-34" target="YHT9p_nq8-8FaDuHjBZC-44" edge="1">
          <mxGeometry relative="1" as="geometry" />
        </mxCell>
        <mxCell id="YHT9p_nq8-8FaDuHjBZC-34" value="FIN4U_FINANCIAL_DIMENSIONS" style="swimlane;fontStyle=0;childLayout=stackLayout;horizontal=1;startSize=26;horizontalStack=0;resizeParent=1;resizeParentMax=0;resizeLast=0;collapsible=1;marginBottom=0;align=center;fontSize=14;fillColor=#fff2cc;strokeColor=#d6b656;" parent="1" vertex="1">
          <mxGeometry x="1300" y="632.6700000000001" width="270" height="38.43000000000003" as="geometry" />
        </mxCell>
        <mxCell id="YHT9p_nq8-8FaDuHjBZC-54" style="edgeStyle=orthogonalEdgeStyle;rounded=0;orthogonalLoop=1;jettySize=auto;html=1;entryX=0.5;entryY=0;entryDx=0;entryDy=0;" parent="1" source="YHT9p_nq8-8FaDuHjBZC-36" target="YHT9p_nq8-8FaDuHjBZC-44" edge="1">
          <mxGeometry relative="1" as="geometry" />
        </mxCell>
        <mxCell id="YHT9p_nq8-8FaDuHjBZC-36" value="MP_EMPLOYEE" style="swimlane;fontStyle=0;childLayout=stackLayout;horizontal=1;startSize=26;horizontalStack=0;resizeParent=1;resizeParentMax=0;resizeLast=0;collapsible=1;marginBottom=0;align=center;fontSize=14;fillColor=#fff2cc;strokeColor=#d6b656;" parent="1" vertex="1">
          <mxGeometry x="1300" y="498.43000000000006" width="270" height="38.43000000000003" as="geometry" />
        </mxCell>
        <mxCell id="YHT9p_nq8-8FaDuHjBZC-41" value="" style="group;fillColor=#f5f5f5;strokeColor=#666666;fontColor=#333333;" parent="1" vertex="1" connectable="0">
          <mxGeometry x="1260" y="390" width="350" height="50" as="geometry" />
        </mxCell>
        <mxCell id="YHT9p_nq8-8FaDuHjBZC-42" value="Warehouse 2 (Procurement Data into Flat Table)" style="rounded=0;whiteSpace=wrap;html=1;fillColor=#ffe6cc;strokeColor=#d79b00;" parent="YHT9p_nq8-8FaDuHjBZC-41" vertex="1">
          <mxGeometry width="350" height="20" as="geometry" />
        </mxCell>
        <mxCell id="YHT9p_nq8-8FaDuHjBZC-43" value="INT_WH" style="rounded=0;whiteSpace=wrap;html=1;fillColor=none;" parent="YHT9p_nq8-8FaDuHjBZC-41" vertex="1">
          <mxGeometry y="20" width="350" height="30" as="geometry" />
        </mxCell>
        <mxCell id="YHT9p_nq8-8FaDuHjBZC-44" value="MEDEX_PROCUREMENT" style="swimlane;fontStyle=0;childLayout=stackLayout;horizontal=1;startSize=26;horizontalStack=0;resizeParent=1;resizeParentMax=0;resizeLast=0;collapsible=1;marginBottom=0;align=center;fontSize=14;fillColor=#e1d5e7;strokeColor=#9673a6;" parent="1" vertex="1">
          <mxGeometry x="1300" y="566.9200000000001" width="270" height="38.43000000000003" as="geometry" />
        </mxCell>
        <mxCell id="YHT9p_nq8-8FaDuHjBZC-60" value="" style="group;fillColor=#f5f5f5;fontColor=#333333;strokeColor=#666666;" parent="1" vertex="1" connectable="0">
          <mxGeometry x="150" y="390" width="350" height="50" as="geometry" />
        </mxCell>
        <mxCell id="YHT9p_nq8-8FaDuHjBZC-61" value="Staging (Files to Views)" style="rounded=0;whiteSpace=wrap;html=1;fillColor=#ffe6cc;strokeColor=#d79b00;" parent="YHT9p_nq8-8FaDuHjBZC-60" vertex="1">
          <mxGeometry width="350" height="20" as="geometry" />
        </mxCell>
        <mxCell id="YHT9p_nq8-8FaDuHjBZC-62" value="STG_SCM" style="rounded=0;whiteSpace=wrap;html=1;fillColor=none;" parent="YHT9p_nq8-8FaDuHjBZC-60" vertex="1">
          <mxGeometry y="20" width="350" height="30" as="geometry" />
        </mxCell>
        <mxCell id="YHT9p_nq8-8FaDuHjBZC-70" value="" style="rounded=0;whiteSpace=wrap;html=1;fillColor=#f5f5f5;fontColor=#333333;strokeColor=#666666;" parent="1" vertex="1">
          <mxGeometry x="1670" y="380" width="370" height="440" as="geometry" />
        </mxCell>
        <mxCell id="YHT9p_nq8-8FaDuHjBZC-75" value="" style="group;fillColor=#f5f5f5;strokeColor=#666666;fontColor=#333333;" parent="1" vertex="1" connectable="0">
          <mxGeometry x="1680" y="390" width="350" height="50" as="geometry" />
        </mxCell>
        <mxCell id="YHT9p_nq8-8FaDuHjBZC-76" value="Views" style="rounded=0;whiteSpace=wrap;html=1;fillColor=#ffe6cc;strokeColor=#d79b00;" parent="YHT9p_nq8-8FaDuHjBZC-75" vertex="1">
          <mxGeometry width="350" height="20" as="geometry" />
        </mxCell>
        <mxCell id="YHT9p_nq8-8FaDuHjBZC-77" value="MART_QLIK" style="rounded=0;whiteSpace=wrap;html=1;fillColor=none;" parent="YHT9p_nq8-8FaDuHjBZC-75" vertex="1">
          <mxGeometry y="20" width="350" height="30" as="geometry" />
        </mxCell>
        <mxCell id="YHT9p_nq8-8FaDuHjBZC-78" value="BVA_MEDEX_PURCHASE_REQUESTS" style="swimlane;fontStyle=0;childLayout=stackLayout;horizontal=1;startSize=26;horizontalStack=0;resizeParent=1;resizeParentMax=0;resizeLast=0;collapsible=1;marginBottom=0;align=center;fontSize=14;fillColor=#e1d5e7;strokeColor=#9673a6;" parent="1" vertex="1">
          <mxGeometry x="1720" y="498.43000000000006" width="270" height="38.43000000000003" as="geometry" />
        </mxCell>
        <mxCell id="YHT9p_nq8-8FaDuHjBZC-87" value="BVA_MEDEX_PURCHASE_ORDERS" style="swimlane;fontStyle=0;childLayout=stackLayout;horizontal=1;startSize=26;horizontalStack=0;resizeParent=1;resizeParentMax=0;resizeLast=0;collapsible=1;marginBottom=0;align=center;fontSize=14;fillColor=#e1d5e7;strokeColor=#9673a6;" parent="1" vertex="1">
          <mxGeometry x="1720" y="566.9200000000001" width="270" height="38.43000000000003" as="geometry" />
        </mxCell>
        <mxCell id="YHT9p_nq8-8FaDuHjBZC-88" value="MEDEX_PROCUREMENT_REPORT" style="swimlane;fontStyle=0;childLayout=stackLayout;horizontal=1;startSize=26;horizontalStack=0;resizeParent=1;resizeParentMax=0;resizeLast=0;collapsible=1;marginBottom=0;align=center;fontSize=14;fillColor=#e1d5e7;strokeColor=#9673a6;" parent="1" vertex="1">
          <mxGeometry x="1720" y="632.6700000000001" width="270" height="38.43000000000003" as="geometry" />
        </mxCell>
        <mxCell id="YHT9p_nq8-8FaDuHjBZC-89" value="..." style="swimlane;fontStyle=0;childLayout=stackLayout;horizontal=1;startSize=26;horizontalStack=0;resizeParent=1;resizeParentMax=0;resizeLast=0;collapsible=1;marginBottom=0;align=center;fontSize=14;fillColor=#dae8fc;strokeColor=#6c8ebf;" parent="1" vertex="1">
          <mxGeometry x="150" y="690.0035294117646" width="160" height="41.17647058823529" as="geometry" />
        </mxCell>
        <mxCell id="JOB7urD_kWBn8U9Jy90D-2" style="edgeStyle=orthogonalEdgeStyle;rounded=0;orthogonalLoop=1;jettySize=auto;html=1;exitX=1;exitY=0.25;exitDx=0;exitDy=0;entryX=1;entryY=1;entryDx=0;entryDy=0;" parent="1" source="JOB7urD_kWBn8U9Jy90D-1" target="YHT9p_nq8-8FaDuHjBZC-18" edge="1">
          <mxGeometry relative="1" as="geometry" />
        </mxCell>
        <mxCell id="JOB7urD_kWBn8U9Jy90D-1" value="..." style="swimlane;fontStyle=0;childLayout=stackLayout;horizontal=1;startSize=26;horizontalStack=0;resizeParent=1;resizeParentMax=0;resizeLast=0;collapsible=1;marginBottom=0;align=center;fontSize=14;fillColor=#f8cecc;strokeColor=#b85450;" parent="1" vertex="1">
          <mxGeometry x="570" y="720" width="270" height="38.43000000000003" as="geometry" />
        </mxCell>
        <mxCell id="JOB7urD_kWBn8U9Jy90D-4" style="edgeStyle=orthogonalEdgeStyle;rounded=0;orthogonalLoop=1;jettySize=auto;html=1;exitX=0;exitY=0.5;exitDx=0;exitDy=0;entryX=0;entryY=0.5;entryDx=0;entryDy=0;" parent="1" source="JOB7urD_kWBn8U9Jy90D-3" target="YHT9p_nq8-8FaDuHjBZC-44" edge="1">
          <mxGeometry relative="1" as="geometry" />
        </mxCell>
        <mxCell id="JOB7urD_kWBn8U9Jy90D-3" value="..." style="swimlane;fontStyle=0;childLayout=stackLayout;horizontal=1;startSize=26;horizontalStack=0;resizeParent=1;resizeParentMax=0;resizeLast=0;collapsible=1;marginBottom=0;align=center;fontSize=14;fillColor=#fff2cc;strokeColor=#d6b656;" parent="1" vertex="1">
          <mxGeometry x="1300" y="700.0000000000001" width="270" height="38.43000000000003" as="geometry" />
        </mxCell>
        <mxCell id="JOB7urD_kWBn8U9Jy90D-5" value="..." style="swimlane;fontStyle=0;childLayout=stackLayout;horizontal=1;startSize=26;horizontalStack=0;resizeParent=1;resizeParentMax=0;resizeLast=0;collapsible=1;marginBottom=0;align=center;fontSize=14;fillColor=#e1d5e7;strokeColor=#9673a6;" parent="1" vertex="1">
          <mxGeometry x="1300" y="750.0000000000001" width="270" height="38.43000000000003" as="geometry" />
        </mxCell>
        <mxCell id="sQmt4bHEFzThmLqVAjqt-1" value="..." style="swimlane;fontStyle=0;childLayout=stackLayout;horizontal=1;startSize=26;horizontalStack=0;resizeParent=1;resizeParentMax=0;resizeLast=0;collapsible=1;marginBottom=0;align=center;fontSize=14;fillColor=#e1d5e7;strokeColor=#9673a6;" parent="1" vertex="1">
          <mxGeometry x="1720" y="700.0000000000001" width="270" height="38.43000000000003" as="geometry" />
        </mxCell>
      </root>
    </mxGraphModel>
  </diagram>
  <diagram id="o0jUgT8vp87CY7a9IjYq" name="Business Requirements for BvA">
    <mxGraphModel dx="1221" dy="-448" grid="1" gridSize="10" guides="1" tooltips="1" connect="1" arrows="1" fold="1" page="1" pageScale="1" pageWidth="850" pageHeight="1100" math="0" shadow="0">
      <root>
        <mxCell id="0" />
        <mxCell id="1" parent="0" />
        <mxCell id="hyX4SPNeQBb5sIHbELF1-1" value="&lt;p style=&quot;box-sizing: border-box; margin: 0px 0px 16px; position: relative; color: rgba(0, 0, 0, 0.9); font-family: &amp;quot;Segoe UI VSS (Regular)&amp;quot;, &amp;quot;Segoe UI&amp;quot;, -apple-system, BlinkMacSystemFont, Roboto, &amp;quot;Helvetica Neue&amp;quot;, Helvetica, Ubuntu, Arial, sans-serif, &amp;quot;Apple Color Emoji&amp;quot;, &amp;quot;Segoe UI Emoji&amp;quot;, &amp;quot;Segoe UI Symbol&amp;quot;; font-size: 14px; font-style: normal; font-variant-ligatures: normal; font-variant-caps: normal; font-weight: 400; letter-spacing: normal; orphans: 2; text-align: start; text-indent: 0px; text-transform: none; widows: 2; word-spacing: 0px; -webkit-text-stroke-width: 0px; background-color: rgb(255, 255, 255); text-decoration-thickness: initial; text-decoration-style: initial; text-decoration-color: initial;&quot;&gt;PR header records of type &quot;regular&quot; and in stage:&lt;/p&gt;&lt;ul style=&quot;box-sizing: border-box; padding: 0px 0px 0px 32px; margin: 0px 0px 16px; color: rgba(0, 0, 0, 0.9); font-family: &amp;quot;Segoe UI VSS (Regular)&amp;quot;, &amp;quot;Segoe UI&amp;quot;, -apple-system, BlinkMacSystemFont, Roboto, &amp;quot;Helvetica Neue&amp;quot;, Helvetica, Ubuntu, Arial, sans-serif, &amp;quot;Apple Color Emoji&amp;quot;, &amp;quot;Segoe UI Emoji&amp;quot;, &amp;quot;Segoe UI Symbol&amp;quot;; font-size: 14px; font-style: normal; font-variant-ligatures: normal; font-variant-caps: normal; font-weight: 400; letter-spacing: normal; orphans: 2; text-align: start; text-indent: 0px; text-transform: none; widows: 2; word-spacing: 0px; -webkit-text-stroke-width: 0px; background-color: rgb(255, 255, 255); text-decoration-thickness: initial; text-decoration-style: initial; text-decoration-color: initial;&quot;&gt;&lt;li style=&quot;box-sizing: border-box; list-style: inherit;&quot;&gt;Approved and submitted to logistics&lt;/li&gt;&lt;li style=&quot;box-sizing: border-box; list-style: inherit; margin-top: 4px;&quot;&gt;Sourcing process started&lt;/li&gt;&lt;li style=&quot;box-sizing: border-box; list-style: inherit; margin-top: 4px;&quot;&gt;Closed (with reason &quot;fulfilled&quot;)&lt;/li&gt;&lt;li style=&quot;box-sizing: border-box; list-style: inherit; margin-top: 4px;&quot;&gt;all header fields can be integrated into Boomi (except &quot;requested delivery date&quot; and &quot;Final destination site&quot; -&amp;gt; those ones will be removed from Data model)&lt;/li&gt;&lt;li style=&quot;box-sizing: border-box; list-style: inherit; margin-top: 4px;&quot;&gt;potentially financial dimensions are still available in PR header, but they are hidden in the app. Those should not be integrated to Boomi, as they will be deleted as well&lt;/li&gt;&lt;li style=&quot;box-sizing: border-box; list-style: inherit; margin-top: 4px;&quot;&gt;for BvA report only the PR number, PR stage, requesting site, PR-preparer&lt;/li&gt;&lt;/ul&gt;&lt;p style=&quot;box-sizing: border-box; margin: 0px 0px 16px; position: relative; color: rgba(0, 0, 0, 0.9); font-family: &amp;quot;Segoe UI VSS (Regular)&amp;quot;, &amp;quot;Segoe UI&amp;quot;, -apple-system, BlinkMacSystemFont, Roboto, &amp;quot;Helvetica Neue&amp;quot;, Helvetica, Ubuntu, Arial, sans-serif, &amp;quot;Apple Color Emoji&amp;quot;, &amp;quot;Segoe UI Emoji&amp;quot;, &amp;quot;Segoe UI Symbol&amp;quot;; font-size: 14px; font-style: normal; font-variant-ligatures: normal; font-variant-caps: normal; font-weight: 400; letter-spacing: normal; orphans: 2; text-align: start; text-indent: 0px; text-transform: none; widows: 2; word-spacing: 0px; -webkit-text-stroke-width: 0px; background-color: rgb(255, 255, 255); text-decoration-thickness: initial; text-decoration-style: initial; text-decoration-color: initial;&quot;&gt;PR lines:&lt;/p&gt;&lt;ul style=&quot;box-sizing: border-box; padding: 0px 0px 0px 32px; margin: 0px 0px 16px; color: rgba(0, 0, 0, 0.9); font-family: &amp;quot;Segoe UI VSS (Regular)&amp;quot;, &amp;quot;Segoe UI&amp;quot;, -apple-system, BlinkMacSystemFont, Roboto, &amp;quot;Helvetica Neue&amp;quot;, Helvetica, Ubuntu, Arial, sans-serif, &amp;quot;Apple Color Emoji&amp;quot;, &amp;quot;Segoe UI Emoji&amp;quot;, &amp;quot;Segoe UI Symbol&amp;quot;; font-size: 14px; font-style: normal; font-variant-ligatures: normal; font-variant-caps: normal; font-weight: 400; letter-spacing: normal; orphans: 2; text-align: start; text-indent: 0px; text-transform: none; widows: 2; word-spacing: 0px; -webkit-text-stroke-width: 0px; background-color: rgb(255, 255, 255); text-decoration-thickness: initial; text-decoration-style: initial; text-decoration-color: initial;&quot;&gt;&lt;li style=&quot;box-sizing: border-box; list-style: inherit;&quot;&gt;all line fields can be integrated into Boomi&lt;/li&gt;&lt;li style=&quot;box-sizing: border-box; list-style: inherit; margin-top: 4px;&quot;&gt;for BvA report only the PR line ID, associated PR header ID (parent record), account code, all financial dimensions, line value in USD, requested delivery date&lt;/li&gt;&lt;/ul&gt;&lt;p style=&quot;box-sizing: border-box; margin: 0px 0px 16px; position: relative; color: rgba(0, 0, 0, 0.9); font-family: &amp;quot;Segoe UI VSS (Regular)&amp;quot;, &amp;quot;Segoe UI&amp;quot;, -apple-system, BlinkMacSystemFont, Roboto, &amp;quot;Helvetica Neue&amp;quot;, Helvetica, Ubuntu, Arial, sans-serif, &amp;quot;Apple Color Emoji&amp;quot;, &amp;quot;Segoe UI Emoji&amp;quot;, &amp;quot;Segoe UI Symbol&amp;quot;; font-size: 14px; font-style: normal; font-variant-ligatures: normal; font-variant-caps: normal; font-weight: 400; letter-spacing: normal; orphans: 2; text-align: start; text-indent: 0px; text-transform: none; widows: 2; word-spacing: 0px; -webkit-text-stroke-width: 0px; background-color: rgb(255, 255, 255); text-decoration-thickness: initial; text-decoration-style: initial; text-decoration-color: initial;&quot;&gt;PO header records in stage:&lt;/p&gt;&lt;ul style=&quot;box-sizing: border-box; padding: 0px 0px 0px 32px; margin: 0px 0px 16px; color: rgba(0, 0, 0, 0.9); font-family: &amp;quot;Segoe UI VSS (Regular)&amp;quot;, &amp;quot;Segoe UI&amp;quot;, -apple-system, BlinkMacSystemFont, Roboto, &amp;quot;Helvetica Neue&amp;quot;, Helvetica, Ubuntu, Arial, sans-serif, &amp;quot;Apple Color Emoji&amp;quot;, &amp;quot;Segoe UI Emoji&amp;quot;, &amp;quot;Segoe UI Symbol&amp;quot;; font-size: 14px; font-style: normal; font-variant-ligatures: normal; font-variant-caps: normal; font-weight: 400; letter-spacing: normal; orphans: 2; text-align: start; text-indent: 0px; text-transform: none; widows: 2; word-spacing: 0px; -webkit-text-stroke-width: 0px; background-color: rgb(255, 255, 255); text-decoration-thickness: initial; text-decoration-style: initial; text-decoration-color: initial;&quot;&gt;&lt;li style=&quot;box-sizing: border-box; list-style: inherit;&quot;&gt;Confirmed &amp;amp; Signed&lt;/li&gt;&lt;li style=&quot;box-sizing: border-box; list-style: inherit; margin-top: 4px;&quot;&gt;Receiving process started&lt;/li&gt;&lt;li style=&quot;box-sizing: border-box; list-style: inherit; margin-top: 4px;&quot;&gt;Closed (with reason &quot;fulfilled&quot;)&lt;/li&gt;&lt;li style=&quot;box-sizing: border-box; list-style: inherit; margin-top: 4px;&quot;&gt;all header fields can be integrated into Boomi (except &quot;confirmed delivery date&quot; -&amp;gt; will be removed from Data model)&lt;/li&gt;&lt;li style=&quot;box-sizing: border-box; list-style: inherit; margin-top: 4px;&quot;&gt;for BvA report only the PO number, PO stage, purchasing site, buyer&lt;/li&gt;&lt;/ul&gt;&lt;p style=&quot;box-sizing: border-box; margin: 0px 0px 16px; position: relative; color: rgba(0, 0, 0, 0.9); font-family: &amp;quot;Segoe UI VSS (Regular)&amp;quot;, &amp;quot;Segoe UI&amp;quot;, -apple-system, BlinkMacSystemFont, Roboto, &amp;quot;Helvetica Neue&amp;quot;, Helvetica, Ubuntu, Arial, sans-serif, &amp;quot;Apple Color Emoji&amp;quot;, &amp;quot;Segoe UI Emoji&amp;quot;, &amp;quot;Segoe UI Symbol&amp;quot;; font-size: 14px; font-style: normal; font-variant-ligatures: normal; font-variant-caps: normal; font-weight: 400; letter-spacing: normal; orphans: 2; text-align: start; text-indent: 0px; text-transform: none; widows: 2; word-spacing: 0px; -webkit-text-stroke-width: 0px; background-color: rgb(255, 255, 255); text-decoration-thickness: initial; text-decoration-style: initial; text-decoration-color: initial;&quot;&gt;PO lines:&lt;/p&gt;&lt;ul style=&quot;box-sizing: border-box; padding: 0px 0px 0px 32px; margin: 0px 0px 16px; color: rgba(0, 0, 0, 0.9); font-family: &amp;quot;Segoe UI VSS (Regular)&amp;quot;, &amp;quot;Segoe UI&amp;quot;, -apple-system, BlinkMacSystemFont, Roboto, &amp;quot;Helvetica Neue&amp;quot;, Helvetica, Ubuntu, Arial, sans-serif, &amp;quot;Apple Color Emoji&amp;quot;, &amp;quot;Segoe UI Emoji&amp;quot;, &amp;quot;Segoe UI Symbol&amp;quot;; font-size: 14px; font-style: normal; font-variant-ligatures: normal; font-variant-caps: normal; font-weight: 400; letter-spacing: normal; orphans: 2; text-align: start; text-indent: 0px; text-transform: none; widows: 2; word-spacing: 0px; -webkit-text-stroke-width: 0px; background-color: rgb(255, 255, 255); text-decoration-thickness: initial; text-decoration-style: initial; text-decoration-color: initial;&quot;&gt;&lt;li style=&quot;box-sizing: border-box; list-style: inherit;&quot;&gt;all line fields can be integrated into Boomi&lt;/li&gt;&lt;li style=&quot;box-sizing: border-box; list-style: inherit; margin-top: 4px;&quot;&gt;for BvA report only the PO line ID, associated PO header ID (parent record), associated PR line ID (predecessor record), line value in USD and account code &amp;amp; all financial dimensions from the associated PR line ID (predecessor record), confirmed delivery date.&amp;nbsp;Account and fin dimensions of PO come from linked PR. Line value USD of PO line is maintained at PO line level directly (not on linked PR line).&lt;/li&gt;&lt;/ul&gt;" style="text;whiteSpace=wrap;html=1;" parent="1" vertex="1">
          <mxGeometry x="110" y="1120" width="560" height="670" as="geometry" />
        </mxCell>
      </root>
    </mxGraphModel>
  </diagram>
</mxfile>
